<?xml version="1.0" encoding="UTF-8"?>
<svg width="376px" height="557px" viewBox="0 0 376 557" version="1.1" xmlns="http://www.w3.org/2000/svg" xmlns:xlink="http://www.w3.org/1999/xlink">
    <!-- Generator: Sketch 52.6 (67491) - http://www.bohemiancoding.com/sketch -->
    <title>Group 10</title>
    <desc>Created with Sketch.</desc>
    <defs>
        <linearGradient x1="104.824851%" y1="37.771458%" x2="4.77533553%" y2="133.135702%" id="linearGradient-1">
            <stop stop-color="#247EBF" stop-opacity="0.553979846" offset="0%"></stop>
            <stop stop-color="#2AE7FC" stop-opacity="0.718976449" offset="100%"></stop>
        </linearGradient>
        <linearGradient x1="50%" y1="0%" x2="50%" y2="100%" id="linearGradient-2">
            <stop stop-color="#247EBF" offset="0%"></stop>
            <stop stop-color="#2AE7FC" stop-opacity="0.556102808" offset="100%"></stop>
        </linearGradient>
        <linearGradient x1="62.967622%" y1="71.4667331%" x2="56.2222747%" y2="145.718517%" id="linearGradient-3">
            <stop stop-color="#247EBF" offset="0%"></stop>
            <stop stop-color="#2AE7FC" offset="100%"></stop>
        </linearGradient>
        <linearGradient x1="-27.9801271%" y1="147.751315%" x2="27.3722043%" y2="66.5407517%" id="linearGradient-4">
            <stop stop-color="#28C5E8" offset="0%"></stop>
            <stop stop-color="#0F5B85" offset="100%"></stop>
        </linearGradient>
        <linearGradient x1="33.392351%" y1="287.351428%" x2="50%" y2="71.2874067%" id="linearGradient-5">
            <stop stop-color="#29E6FB" offset="0%"></stop>
            <stop stop-color="#0F5B85" offset="100%"></stop>
        </linearGradient>
        <linearGradient x1="100%" y1="0%" x2="100%" y2="102.341529%" id="linearGradient-6">
            <stop stop-color="#FFFFFF" stop-opacity="0.630434783" offset="0%"></stop>
            <stop stop-color="#1B9BBC" stop-opacity="0" offset="100%"></stop>
        </linearGradient>
        <radialGradient cx="50%" cy="50%" fx="50%" fy="50%" r="55.7831155%" gradientTransform="translate(0.500000,0.500000),scale(1.000000,0.998459),rotate(180.000000),scale(1.000000,0.912324),translate(-0.500000,-0.500000)" id="radialGradient-7">
            <stop stop-color="#2AE7FC" offset="0%"></stop>
            <stop stop-color="#FFFFFF" offset="100%"></stop>
        </radialGradient>
        <radialGradient cx="50%" cy="50%" fx="50%" fy="50%" r="57.488775%" gradientTransform="translate(0.500000,0.500000),scale(1.000000,0.998459),rotate(180.000000),scale(1.000000,0.912324),translate(-0.500000,-0.500000)" id="radialGradient-8">
            <stop stop-color="#2AE7FC" offset="0%"></stop>
            <stop stop-color="#FFFFFF" offset="97.0330564%"></stop>
        </radialGradient>
        <radialGradient cx="50%" cy="50%" fx="50%" fy="50%" r="57.488775%" gradientTransform="translate(0.500000,0.500000),scale(1.000000,0.998459),rotate(180.000000),scale(1.000000,0.912324),translate(-0.500000,-0.500000)" id="radialGradient-9">
            <stop stop-color="#2AE7FC" offset="0%"></stop>
            <stop stop-color="#FFFFFF" offset="100%"></stop>
        </radialGradient>
    </defs>
    <g id="Design" stroke="none" stroke-width="1" fill="none" fill-rule="evenodd">
        <g id="Landing-Page" transform="translate(-144.000000, -3261.000000)">
            <g id="Group-10" transform="translate(144.000000, 3261.000000)">
                <path d="M322.550473,482.344852 C322.435395,482.660577 322.292375,482.970942 322.120539,483.272768 C321.597625,484.19126 320.843217,484.956739 319.93244,485.492978 L201.389971,555.287262 C199.495588,556.402619 197.145267,556.402619 195.250884,555.287262 L76.6858568,485.479696 C73.8065299,483.784434 72.8466557,480.075996 74.5419179,477.196669 C74.668279,476.982051 74.8073716,476.776111 74.9581994,476.579835 L74.9581994,418.96087 L126.203527,446.717962 L194.993071,407.356275 C196.850529,406.293429 199.131288,406.290947 200.991056,407.349747 L271.421449,447.447071 L324.012862,418.96087 L324.012862,483.136957 L322.550473,482.344852 Z" id="Combined-Shape" fill-opacity="0.51" fill="url(#linearGradient-1)"></path>
                <path d="M200.991056,348.017138 L319.85617,415.689243 C322.759886,417.342382 323.773679,421.036443 322.120539,423.94016 C321.597625,424.858651 320.843217,425.62413 319.93244,426.160369 L201.389971,495.954654 C199.495588,497.07001 197.145267,497.07001 195.250884,495.954654 L76.6858568,426.147087 C73.8065299,424.451825 72.8466557,420.743388 74.5419179,417.864061 C75.0758909,416.957131 75.8372132,416.205184 76.750689,415.682489 L194.993071,348.023667 C196.850529,346.960821 199.131288,346.958338 200.991056,348.017138 Z" id="Rectangle" fill-opacity="0.51" fill="url(#linearGradient-2)"></path>
                <g id="Group-14" transform="translate(67.704180, 261.547826)">
                    <path d="M254.846293,136.036156 C254.731215,136.351881 254.588195,136.662247 254.416359,136.964073 C253.893445,137.882564 253.139037,138.648044 252.22826,139.184282 L133.685791,208.978567 C131.791408,210.093923 129.441087,210.093923 127.546704,208.978567 L8.98167675,139.171 C6.10234979,137.475738 5.14247565,133.767301 6.83773785,130.887974 C6.96409893,130.673355 7.10319158,130.467415 7.25401929,130.271139 L7.25401929,72.6521739 L58.4993465,100.409266 L127.288891,61.0475797 C129.146349,59.9847337 131.427108,59.9822512 133.286876,61.0410512 L203.717269,101.138375 L256.308682,72.6521739 L256.308682,136.828261 L254.846293,136.036156 Z" id="Combined-Shape" fill="url(#linearGradient-1)"></path>
                    <path d="M133.286876,1.70844253 L252.15199,69.3805472 C255.055706,71.0336865 256.069499,74.7277478 254.416359,77.6314641 C253.893445,78.5499558 253.139037,79.3154348 252.22826,79.8516732 L133.685791,149.645958 C131.791408,150.761314 129.441087,150.761314 127.546704,149.645958 L8.98167675,79.8383914 C6.10234979,78.1431292 5.14247565,74.4346919 6.83773785,71.555365 C7.37171086,70.6484357 8.13303317,69.8964887 9.04650889,69.3737938 L127.288891,1.71497096 C129.146349,0.652124971 131.427108,0.64964251 133.286876,1.70844253 Z" id="Rectangle" fill="url(#linearGradient-2)"></path>
                </g>
                <g id="Group-17" transform="translate(125.000000, 0.000000)">
                    <g id="ABAJO" transform="translate(26.125402, 196.160870)">
                        <path d="M43.9286968,119.207434 C29.9717997,128.710955 21.9608472,135.53014 19.8958393,139.664989 C18.1433846,143.174 13.3898964,144.377112 5.63537453,143.274325 L5.63537339,143.274333 C3.03420259,142.904414 1.20317614,140.526847 1.50991551,137.917472 C2.37319969,130.573672 4.92811456,126.147628 9.17466013,124.63934 C14.2355464,122.841814 19.5274178,118.368435 25.0502745,111.219202 L43.9286968,119.207434 Z" id="Path-19" fill="#052337"></path>
                        <path d="M67.1450758,133.57282 C66.7909859,143.505842 65.8741233,150.084861 64.3944878,153.309877 C62.1750347,158.1474 64.4807733,171.110195 68.735604,172.544745 C72.9904348,173.979294 81.7925081,167.156063 83.2584017,161.5811 C84.2356642,157.864459 84.2356642,148.528365 83.2584017,133.57282 L67.1450758,133.57282 Z" id="Path-20" fill="#052337"></path>
                        <path d="M4.67159789,4.4092768 C6.73850627,31.2880466 9.01369435,48.6472665 11.4971621,56.4869365 C13.9806299,64.3266065 15.8955597,69.4292071 17.2419516,71.7947381 L23.8022442,111.783905 C25.2950881,119.004344 29.8744783,122.614564 37.5404149,122.614564 C41.0082893,122.614564 43.5328603,121.23911 45.1141281,118.488203 C44.084128,93.9126951 42.5643424,78.3482068 40.5547714,71.7947381 L40.5547714,41.3815093 C50.8556825,49.2861553 56.5446427,77.830682 64.2851869,90.4806341 L66.1729076,133.262045 C72.7219633,138.080023 78.0980482,138.080023 82.3011624,133.262045 C84.4965423,112.832807 85.0453873,96.344268 83.9476974,83.7964284 C82.3011624,64.974669 77.570712,29.739025 82.3011624,19.2807587 L21.3281933,0.337547004 L4.67159789,4.4092768 Z" id="PANTALONES" fill="#0F5B85"></path>
                    </g>
                    <g id="brazo" transform="translate(0.527331, 55.700000)">
                        <path d="M49.2256159,4.73063185 L31.2057718,9.85757885 L26.9939283,85.2523222 L17.2653361,134.689958 C29.2827034,147.037731 37.6137585,149.57867 42.2585015,142.312775 C42.2585015,142.312775 46.6358355,166.297065 80.4100479,164.30472 C102.926189,162.97649 113.084625,158.536452 110.885355,150.984604 L107.462314,98.4563204 C120.20484,83.3101472 126.576103,61.9103108 126.576103,34.2568113 C126.576103,34.2568113 96.2171737,17.0576836 96.2171737,9.85757885 C96.2171737,5.05750904 93.9501461,1.95450687 89.4160907,0.548572329 C92.3425891,3.33661201 87.3275081,13.6464533 74.3708475,31.4780962 C72.737429,36.0968553 66.9165006,45.5809561 56.9080622,59.9303986 L54.3415572,16.1547566 L49.2256159,4.73063185 Z" id="Path-7" fill="url(#linearGradient-3)"></path>
                        <path d="M31.4990423,9.06782227 C13.6700567,34.9612399 3.19507514,60.7980995 0.0740975093,86.5784011 C0.0740975093,91.1867996 9.45008415,97.44255 28.2020574,105.345652 L34.4687841,86.5784011 C34.2798356,81.7979393 27.5041112,83.7514859 26.797966,78.7375164 C27.1057057,77.2799576 27.1057057,74.233648 31.4990423,70.2176836 C30.6794599,62.8171977 30.6794599,42.4339106 31.4990423,9.06782227 Z" id="Path-10" fill="url(#linearGradient-4)"></path>
                        <path d="M99.8884862,50.602743 L86.0482315,92.8797923 L44.9421222,74.883248 C36.6400052,80.861118 31.7491874,89.8043832 30.2696686,101.713043 C59.9144647,112.661862 79.5357408,118.136271 89.133497,118.136271 C96.545431,119.186837 108.931129,98.7928512 126.290591,56.9543139 C127.939527,47.2702533 127.939527,39.5464199 126.290591,33.7828135 C124.641656,28.0192071 115.840954,33.6258503 99.8884862,50.602743 Z" id="Path-11" fill="url(#linearGradient-5)"></path>
                        <path d="M45.3507079,74.5944782 L35.1679758,85.9541217 C28.6991366,81.8144934 26.5783478,77.4786404 28.8056094,72.9465627 C31.032871,68.414485 36.5479038,68.9637901 45.3507079,74.5944782 Z" id="Path-13" fill="#FDD1C4"></path>
                        <path d="M92.0932476,71.9654392 C83.0516587,73.7943898 76.7075182,78.8302039 73.0608262,87.0728815 L84.2265378,92.6778403 L89.133497,88.7896152 C90.8491408,85.979231 91.1383808,83.2717641 90.001217,80.6672144 L86.0482315,78.5859305 L92.0932476,74.4791613 L92.0932476,71.9654392 Z" id="Path-15" fill="#FDD1C4"></path>
                    </g>
                    <g id="CABEZA" transform="translate(45.469453, -0.000000)">
                        <path d="M40.441111,51.8582646 L43.3533491,57.1566852 C41.7173199,67.8385 34.4551124,74.4889883 21.5667265,77.10815 C18.7478123,77.10815 15.5545971,74.8378433 11.987081,70.29723 L40.441111,51.8582646 Z" id="Path-6" fill="#E1B1A4"></path>
                        <path d="M43.4168075,55.7644581 C42.1165147,65.6164423 34.7349139,72.160195 21.2720051,75.3957161 C21.2720051,75.3957161 15.4995739,74.5020069 15.4995739,71.6788935 C15.4995739,69.796818 13.6571748,69.2838369 9.97237661,70.1399504 L10.8086875,95.3349917 C11.9157656,108.904562 12.4693047,115.385528 12.4693047,114.777889 C12.4693047,114.170251 22.785139,98.0401652 43.4168075,66.3876314 C44.5116657,64.4417774 45.0590948,62.6918516 45.0590948,61.1378539 C45.0590948,59.5838562 44.5116657,57.7927243 43.4168075,55.7644581 Z" id="camisa" fill="#FFFFFF"></path>
                        <path d="M0.408585728,30.0860919 C1.85950014,10.3657721 10.0315721,0.505612242 24.9248015,0.505612242 C39.818031,0.505612242 48.2211595,8.92036539 50.1341872,25.7498717 C50.5303803,29.6209074 49.6128804,32.9826318 47.3816875,35.8350448 C45.1504946,38.6874578 40.7842983,41.7224414 34.2830986,44.9399957 C31.4505531,30.9312388 29.1827006,23.501929 27.479541,22.6520663 C26.2557551,22.0414071 21.6332195,27.2604069 12.8503281,30.0860919 C10.5567417,30.8239984 6.4094942,30.8239984 0.408585728,30.0860919 Z" id="Path-17" fill="#966968"></path>
                        <path d="M0.89148658,30.6915419 C10.7519966,28.9675367 19.219601,26.3701322 26.2942997,22.8993284 C29.022181,18.5789548 33.058142,32.7473932 35.7689547,43.672866 C38.5920067,43.672866 41.3990245,40.7672334 44.1900082,34.9559683 C49.5774963,34.3011778 50.3512753,37.2068104 46.5113452,43.672866 C44.9637872,50.0922989 43.1519236,52.360236 41.0757546,50.4766775 C33.0307287,64.1257428 23.304699,70.9502755 11.8976654,70.9502755 C6.50241885,70.9502755 3.41299237,47.6995164 3.41299237,43.672866 C3.41299237,40.9884324 2.57249044,36.6613244 0.89148658,30.6915419 Z" id="Path-5" fill="#FFCBBD"></path>
                    </g>
                </g>
                <path d="M365.723473,116.848913 L365.723473,302.111957" id="Line-4" stroke="url(#linearGradient-6)" stroke-width="3.63" stroke-linecap="square"></path>
                <ellipse id="Oval" fill="url(#radialGradient-7)" cx="365.723473" cy="105.951087" rx="10.2765273" ry="10.2923913"></ellipse>
                <path d="M323.40836,67.2032609 L323.40836,252.466304" id="Line-4" stroke="url(#linearGradient-6)" stroke-width="3.63" stroke-linecap="square"></path>
                <ellipse id="Oval" fill="url(#radialGradient-8)" cx="323.40836" cy="56.3054348" rx="10.2765273" ry="10.2923913"></ellipse>
                <path d="M341.543408,138.644565 L341.543408,323.907609" id="Line-4" stroke="url(#linearGradient-6)" stroke-width="3.63" stroke-linecap="square"></path>
                <ellipse id="Oval" fill="url(#radialGradient-8)" cx="341.543408" cy="127.746739" rx="10.2765273" ry="10.2923913"></ellipse>
                <path d="M11.4855305,70.8358696 L11.4855305,256.098913" id="Line-4" stroke="url(#linearGradient-6)" stroke-width="3.63" stroke-linecap="square" transform="translate(10.881029, 163.467391) rotate(-180.000000) translate(-10.881029, -163.467391) "></path>
                <ellipse id="Oval" fill="url(#radialGradient-9)" transform="translate(10.276527, 266.996739) rotate(-180.000000) translate(-10.276527, -266.996739) " cx="10.2765273" cy="266.996739" rx="10.2765273" ry="10.2923913"></ellipse>
                <path d="M53.8006431,120.481522 L53.8006431,305.744565" id="Line-4" stroke="url(#linearGradient-6)" stroke-width="3.63" stroke-linecap="square" transform="translate(53.196141, 213.113043) rotate(-180.000000) translate(-53.196141, -213.113043) "></path>
                <ellipse id="Oval" fill="url(#radialGradient-9)" transform="translate(52.591640, 316.642391) rotate(-180.000000) translate(-52.591640, -316.642391) " cx="52.5916399" cy="316.642391" rx="10.2765273" ry="10.2923913"></ellipse>
                <path d="M35.6655949,49.0402174 L35.6655949,234.303261" id="Line-4" stroke="url(#linearGradient-6)" stroke-width="3.63" stroke-linecap="square" transform="translate(35.061093, 141.671739) rotate(-180.000000) translate(-35.061093, -141.671739) "></path>
                <ellipse id="Oval" fill="url(#radialGradient-9)" transform="translate(34.456592, 245.201087) rotate(-180.000000) translate(-34.456592, -245.201087) " cx="34.4565916" cy="245.201087" rx="10.2765273" ry="10.2923913"></ellipse>
            </g>
        </g>
    </g>
</svg>