<?xml version="1.0" encoding="UTF-8" standalone="no"?><!DOCTYPE svg PUBLIC "-//W3C//DTD SVG 1.1//EN" "http://www.w3.org/Graphics/SVG/1.1/DTD/svg11.dtd"><svg width="100%" height="100%" viewBox="0 0 1280 2000" version="1.1" xmlns="http://www.w3.org/2000/svg" xmlns:xlink="http://www.w3.org/1999/xlink" xml:space="preserve" xmlns:serif="http://www.serif.com/" style="fill-rule:evenodd;clip-rule:evenodd;stroke-linejoin:round;stroke-miterlimit:1.41421;"><path d="M1280,1889.16l-1280,0l0,-1762.7l5.692,-0.741c3.044,-0.446 16.546,-2.226 30.047,-3.858c31.636,-4.006 60.36,-8.903 100.6,-17.064c61.419,-12.315 80.348,-14.689 121.779,-14.837c35.607,0 49.506,1.483 79.95,8.309c24.224,5.49 39.843,11.128 68.964,25.075c54.8,26.115 75.45,31.011 123.632,29.231c47.652,-1.781 96.761,-14.096 169.564,-42.584c95.305,-37.391 124.69,-47.778 170.49,-60.687c80.877,-22.85 158.047,-35.907 226.614,-38.578c69.89,-2.522 130.383,4.155 174.329,19.289l8.339,2.968l0,1856.17Z" style="fill:url(#_Linear1);"/><defs><linearGradient id="_Linear1" x1="0" y1="0" x2="1" y2="0" gradientUnits="userSpaceOnUse" gradientTransform="matrix(1280,0,0,1878.95,0,949.681)"><stop offset="0" style="stop-color:#247ebf;stop-opacity:1"/><stop offset="0.55" style="stop-color:#2594cc;stop-opacity:1"/><stop offset="1" style="stop-color:#2ae7fc;stop-opacity:1"/></linearGradient></defs></svg>