<?xml version="1.0" encoding="UTF-8" standalone="no"?><!DOCTYPE svg PUBLIC "-//W3C//DTD SVG 1.1//EN" "http://www.w3.org/Graphics/SVG/1.1/DTD/svg11.dtd"><svg width="100%" height="100%" viewBox="0 0 1500 1800" version="1.1" xmlns="http://www.w3.org/2000/svg" xmlns:xlink="http://www.w3.org/1999/xlink" xml:space="preserve" xmlns:serif="http://www.serif.com/" style="fill-rule:evenodd;clip-rule:evenodd;stroke-linejoin:round;stroke-miterlimit:1.41421;"><path d="M0,1800l0,-1559.31l6.67,-0.747c3.568,-0.448 19.39,-2.241 35.212,-3.885c37.074,-4.035 70.734,-8.966 117.89,-17.185c71.976,-12.402 94.158,-14.793 142.71,-14.943c41.727,0 58.014,1.495 93.692,8.369c28.386,5.528 46.691,11.207 80.817,25.253c64.219,26.3 88.417,31.231 144.881,29.438c55.843,-1.793 113.392,-14.196 198.707,-42.887c111.686,-37.656 146.122,-48.116 199.793,-61.116c94.778,-23.013 185.212,-36.162 265.564,-38.852c81.903,-2.541 152.792,4.184 204.292,19.426l9.772,2.988l0,1653.45l-1500,0Z" style="fill:url(#_Linear1);"/><defs><linearGradient id="_Linear1" x1="0" y1="0" x2="1" y2="0" gradientUnits="userSpaceOnUse" gradientTransform="matrix(1500,0,0,1397.9,0,822.562)"><stop offset="0" style="stop-color:#247ebf;stop-opacity:1"/><stop offset="1" style="stop-color:#2ae7fc;stop-opacity:1"/></linearGradient></defs></svg>