<?xml version="1.0" encoding="UTF-8"?>
<svg width="516px" height="552px" viewBox="0 0 516 552" version="1.1" xmlns="http://www.w3.org/2000/svg" xmlns:xlink="http://www.w3.org/1999/xlink">
    <!-- Generator: Sketch 52.6 (67491) - http://www.bohemiancoding.com/sketch -->
    <title>mobile</title>
    <desc>Created with Sketch.</desc>
    <defs>
        <linearGradient x1="38.428184%" y1="100%" x2="93.2206694%" y2="21.8018203%" id="linearGradient-1">
            <stop stop-color="#096AAE" offset="0%"></stop>
            <stop stop-color="#A9BFCF" offset="100%"></stop>
        </linearGradient>
        <linearGradient x1="1.35135272%" y1="31.03255%" x2="97.7096929%" y2="67.3850221%" id="linearGradient-2">
            <stop stop-color="#F3F5FE" offset="0%"></stop>
            <stop stop-color="#DBF0FF" offset="100%"></stop>
        </linearGradient>
        <linearGradient x1="0%" y1="100%" x2="100%" y2="18.4289948%" id="linearGradient-3">
            <stop stop-color="#247EBF" offset="0%"></stop>
            <stop stop-color="#2AE7FC" offset="100%"></stop>
        </linearGradient>
        <linearGradient x1="2.79075173%" y1="98.8838976%" x2="164.995994%" y2="42.2083376%" id="linearGradient-4">
            <stop stop-color="#247EBF" stop-opacity="0.355751812" offset="0%"></stop>
            <stop stop-color="#2AE7FC" stop-opacity="0.649230072" offset="50.69319%"></stop>
            <stop stop-color="#247EBF" stop-opacity="0.355751812" offset="100%"></stop>
        </linearGradient>
        <linearGradient x1="5.60322095%" y1="32.3896983%" x2="96.5072953%" y2="67.5178978%" id="linearGradient-5">
            <stop stop-color="#F3F5FE" offset="0%"></stop>
            <stop stop-color="#E5ECF0" offset="100%"></stop>
        </linearGradient>
        <linearGradient x1="12.1035014%" y1="32.9807159%" x2="84.0561829%" y2="7.08597957%" id="linearGradient-6">
            <stop stop-color="#000000" stop-opacity="0.281108469" offset="0%"></stop>
            <stop stop-color="#FFFFFF" stop-opacity="0" offset="100%"></stop>
        </linearGradient>
        <linearGradient x1="50%" y1="0%" x2="50%" y2="100%" id="linearGradient-7">
            <stop stop-color="#FFFFFF" stop-opacity="0" offset="0%"></stop>
            <stop stop-color="#FFFFFF" stop-opacity="0.434641078" offset="100%"></stop>
        </linearGradient>
    </defs>
    <g id="Design" stroke="none" stroke-width="1" fill="none" fill-rule="evenodd">
        <g id="Landing-Page" transform="translate(-82.000000, -1789.000000)">
            <g id="mobile" transform="translate(82.000000, 1789.000000)">
                <g id="Group-7" transform="translate(0.000000, 194.605263)">
                    <g id="CEL" transform="translate(179.173444, 216.486513)">
                        <g id="Group">
                            <path d="M5.26653623,45.7741278 L5.26653623,51.7498352 C5.26653623,52.9514792 5.91932604,54.0582627 6.97096671,54.6396406 L149.353678,133.352994 C154.369793,136.12605 160.465224,136.099136 165.456656,133.281893 L229.758353,96.9889898 C230.795729,96.4034782 231.437327,95.3046111 231.437327,94.1134046 L231.437327,88.1227334 L157.425026,126.951302 L5.26653623,45.7741278 Z" id="Path-4" fill="url(#linearGradient-1)"></path>
                            <path d="M84.5264533,5.00553749 L226.782756,84.0416045 C229.173949,85.3701259 230.035415,88.3855508 228.706894,90.7767444 C228.254781,91.5904975 227.582491,92.2603654 226.767112,92.7095375 L165.223439,126.612395 C160.252631,129.350688 154.223817,129.344017 149.25908,126.594732 L8.8262727,48.8282861 C6.43322569,47.5031061 5.5675485,44.4888874 6.89272859,42.0958404 C7.33965845,41.2887621 8.00311686,40.6225484 8.80833608,40.1722776 L71.665418,5.0232054 C75.6598502,2.78955761 80.5258993,2.78287285 84.5264533,5.00553749 Z" id="Rectangle" fill="url(#linearGradient-2)"></path>
                            <polygon id="Path" stroke="#535353" stroke-width="0.5" fill="url(#linearGradient-3)" points="20.5317458 51.3413677 90.7080894 11.8401652 210.88974 79.0545708 140.926721 117.739252"></polygon>
                            <ellipse id="Oval" stroke="#3984B8" stroke-width="0.5" fill="#D8D8D8" cx="187.266915" cy="102.812273" rx="6.04086822" ry="4.40624026"></ellipse>
                        </g>
                    </g>
                    <path d="M222.497272,267.042462 L240.065276,257.543292 C241.555644,256.737437 243.354519,256.749299 244.834131,257.574737 L261.817042,267.049077 C263.409623,267.937539 263.980425,269.948821 263.091964,271.541402 C262.785536,272.090678 262.328605,272.541011 261.77493,272.839417 L244.657767,282.0648 C243.204512,282.848039 241.456549,282.855731 239.996458,282.085311 L222.526857,272.867439 C220.91397,272.016396 220.296374,270.018986 221.147417,268.406099 C221.452473,267.827961 221.922262,267.353375 222.497272,267.042462 Z" id="Rectangle-5" fill-opacity="0.702700408" fill="#F1F1F1" opacity="0.782621838"></path>
                    <path d="M254.321665,284.714831 L271.88967,275.21566 C273.380037,274.409806 275.178913,274.421667 276.658524,275.247105 L293.641435,284.721446 C295.234016,285.609907 295.804818,287.621189 294.916357,289.213771 C294.60993,289.763047 294.152999,290.21338 293.599324,290.511786 L276.482161,299.737169 C275.028906,300.520408 273.280943,300.528099 271.820851,299.757679 L254.35125,290.539808 C252.738364,289.688764 252.120767,287.691355 252.97181,286.078468 C253.276866,285.50033 253.746656,285.025743 254.321665,284.714831 Z" id="Rectangle-Copy-5" fill-opacity="0.702700408" fill="#F1F1F1" opacity="0.782621838"></path>
                    <path d="M286.146059,302.387199 L303.714063,292.888029 C305.204431,292.082174 307.003306,292.094035 308.482918,292.919474 L325.465829,302.393814 C327.05841,303.282275 327.629212,305.293558 326.740751,306.886139 C326.434323,307.435415 325.977392,307.885748 325.423717,308.184154 L308.306554,317.409537 C306.853299,318.192776 305.105336,318.200468 303.645245,317.430047 L286.175644,308.212176 C284.562757,307.361133 283.945161,305.363723 284.796204,303.750836 C285.10126,303.172698 285.571049,302.698112 286.146059,302.387199 Z" id="Rectangle-Copy-10" fill-opacity="0.702700408" fill="#F1F1F1" opacity="0.782621838"></path>
                    <path d="M254.321665,249.370094 L271.88967,239.870923 C273.380037,239.065069 275.178913,239.07693 276.658524,239.902368 L293.641435,249.376709 C295.234016,250.26517 295.804818,252.276452 294.916357,253.869034 C294.60993,254.41831 294.152999,254.868643 293.599324,255.167049 L276.482161,264.392432 C275.028906,265.175671 273.280943,265.183362 271.820851,264.412942 L254.35125,255.195071 C252.738364,254.344028 252.120767,252.346618 252.97181,250.733731 C253.276866,250.155593 253.746656,249.681007 254.321665,249.370094 Z" id="Rectangle-Copy-3" fill-opacity="0.702700408" fill="#F1F1F1" opacity="0.782621838"></path>
                    <path d="M286.146059,267.042462 L303.714063,257.543292 C305.204431,256.737437 307.003306,256.749299 308.482918,257.574737 L325.465829,267.049077 C327.05841,267.937539 327.629212,269.948821 326.740751,271.541402 C326.434323,272.090678 325.977392,272.541011 325.423717,272.839417 L308.306554,282.0648 C306.853299,282.848039 305.105336,282.855731 303.645245,282.085311 L286.175644,272.867439 C284.562757,272.016396 283.945161,270.018986 284.796204,268.406099 C285.10126,267.827961 285.571049,267.353375 286.146059,267.042462 Z" id="Rectangle-Copy-9" fill-opacity="0.702700408" fill="#F1F1F1" opacity="0.782621838"></path>
                    <path d="M317.970452,284.714831 L335.538457,275.21566 C337.028824,274.409806 338.8277,274.421667 340.307311,275.247105 L357.290222,284.721446 C358.882803,285.609907 359.453605,287.621189 358.565144,289.213771 C358.258717,289.763047 357.801786,290.21338 357.248111,290.511786 L340.130948,299.737169 C338.677693,300.520408 336.92973,300.528099 335.469638,299.757679 L318.000037,290.539808 C316.387151,289.688764 315.769554,287.691355 316.620597,286.078468 C316.925653,285.50033 317.395443,285.025743 317.970452,284.714831 Z" id="Rectangle-Copy-11" fill-opacity="0.702700408" fill="#F1F1F1" opacity="0.782621838"></path>
                    <polygon id="Path" fill-opacity="0.55" fill="url(#linearGradient-2)" points="0.350661756 104.939694 0.350661756 239.570269 178.320902 141.982753 178.320902 7.36348684"></polygon>
                    <polygon id="Path-Copy" fill="url(#linearGradient-4)" points="63.9994487 97.5762071 63.9994487 232.206782 241.969689 134.619266 241.969689 0"></polygon>
                    <g id="Group" opacity="0.6015625" transform="translate(209.482390, 182.614474)">
                        <polygon id="Path-Copy-3" fill-opacity="0.62" fill="url(#linearGradient-5)" points="1.0658141e-13 39.6074522 70.4193816 1.42108547e-14 191.017251 67.3951979 120.811933 106.183932"></polygon>
                        <polygon id="Path-Copy-3" fill="#FEFEFE" points="-8.17124146e-14 39.6074522 70.4193816 4.79616347e-14 80.6186515 5.07890283 9.87348239 44.7431124"></polygon>
                    </g>
                    <g id="Group" opacity="0.6015625" transform="translate(209.482390, 123.706579)">
                        <polygon id="Path-Copy-3" fill-opacity="0.62" fill="url(#linearGradient-5)" points="1.0658141e-13 39.6074522 70.4193816 1.42108547e-14 191.017251 67.3951979 120.811933 106.183932"></polygon>
                        <polygon id="Path-Copy-3" fill="#FEFEFE" points="-8.17124146e-14 39.6074522 70.4193816 4.79616347e-14 80.6186515 5.07890283 9.87348239 44.7431124"></polygon>
                    </g>
                    <ellipse id="Oval" fill-opacity="0.65" fill="#D8D8D8" cx="283.739309" cy="161.996711" rx="19.700815" ry="13.2542763"></ellipse>
                    <path d="M291.523772,186.255705 L324.776689,167.106152 C326.075797,166.358028 327.643839,166.238542 329.041303,166.781187 L333.304498,168.436615 C335.006517,169.097521 335.850507,171.01305 335.189601,172.715069 C334.914831,173.42268 334.40492,174.01418 333.745518,174.390213 L299.867271,193.709761 C298.468447,194.50746 296.769145,194.575352 295.311142,193.89179 L291.77527,192.234052 C290.0882,191.443096 289.361756,189.434258 290.152712,187.747187 C290.446145,187.121308 290.924749,186.600668 291.523772,186.255705 Z" id="Rectangle" fill-opacity="0.65" fill="#D8D8D8"></path>
                    <path d="M309.915119,198.394964 C309.389381,198.697724 308.96933,199.154669 308.711796,199.703977 C308.017606,201.18465 308.655176,202.947725 310.135849,203.641915 L313.67172,205.299652 C315.008224,205.926251 316.565917,205.864017 317.848172,205.132793 L351.726419,185.813245 C352.303494,185.484159 352.749743,184.966509 352.990208,184.347243 C353.5686,182.857721 352.829983,181.181346 351.340461,180.602954 L347.077266,178.947527 C345.796257,178.450102 344.358885,178.55963 343.168036,179.245411 L309.915119,198.394964 Z" id="Rectangle-Copy-14" stroke="#FFFFFF" stroke-width="0.8255" opacity="0.65"></path>
                    <polygon id="Rectangle" fill="url(#linearGradient-6)" points="356.480779 136.960855 515.54237 46.4396907 515.54237 157.799665 356.480779 247.413158"></polygon>
                    <polygon id="Rectangle" fill="#FFFFFF" points="471.654775 119.489196 507.423998 98.6707237 507.423998 112.892861 471.654775 133.744643"></polygon>
                    <polygon id="Rectangle" fill="#F38B90" points="456.500302 127.204922 468.94622 120.761184 468.94622 135.440386 456.500302 142.385855"></polygon>
                    <ellipse id="Oval" fill="#FFFFFF" cx="462.562091" cy="131.070066" rx="3.03089462" ry="2.94539474"></ellipse>
                    <polygon id="Triangle" fill="#FFFFFF" opacity="0.782621838" transform="translate(161.683493, 107.506908) rotate(-270.000000) translate(-161.683493, -107.506908) " points="153.967573 96.2033605 177.883164 118.810455 145.483822 118.810455"></polygon>
                    <g id="Group-4" transform="translate(194.327917, 75.107566)">
                        <polygon id="Triangle-Copy-2" fill="#FFFFFF" opacity="0.782621838" transform="translate(4.484035, 8.099836) rotate(-270.000000) translate(-4.484035, -8.099836) " points="1.32752173 3.61580099 11.1111727 12.5838701 -2.14310362 12.5838701"></polygon>
                        <path d="M12.8813021,-2.22044605e-15 L12.8813021,6.89061246" id="Path-3-Copy" stroke="#FFFFFF" stroke-width="0.6604" stroke-linecap="round"></path>
                    </g>
                    <g id="Group-5" transform="translate(107.947421, 114.870395)">
                        <polygon id="Triangle-Copy" fill="#FFFFFF" opacity="0.782621838" transform="translate(9.100728, 8.099836) scale(-1, 1) rotate(-270.000000) translate(-9.100728, -8.099836) " points="14.2551691 3.56153805 17.2005638 12.638133 1.00089277 12.638133"></polygon>
                        <path d="M0.757723655,10.3088816 L0.757723655,17.199494" id="Path-3" stroke="#FFFFFF" stroke-width="0.6604" stroke-linecap="round"></path>
                    </g>
                    <path d="M99.9260013,178.629528 L159.916812,145.363893" id="Line" stroke="#FFFFFF" stroke-width="1.651" stroke-linecap="round"></path>
                    <path d="M99.9307044,178.628034 L205.375528,120.329532" id="Line" stroke-opacity="0.438660553" stroke="#FFFFFF" stroke-width="3.302" stroke-linecap="round"></path>
                </g>
                <g id="Group-9" transform="translate(22.000000, 443.868421)">
                    <g id="Group-Copy" opacity="0.6015625" transform="translate(0.761230, 0.113767)">
                        <polygon id="Path-Copy-3" fill-opacity="0.62" fill="url(#linearGradient-5)" points="1.0658141e-13 39.7762878 70.290309 1.42108547e-14 190.667133 67.682485 120.590495 106.636565"></polygon>
                        <polygon id="Path-Copy-3" fill="#FEFEFE" points="-8.17124146e-14 39.7762878 70.290309 4.79616347e-14 80.4708845 5.10055278 9.85538516 44.9338399"></polygon>
                    </g>
                    <polygon id="Path-4" fill-opacity="0.42" fill="#FFFFFF" points="34.039962 53.0003067 61.5121656 38.5671191 74.6615608 45.7837129 47.6375923 61.018863"></polygon>
                    <polygon id="Path-4-Copy-4" fill-opacity="0.42" fill="#FFFFFF" points="69.0518444 34.985488 96.5240481 20.5523004 109.673443 27.7688942 82.6494748 43.0040443"></polygon>
                    <polygon id="Path-4-Copy-2" fill-opacity="0.42" fill="#FFFFFF" points="70.344033 72.2269826 97.8162366 57.793795 110.965632 65.0103888 83.9416634 80.2455389"></polygon>
                    <polygon id="Path-4-Copy-5" fill-opacity="0.42" fill="#FFFFFF" points="105.355915 54.2121639 132.828119 39.7789763 145.977514 46.9955701 118.953546 62.2307202"></polygon>
                    <polygon id="Path-4-Copy" fill-opacity="0.42" fill="#FFFFFF" points="52.1919975 61.8741572 79.6642011 47.4409695 92.8135963 54.6575633 65.7896278 69.8927135"></polygon>
                    <polygon id="Path-4-Copy-6" fill-opacity="0.42" fill="#FFFFFF" points="87.2038799 43.8593384 114.676084 29.4261508 127.825479 36.6427446 100.80151 51.8778947"></polygon>
                    <polygon id="Path-4-Copy-3" fill-opacity="0.42" fill="#FFFFFF" points="88.4960685 82.5798081 115.968272 68.1466205 129.117667 75.3632143 102.093699 90.5983644"></polygon>
                    <polygon id="Path-4-Copy-7" fill-opacity="0.42" fill="#FFFFFF" points="123.507951 64.5649894 150.980155 50.1318018 164.12955 57.3483956 137.105581 72.5835457"></polygon>
                </g>
                <g id="Group-3" opacity="0.365652902" transform="translate(180.000000, 0.000000)" fill="url(#linearGradient-7)">
                    <polygon id="Rectangle" points="156 101.089564 233 57 233 506.350057 156 550"></polygon>
                    <polygon id="Rectangle-Copy-12" points="0 13.0895643 14.7346704 4.65261369 77 2.55795385e-13 77 418.350057 0 462"></polygon>
                    <polygon id="Rectangle" points="1.72112324e-13 12 156 102.263838 156 552 1.38555833e-13 460.650492"></polygon>
                    <polygon id="Rectangle-Copy-13" points="77 2.27346191e-13 134.456951 0.245416154 233 57.2638376 233 507 77 415.650492"></polygon>
                </g>
            </g>
        </g>
    </g>
</svg>