<?xml version="1.0" encoding="UTF-8"?>
<svg width="1440px" height="337px" viewBox="0 0 1440 337" version="1.1" xmlns="http://www.w3.org/2000/svg" xmlns:xlink="http://www.w3.org/1999/xlink">
    <!-- Generator: Sketch 52.6 (67491) - http://www.bohemiancoding.com/sketch -->
    <title>onda1</title>
    <desc>Created with Sketch.</desc>
    <defs>
        <linearGradient x1="50%" y1="164.941605%" x2="50%" y2="0%" id="linearGradient-1">
            <stop stop-color="#247EBF" offset="0%"></stop>
            <stop stop-color="#2AE7FC" offset="100%"></stop>
        </linearGradient>
    </defs>
    <g id="Design" stroke="none" stroke-width="1" fill="none" fill-rule="evenodd" fill-opacity="0.100000001">
        <g id="Landing-Page-Copy" transform="translate(0.000000, -1387.000000)" fill="url(#linearGradient-1)">
            <g id="Group-18" transform="translate(0.000000, 1266.000000)">
                <path d="M-3.63797881e-12,121.790103 C41.2049567,115.987917 94.3879669,141.331699 184.094609,224.778193 C434.698095,457.893397 874.400626,133.991625 1064.76401,237.94744 C1255.12739,341.903254 1312.33248,128.034585 1440,121.000015 L1440,358.998672 C1440,358.998672 1204.70558,508.280209 1074.21307,407.698718 C943.720549,307.117228 909.03437,257.4904 568.071311,407.698718 C227.108252,557.907036 223.123115,319.558602 -3.37764539e-12,360.323903 L-3.63797881e-12,121.790103 Z" id="onda1" transform="translate(720.000000, 289.475680) scale(-1, 1) translate(-720.000000, -289.475680) "></path>
            </g>
        </g>
    </g>
</svg>