<?xml version="1.0" encoding="UTF-8" standalone="no"?><!DOCTYPE svg PUBLIC "-//W3C//DTD SVG 1.1//EN" "http://www.w3.org/Graphics/SVG/1.1/DTD/svg11.dtd"><svg width="100%" height="100%" viewBox="0 0 396 306" version="1.1" xmlns="http://www.w3.org/2000/svg" xmlns:xlink="http://www.w3.org/1999/xlink" xml:space="preserve" xmlns:serif="http://www.serif.com/" style="fill-rule:evenodd;clip-rule:evenodd;stroke-linejoin:round;stroke-miterlimit:1.41421;"><path id="d-op-15" d="M51.384,60.773c-0.526,-1.063 -0.413,-2.406 0.34,-3.348c1.18,-1.109 2.951,-1.109 4.131,0c1.181,1.109 1.181,2.773 0,3.882c-0.952,0.671 -2.288,0.801 -3.389,0.389l-28.188,26.233l0,14.142l-31.281,29.395l0,24.126l12.984,0l3.247,-3.05l0,-28.286l32.801,-30.822c-0.658,-1.363 -0.507,-3.063 0.841,-4.119c1.476,-1.386 3.837,-1.386 5.607,0c1.476,1.387 1.476,3.883 0,5.269c-1.166,1.096 -3.07,1.326 -4.545,0.689l-31.753,30.092l0,24.404l53.12,-49.916l20.067,0l11.277,-10.596c-0.543,-1.289 -0.212,-2.851 1.118,-4.101c1.475,-1.387 3.836,-1.387 5.607,0c1.476,1.664 1.476,3.882 -0.295,5.269c-1.173,1.322 -2.905,1.593 -4.456,0.813l-12.07,11.111l-20.068,0l-54.3,51.025l0,28.008l-19.182,18.025l0,10.537l-20.288,19.064c0.441,0.871 0.219,2.013 -0.665,2.844c-0.432,0.406 -0.944,0.663 -1.476,0.772l0,10.32l36.189,-34.006c-0.755,-1.018 -0.62,-2.19 0.405,-3.153c1.18,-1.109 2.951,-1.109 3.836,0c0.391,0.275 0.652,0.671 0.784,1.109l23.415,0l14.166,-13.311l0,-28.562l13.471,-12.659c-0.762,-1.074 -0.629,-2.46 0.399,-3.425c0.885,-0.832 2.656,-0.832 3.836,0c1.181,1.109 1.181,2.773 0,3.882c-0.946,0.89 -2.273,1.066 -3.218,0.528l-13.013,12.228l0,28.563l-13.575,12.756l9.739,0l25.379,-23.714l0,-15.284c-0.34,-0.137 -0.645,-0.356 -0.885,-0.657c-1.18,-0.832 -1.18,-2.496 -0.295,-3.605c0.799,-0.75 1.867,-0.993 2.841,-0.728l60.313,-56.675l16.586,0c0.114,-0.491 0.389,-0.977 0.825,-1.386c1.181,-1.11 2.951,-1.11 4.132,0c0.885,1.109 0.885,2.773 0,3.605c-1.181,1.109 -2.951,1.109 -4.132,0c-0.32,-0.226 -0.553,-0.512 -0.699,-0.832l-16.122,0l-59.612,56.016c1.18,1.109 1.18,2.773 0,3.605c-0.437,0.41 -0.953,0.668 -1.476,0.775l0,13.788l23.032,-21.521c-0.89,-1.093 -0.796,-2.567 0.282,-3.58c1.18,-0.832 2.951,-0.832 3.836,0c1.181,1.109 1.181,2.773 0,3.883c-0.73,0.914 -2.062,1.075 -3.168,0.481l-23.982,22.535l0,66.554l-34.528,32.445l0,12.479l-64.039,59.899l-9.739,0l-24.789,23.294l-0.885,-1.11l25.084,-23.571l9.739,0l63.153,-59.066l0,-12.479l34.528,-32.445l0,-64.613l-24.789,23.294l-11.804,0l-22.211,20.871c0.631,1.04 0.46,2.291 -0.513,2.977c-0.27,0.254 -0.571,0.45 -0.885,0.587l0,35.079c0.222,0.098 0.422,0.226 0.59,0.384c1.18,1.109 1.18,2.773 0,3.883c-0.565,0.53 -1.489,0.722 -2.391,0.576l-74.043,69.305l-27.15,0l-4.427,4.16l-0.885,-0.832l4.722,-4.437l27.15,-0.277l73.184,-68.499c-1.177,-1.109 -1.176,-2.771 0.004,-3.879c0.518,-0.365 1.149,-0.57 1.77,-0.614l0,-34.625c-0.575,-0.075 -1.103,-0.345 -1.475,-0.811c-1.181,-0.832 -1.181,-2.496 0,-3.605c0.77,-0.965 2.211,-1.09 3.35,-0.375l21.144,-19.868l-21.94,0c-0.132,0.437 -0.393,0.834 -0.784,1.109c-0.73,0.914 -2.061,1.075 -3.168,0.481l-37.262,35.014l0,19.412l-14.334,13.241c0.37,0.942 0.131,1.968 -0.717,2.565c-1.18,1.11 -2.656,1.11 -3.836,0c-1.18,-0.831 -1.18,-2.495 0,-3.605c1.18,-1.109 2.656,-1.109 3.836,0l13.576,-12.756l0,-17.47l-28.331,26.621l-32.725,0l-38.102,36.051l-2.065,-1.942l36.298,-34.109l-7.082,0l-33.053,31.059l-1.18,-0.832l33.642,-31.613l9.149,0l6.197,-5.824l15.936,0l16.231,-14.974l-0.033,-8.042l-24.756,0l-58.727,54.907l-2.066,-1.664l59.612,-56.016l25.925,0l-0.083,-19.846l-4.889,4.594l-24.789,0l-43.086,40.487l-15.936,0l-16.231,15.252l-1.181,-0.832l16.822,-15.807l15.936,0l43.086,-40.487l24.789,0l5.471,-5.103l-0.159,-38.157l26.265,-24.403l21.543,0l0,-22.739l-9.444,8.874l-28.035,0l-45.742,42.982l-36.004,0l-19.182,18.025l0,35.496l-26.855,25.235l-1.181,-0.832l26.56,-24.958l0,-35.495l20.068,-18.857l36.004,0l44.266,-41.596l-20.658,0l-38.659,36.327l-35.118,0l-46.038,43.26l0,14.697l-8.263,7.765l-1.18,-0.832l7.968,-7.487l0,-14.698l46.922,-44.092l35.119,0l38.659,-36.327l22.724,0l13.948,-13.107c-0.632,-1.047 -0.461,-2.339 0.512,-3.254c0.307,-0.289 0.722,-0.478 1.181,-0.566l0,-24.947l19.166,-18.264c-0.518,-1.004 -0.316,-2.161 0.606,-2.811c0.885,-1.109 2.656,-1.109 3.836,0c1.181,0.832 1.181,2.496 0,3.605c-1.012,0.952 -2.46,1.087 -3.41,0.405l-18.723,17.343l0,24.711c0.42,0.1 0.827,0.275 1.181,0.524c1.18,1.109 1.18,2.773 0,3.882c-0.983,0.692 -2.373,0.809 -3.323,0.349l-12.909,12.13l25.97,0l10.034,-9.428l0,-15.252l16.637,-15.633c-0.282,-0.915 -0.024,-1.919 0.775,-2.67c1.18,-0.832 2.951,-0.832 3.836,0.278c1.18,0.831 1.18,2.495 0,3.605c-0.885,1.109 -2.656,1.109 -3.836,0l-15.936,14.974l0,13.311l29.806,-28.008l0,-14.143l28.581,-26.601Zm-59.863,140.02l-44.562,41.874l-0.295,0l0,9.151l-17.707,16.639l-16.231,0l-3.224,3.05l30.67,0l28.921,-27.176l0,-11.783c-0.425,-0.134 -0.829,-0.366 -1.181,-0.696c-0.885,-1.109 -0.885,-2.773 0,-3.605c1.08,-1.015 2.654,-1.101 3.818,-0.26l19.791,-18.597l0,-8.597Zm-39.47,-45.812c-0.579,-1.36 -0.309,-3.051 0.81,-4.103c1.771,-1.387 4.132,-1.387 5.608,0c1.77,1.386 1.77,3.882 0,5.269c-1.139,1.07 -2.806,1.314 -4.321,0.732l-52.341,49.183l0,18.857l-25.084,23.571l-25.675,0l-21.543,20.244l-1.771,-1.941l22.134,-21.076l25.674,0l23.314,-21.907l0.295,-18.857l52.9,-49.972Zm24.806,34.08l-30.193,28.371l0,21.905l44.857,-42.348l0,-38.901l-20.363,0l-24.494,23.016l0,34.445l29.066,-27.109c-1.028,-1.105 -0.978,-2.671 0.15,-3.731c1.181,-1.109 2.951,-1.109 3.837,0c1.18,1.11 1.18,2.773 0,3.883c-0.664,0.623 -1.824,0.779 -2.86,0.469Zm32.371,-32.914l-2.066,1.941l-14.165,0l0,37.508l16.231,-15.324l0,-24.125Zm100.121,-54.981c-0.633,-1.047 -0.462,-2.339 0.511,-3.254c1.181,-0.832 2.952,-0.832 4.132,0c0.885,1.109 0.885,2.773 -0.295,3.882c-0.756,0.71 -2.156,0.814 -3.284,0.313l-19.735,18.544l-29.511,0l-39.987,37.575c0.712,0.893 0.564,2.243 -0.443,3.189c-0.885,1.11 -2.656,1.11 -3.836,0c-1.181,-1.109 -1.181,-2.773 0,-3.605c1.004,-0.944 2.436,-1.084 3.386,-0.421l40.29,-38.124l29.511,0l19.261,-18.099Z" style="fill:#378bba;fill-opacity:0.152941;fill-rule:nonzero;"/><path id="d-op-64" d="M128.156,88.294c-0.637,-0.719 -0.526,-1.96 0.332,-2.498c0.986,-0.926 2.3,-0.926 3.286,0c0.985,0.618 0.985,2.161 0,2.779c-0.867,0.814 -1.988,0.913 -2.917,0.294l-23.039,21.935l0,11.423l-25.956,24.389l0,19.759l10.843,0l2.957,-2.778l0,-23.155l26.656,-25.048c-0.652,-1.067 -0.447,-2.668 0.613,-3.664c1.315,-1.235 3.614,-1.235 4.6,0c1.314,1.235 1.314,3.396 0,4.322c-0.725,0.909 -2.162,1.149 -3.394,0.72l-26.176,24.596l0,20.068l43.698,-41.062l16.427,0l9.391,-8.564c-0.417,-1.069 -0.152,-2.278 0.795,-3.168c1.314,-1.235 3.285,-1.235 4.599,0c1.314,1.235 1.314,3.088 0,4.323c-1.093,1.027 -2.642,1.2 -3.889,0.517l-9.91,9.053l-16.427,0l-44.684,41.988l0,23.155l-16.099,15.035l0,8.428l-16.507,15.789c0.339,0.734 0.146,1.747 -0.577,2.427c-0.399,0.249 -0.852,0.398 -1.314,0.446l0,8.507l29.794,-27.997c-0.522,-0.836 -0.378,-1.806 0.432,-2.568c0.986,-0.926 2.3,-0.926 3.286,0c0.304,0.286 0.514,0.601 0.63,0.927l19.292,0l11.619,-10.806l0,-23.464l10.952,-10.555c-0.428,-0.868 -0.355,-1.912 0.219,-2.72c0.985,-0.926 2.299,-0.926 3.285,0c0.986,0.926 0.986,2.161 0,3.087c-0.746,0.468 -1.681,0.758 -2.519,0.47l-10.952,10.027l0,23.464l-11.17,10.497l8.213,0l21.028,-19.608l0,-12.414c-0.347,-0.073 -0.682,-0.205 -0.986,-0.395c-0.986,-0.927 -0.986,-2.47 0,-3.088c0.676,-0.635 1.507,-0.834 2.28,-0.598l49.631,-46.638l13.744,0c0.076,-0.435 0.314,-0.86 0.713,-1.235c0.657,-0.926 2.299,-0.926 3.285,0c0.657,0.927 0.657,2.162 -0.328,3.088c-0.658,0.617 -2.3,0.926 -2.957,0c-0.304,-0.286 -0.514,-0.6 -0.631,-0.926l-13.497,0l-49.125,46.161c0.058,0.046 0.115,0.096 0.171,0.148c0.985,0.618 0.985,2.161 0,3.088c-0.399,0.249 -0.852,0.398 -1.315,0.446l0,11.443l19.193,-17.897c-0.789,-0.688 -0.725,-2.084 0.192,-2.946c0.657,-0.617 2.3,-0.617 2.957,0.309c0.986,0.618 0.986,2.161 0,2.779c-0.522,0.735 -1.664,0.887 -2.442,0.455l-19.9,18.842l0,54.49l-28.584,26.859l0,10.189l-52.568,49.397l-8.214,0l-20.041,19.141l-0.986,-0.926l20.699,-19.142l8.214,0l51.911,-48.779l0,-10.188l28.584,-26.86l0,-53.248l-20.37,19.287l-10.186,0l-18.096,17.005c0.67,0.875 0.569,1.935 -0.302,2.754c-0.304,0.191 -0.639,0.322 -0.986,0.395l0,28.72c0.264,0.116 0.492,0.29 0.657,0.524c0.986,0.617 0.986,2.161 0,3.087c-0.429,0.403 -1.278,0.543 -2.09,0.42l-60.663,57.004l-22.342,0l-3.614,3.396l-0.986,-0.617l3.943,-3.705l22.342,0l60.125,-56.498c-0.658,-0.926 -0.658,-2.47 0,-3.087c0.46,-0.433 1.063,-0.663 1.642,-0.692l0,-28.5c-0.463,-0.048 -0.915,-0.197 -1.314,-0.447c-0.986,-0.926 -0.986,-2.161 0,-3.087c0.813,-0.764 1.85,-0.898 2.742,-0.401l17.495,-16.271l-17.964,0c-0.116,0.326 -0.326,0.641 -0.63,0.927c-0.812,0.763 -1.847,0.897 -2.738,0.403l-30.774,28.751l0,15.921l-11.61,10.909c0.224,0.729 -0.078,1.705 -0.547,2.366c-0.986,0.617 -2.3,0.617 -3.285,0c-0.986,-0.926 -0.986,-2.47 0,-3.087c0.941,-0.885 2.181,-0.925 3.15,-0.12l11.306,-10.377l0,-14.691l-23.656,22.1l-26.613,0l-31.54,29.639l-1.643,-1.544l29.898,-28.095l-5.914,0l-27.27,25.625l-0.985,-0.926l27.926,-25.934l7.557,0l4.928,-4.631l13.143,0l13.142,-12.349l0,-6.792l-20.371,0l-48.297,45.384l-1.314,-1.544l48.954,-46.001l21.028,0l0,-16.326l-3.943,3.668l-20.37,0l-35.484,33.652l-13.142,0l-13.471,12.349l-0.657,-0.617l13.471,-12.967l13.471,0l35.483,-33.343l20.37,0l4.272,-4.014l0,-31.799l21.684,-20.068l17.742,0l0,-18.832l-7.885,7.409l-22.999,0l-37.784,35.504l-29.569,0l-15.771,14.819l0,29.33l-22.341,20.685l-0.657,-0.617l21.684,-20.685l0,-29.33l16.756,-15.437l29.57,0l36.469,-34.269l-15.14,0c-0.116,0.326 -0.327,0.641 -0.63,0.926c-0.544,0.766 -1.761,0.899 -2.723,0.398l-30.461,28.623l-28.913,0l-38.112,35.504l0,12.35l-6.571,6.174l-0.985,-0.617l6.571,-6.175l0,-12.04l38.44,-36.122l29.241,0l30,-28.48c-0.412,-0.865 -0.298,-1.899 0.556,-2.702c0.657,-0.617 2.3,-0.926 2.957,0c0.303,0.285 0.514,0.6 0.63,0.926l16.454,0l11.266,-10.586c-0.411,-0.862 -0.333,-1.89 0.234,-2.689c0.373,-0.351 0.841,-0.569 1.314,-0.654l0,-20.649l15.62,-14.677c-0.466,-0.731 -0.306,-1.811 0.479,-2.303c0.986,-0.926 2.3,-0.926 3.285,0c0.986,0.617 0.986,2.161 0,2.779c-0.871,0.819 -2,0.913 -2.931,0.284l-15.467,14.535l0,20.052c0.402,0.097 0.754,0.308 0.985,0.633c0.986,0.926 0.986,2.161 0,3.087c-0.543,0.766 -1.76,0.899 -2.723,0.398l-10.419,9.79l21.356,0l8.214,-7.644l0,-12.423l13.698,-12.872c-0.16,-0.715 -0.016,-1.628 0.43,-2.256c0.985,-0.618 2.628,-0.618 3.285,0c0.986,0.926 0.986,2.47 0,3.087c-0.625,0.881 -2.14,0.924 -3.135,0.13l-13.293,12.219l0,11.198l24.97,-23.238l0,-11.423l23.324,-22.201Zm-49.279,115.34l-36.798,34.367l-0.329,0l0,7.718l-14.456,13.585l-13.142,0l-2.628,2.469l24.97,0l23.984,-22.537l0,-9.485c-0.347,-0.073 -0.682,-0.204 -0.986,-0.394c-0.985,-0.927 -0.985,-2.47 0,-3.088c0.93,-0.873 2.152,-0.923 3.115,-0.148l16.27,-15.288l0,-7.199Zm-32.645,-37.749c-0.444,-1.08 -0.185,-2.312 0.775,-3.215c1.314,-1.234 3.614,-1.234 4.6,0c1.314,0.927 1.314,3.088 0,4.323c-1.08,1.015 -2.605,1.196 -3.844,0.541l-42.81,40.52l0,15.437l-20.699,19.45l-21.027,0l-17.742,16.671l-1.643,-1.543l18.399,-17.289l21.027,0l19.385,-18.216l0,-15.436l43.579,-41.243Zm20.547,28.206l-25.029,23.284l0,18.156l37.127,-34.887l0,-32.108l-17.085,0l-20.042,18.833l0,28.712l24.155,-22.698c-0.824,-0.904 -0.772,-2.053 0.158,-2.927c0.657,-0.926 2.3,-0.926 3.286,0c0.657,0.927 0.657,2.161 0,3.088c-0.72,0.676 -1.789,0.858 -2.57,0.547Zm26.883,-27.407l-1.972,1.852l-11.828,0l0,31.182l13.8,-12.966l0,-20.068Zm82.237,-44.86c-0.416,-0.921 -0.34,-2.15 0.229,-2.685c0.986,-0.926 2.629,-0.926 3.286,0c0.985,0.618 0.985,2.161 0,3.088c-0.569,0.534 -1.877,0.606 -2.858,0.215l-16.198,15.221l-23.985,0l-33.08,31.085c0.523,0.835 0.378,1.805 -0.432,2.567c-0.657,0.926 -2.3,0.926 -3.285,0c-0.658,-0.926 -0.658,-2.161 0,-3.087c0.853,-0.802 2.199,-0.91 2.971,-0.323l33.169,-31.168l24.313,0l15.87,-14.913Z" style="fill:#378bba;fill-opacity:0.639216;fill-rule:nonzero;"/><path id="l-op-15" d="M301.599,296.345c1.012,0.688 2.277,0.578 3.01,-0.367c1.162,-1.129 1.229,-2.603 0.452,-3.82c-1.054,-1.23 -2.716,-1.306 -3.878,-0.177c-0.992,0.963 -1.196,2.392 -0.571,3.372l-27.741,26.944l-13.838,-0.927l-30.876,30.199l-24.029,-1.098l0.592,-12.971l3.486,-3.386l27.979,1.278l32.111,-31.189c1.356,0.75 3.163,0.59 4.315,-0.529c1.453,-1.411 1.574,-4.064 0.256,-5.601c-1.595,-1.55 -3.811,-1.651 -5.263,-0.241c-1.121,1.089 -1.614,2.911 -1.047,4.398l-31.359,30.459l-24.377,-1.114l52.287,-50.787l0.929,-20.341l11.236,-10.676c1.297,0.484 2.699,0.241 3.722,-0.753c1.452,-1.411 1.85,-4.051 0.255,-5.601c-1.317,-1.538 -3.533,-1.639 -5.263,-0.241c-1.204,1.17 -1.493,3.193 -0.806,4.727l-11.583,11.251l-0.929,20.341l-53.45,51.915l-27.979,-1.278l-18.963,18.336l-10.722,-0.49l-19.933,19.361c-0.933,-0.433 -1.987,-0.247 -2.631,0.583c-0.459,0.333 -0.749,0.863 -0.865,1.438l-10.283,-0.47l35.606,-34.584c1.011,0.477 2.263,0.393 3.185,-0.276c1.162,-1.128 1.242,-2.897 0.188,-4.127c-0.318,-0.278 -0.688,-0.481 -1.083,-0.605l1.066,-23.325l13.943,-13.543l28.256,1.291l13.381,-12.997c1.05,0.945 2.51,0.919 3.319,-0.125c1.162,-1.128 1.243,-2.897 0.175,-3.832c-1.054,-1.23 -2.439,-1.293 -3.601,-0.165c-0.892,0.648 -1.14,1.86 -0.712,2.946l-13.048,12.674l-28.256,-1.291l-13.358,12.876l0.453,-9.921l24.982,-24.264l14.99,0.684c0.08,0.425 0.236,0.839 0.469,1.204c1.054,1.229 2.717,1.305 3.878,0.177c0.58,-0.748 0.815,-1.765 0.685,-2.638l59.25,-57.548l0.765,-16.742c0.6,-0.024 1.194,-0.215 1.692,-0.576c1.162,-1.129 1.243,-2.897 0.188,-4.127c-1.054,-1.23 -2.716,-1.306 -3.878,-0.177c-0.885,1.141 -0.966,2.91 -0.189,4.127c0.318,0.278 0.689,0.481 1.083,0.605l-0.742,16.249l-58.678,56.994c-1.055,-1.23 -2.717,-1.306 -3.879,-0.177c-0.366,0.356 -0.592,0.874 -0.674,1.446l-13.798,-0.63l22.72,-22.068c1.056,0.694 2.489,0.682 3.276,-0.082c1.162,-1.129 1.242,-2.898 0.188,-4.128c-0.79,-0.922 -2.453,-0.998 -3.601,-0.164c-0.903,0.877 -1.153,2.142 -0.724,3.239l-23.798,23.114l-66.208,-3.024l-33.987,33.011l-12.466,-0.569l-63.022,60.931l-0.458,10.024l-24.11,23.418l1.054,1.23l24.414,-23.996l0.458,-10.023l62.151,-60.085l12.189,0.557l34.277,-33.294l64.546,2.949l-24.401,23.701l-0.547,11.973l-22.04,21.244c-0.988,-0.559 -2.197,-0.411 -3.103,0.468c-0.236,0.23 -0.414,0.527 -0.533,0.862l-38.013,-1.736l-74.655,72.512l-1.226,26.827l-4.357,4.232l1.054,1.23l4.661,-4.809l1.226,-26.827l73.784,-71.666l37.371,1.707c0.056,0.526 0.226,1.051 0.513,1.501c1.054,1.23 2.716,1.306 3.878,0.177c0.737,-0.95 0.916,-2.334 0.5,-3.303l20.841,-20.242l-0.996,21.789c-0.504,0.064 -0.993,0.248 -1.413,0.553c-0.755,0.974 -0.925,2.405 -0.475,3.56l-36.565,35.516l-19.391,-0.886l-17.126,16.352l1.054,1.23l16.558,-16.083l17.452,0.797l-27.886,27.087l-1.482,32.428l-37.763,36.679l1.845,2.152l35.741,-34.949l-0.334,7.32l-32.535,31.601l0.777,1.217l33.116,-32.165l0.429,-9.394l5.811,-5.682l0.741,-16.215l15.686,-15.236l8.311,0.38l-1.131,24.764l-57.807,56.147l1.858,1.858l58.665,-56.7l1.185,-25.942l19.946,0.911l-4.939,4.796l-1.042,22.823c-0.302,0.096 -0.591,0.239 -0.853,0.429c-0.844,0.82 -1.117,1.977 -0.8,3.02l-41.124,39.673l-0.45,15.932l-16.254,15.505l1.068,0.935l16.267,-15.8l0.727,-15.919l40.378,-39.219c1.067,0.935 2.73,1.011 3.878,0.177c0.885,-1.141 0.966,-2.91 0.189,-4.127c-0.534,-0.467 -1.217,-0.72 -1.909,-0.752l1.006,-22.036l5.52,-5.361l38.228,1.746l25.563,-24.829l0.983,-21.521l22.654,1.035l-9.234,9.032l-1.279,28.006l-42.889,41.658c-1.035,-0.809 -2.394,-0.737 -3.164,0.256c-1.162,1.128 -1.243,2.897 -0.175,3.832c0.27,0.423 0.646,0.708 1.072,0.853l-1.513,33.1l-18.881,18.34l-35.459,-1.62l-26.434,25.676l0.791,0.922l26.13,-25.099l35.459,1.62l19.753,-19.186l1.541,-33.749c0.401,-0.124 0.794,-0.354 1.142,-0.692c0.947,-0.688 1.168,-2.011 0.626,-3.143l41.907,-40.704l-0.826,18.066c-0.436,0.105 -0.837,0.354 -1.144,0.751c-0.95,0.689 -1.169,2.017 -0.622,3.151l-36.405,35.63l-1.602,35.081l-45.316,44.015l-14.959,-0.683l-7.857,7.913l0.791,0.922l7.552,-7.336l14.959,0.684l46.188,-44.862l1.602,-35.082l35.897,-35.132c0.86,0.744 2.21,0.655 3.198,-0.304c1.162,-1.129 1.243,-2.898 0.175,-3.833c-0.316,-0.368 -0.686,-0.633 -1.074,-0.793l0.895,-19.599l13.73,-13.335c1.01,0.678 2.268,0.565 2.997,-0.376c0.348,-0.338 0.599,-0.734 0.752,-1.148l25.065,1.145l18.909,-18.366c0.861,0.612 2.115,0.482 3.047,-0.424c1.162,-1.128 1.242,-2.897 0.175,-3.832c-1.054,-1.23 -2.717,-1.306 -3.602,-0.165c-0.999,0.726 -1.19,2.16 -0.528,3.331l-18.488,17.957l-24.455,-1.117c-0.097,-0.464 -0.329,-0.889 -0.7,-1.214c-0.777,-1.217 -2.439,-1.293 -3.601,-0.164c-1,0.725 -1.19,2.159 -0.528,3.33l-12.679,12.314l1.199,-26.237l9.586,-9.311l15.236,0.696l16.548,-16.073c0.804,0.217 1.777,0.061 2.53,-0.485c1.162,-1.129 1.243,-2.897 0.189,-4.127c-1.068,-0.935 -2.73,-1.011 -3.602,-0.165c-1.113,1.081 -1.234,2.75 -0.315,3.969l-15.837,15.382l-13.296,-0.608l29.629,-28.779l13.851,0.633l28.228,-27.157Zm-142.781,53.534l-43.762,42.313l-0.027,0.59l-9.418,-0.43l-17.139,16.646l-0.741,16.215l-3.195,3.103l1.387,-30.365l28.468,-27.65l11.827,0.54c0.123,0.353 0.321,0.671 0.598,0.914c0.777,1.217 2.439,1.293 3.601,0.164c1.1,-0.798 1.221,-2.455 0.303,-3.674l19.322,-18.767l8.776,0.401Zm43.956,41.348c1.272,0.803 2.9,0.565 4.245,-0.742c1.452,-1.411 1.574,-4.064 0.256,-5.601c-1.318,-1.538 -3.811,-1.651 -5.264,-0.241c-1.157,1.347 -1.468,3.101 -0.899,4.536l-49.493,48.073c-1.372,-0.869 -3.292,-0.747 -4.496,0.423c-0.409,0.397 -0.713,0.893 -0.908,1.435l-15.504,-0.708l-24.691,23.983l-1.172,25.647l-21.192,20.302l1.845,2.153l21.8,-21.456l1.158,-25.353l23.239,-22.572l14.395,0.657c0.146,0.558 0.403,1.08 0.774,1.513c1.318,1.537 3.811,1.651 5.263,0.24c1.046,-1.015 1.401,-2.673 1.028,-4.097l49.616,-48.192Zm4.784,46.063c1.035,0.809 2.394,0.738 3.164,-0.255c1.148,-0.834 1.243,-2.897 0.175,-3.833c-0.777,-1.217 -2.439,-1.293 -3.601,-0.164c-0.983,0.714 -1.194,2.329 -0.565,3.365l-13.804,13.408l-0.948,26.84l-29.035,27.92l-0.526,11.497l-24.387,23.406l-27.425,-1.253l-0.067,1.474l27.979,1.278l25.272,-24.546l0.512,-11.203l28.758,-27.933l0.948,-26.839l13.55,-13.162Zm-37.629,-72.195l-29.691,28.839l-21.885,-1l44.154,-42.887l39.06,1.785l-0.929,20.341l-24.11,23.418l-34.628,-1.582l28.639,-27.816c1.068,0.811 2.627,0.842 3.721,0.048c0.884,-1.141 0.965,-2.91 0.188,-4.127c-1.068,-0.935 -2.73,-1.011 -3.878,-0.177c-0.88,0.854 -0.981,2.083 -0.641,3.158Zm34.676,-31.145l-2.324,2.257l-0.646,14.151l-37.675,-1.722l16.267,-15.8l24.378,1.114Zm59.101,-97.41c1.035,0.582 2.354,0.531 3.098,-0.191c1.162,-1.129 1.243,-2.898 0.188,-4.127c-0.79,-0.923 -2.452,-0.999 -3.601,-0.165c-0.964,0.936 -1.184,2.313 -0.629,3.457l-19.272,18.972l-1.333,29.186l-39.47,38.336c-1.034,-0.582 -2.354,-0.531 -3.097,0.191c-1.162,1.129 -1.243,2.898 -0.189,4.128c0.777,1.217 2.439,1.293 3.601,0.164c0.961,-0.933 1.183,-2.304 0.635,-3.446l39.601,-38.733l1.333,-29.186l19.135,-18.586Z" style="fill:#30b9db;fill-opacity:0.152941;fill-rule:nonzero;"/><path id="l-op-50" d="M192.312,172.43c-0.278,-0.733 -0.182,-1.571 0.288,-2.233c0.885,-0.832 2.361,-0.832 2.951,0c0.885,0.832 0.885,1.941 0,2.773c-0.491,0.692 -1.595,0.809 -2.462,0.349l-20.852,19.34l0,10.538l-23.019,21.63l0,17.748l9.739,0l2.361,-2.219l0,-20.798l24.177,-22.718c-0.51,-1.012 -0.305,-2.209 0.612,-3.072c1.181,-1.109 2.951,-1.109 4.132,0c1.18,1.11 1.18,2.774 0,3.883c-0.918,0.862 -2.192,1.054 -3.269,0.576l-23.586,22.163l0,18.025l39.25,-36.882l15.05,0l8.166,-7.906c-0.411,-0.975 -0.182,-2.092 0.688,-2.909c1.18,-1.109 2.951,-1.109 4.131,0c1.181,1.109 1.181,2.773 0,3.882c-0.965,0.907 -2.324,1.073 -3.432,0.497l-8.667,8.377l-15.051,0l-40.135,37.714l0,20.521l-14.166,13.392l0,7.961l-15.142,13.979c0.331,0.702 0.165,1.481 -0.498,2.105c-0.262,0.369 -0.699,0.574 -1.181,0.616l0,7.58l26.859,-25.385c-0.273,-0.731 -0.176,-1.564 0.291,-2.223c0.886,-0.555 2.066,-0.832 2.951,0c0.258,0.242 0.44,0.53 0.548,0.832l17.454,0l10.329,-9.706l0,-21.075l10.057,-9.451c-0.601,-0.785 -0.511,-1.738 0.272,-2.474c0.59,-0.831 2.066,-0.831 2.656,0c0.885,0.832 0.885,1.942 0,2.774c-0.47,0.662 -1.502,0.797 -2.201,0.404l-9.603,9.024l0,21.075l-10.034,9.429l7.378,0l18.592,-17.47l0,-11.115c-0.312,-0.099 -0.613,-0.276 -0.886,-0.532c-0.59,-0.832 -0.59,-1.942 0,-2.774c0.607,-0.57 1.354,-0.749 2.048,-0.537l44.58,-41.891l12.345,0c0.068,-0.39 0.281,-0.772 0.64,-1.109c0.885,-0.832 2.065,-0.832 2.951,0c0.885,0.832 0.885,1.941 0,2.773c-0.886,0.832 -2.066,0.832 -2.951,0c-0.186,-0.174 -0.333,-0.361 -0.44,-0.554l-11.955,0l-44.125,41.462c0.741,0.813 0.694,1.845 -0.142,2.63c-0.272,0.256 -0.573,0.433 -0.885,0.532l0,10.005l16.845,-15.828c-0.602,-0.786 -0.511,-1.738 0.271,-2.474c0.886,-0.832 2.066,-0.832 2.952,0c0.885,0.832 0.885,1.941 0,2.773c-0.7,0.438 -1.583,0.53 -2.36,0.276l-17.708,16.64l0,49.361l-25.675,23.848l0,9.429l-47.217,44.369l-7.378,0l-18.297,16.916l-0.59,-0.555l18.297,-17.47l7.377,0l46.628,-43.815l0,-9.151l25.675,-24.126l0,-47.697l-18.297,17.193l-8.854,0l-16.433,15.442c0.469,0.751 0.34,1.622 -0.388,2.306c-0.186,0.174 -0.384,0.312 -0.59,0.413l0,28.15l-56.071,52.688l-20.068,0l-3.246,3.051l-0.59,-0.832l3.541,-3.328l19.773,0l55.48,-52.134l0,-27.407c-0.415,-0.064 -0.822,-0.264 -1.18,-0.601c-0.59,-0.832 -0.885,-1.941 0,-2.773c0.783,-0.736 1.796,-0.821 2.633,-0.256l15.664,-14.719l-16.216,0c-0.093,0.34 -0.295,0.637 -0.606,0.832c-0.727,0.684 -1.655,0.806 -2.454,0.365l-27.647,25.979l0,14.42l-12.69,11.925l-0.59,-0.832l12.395,-11.647l0,-13.034l-20.953,19.689l-23.934,0l-28.596,26.622l-1.475,-1.387l27.101,-25.235l-5.558,0l-24.494,23.017l-0.591,-0.555l24.79,-23.294l6.747,0l4.467,-4.159l12.099,0l11.805,-11.37l0,-5.823l-18.297,0l-43.381,40.764l-1.476,-1.664l43.972,-41.319l19.182,0l0,-14.454l-3.541,3.362l-17.129,0c-0.071,0.199 -0.165,0.388 -0.283,0.554c-0.632,0.396 -1.414,0.51 -2.132,0.34l-30.92,29.055l-11.805,0l-11.804,11.37l-0.886,-0.832l12.395,-11.647l11.804,0l30.256,-28.431c-0.742,-0.84 -0.695,-2.104 0.141,-2.628c0.885,-0.832 2.066,-0.832 2.951,0c0.262,0.247 0.408,0.657 0.437,1.11l16.384,0l4.132,-3.883l0,-28.285l19.182,-18.025l15.936,0l0,-16.639l-6.787,6.378l-20.876,0l-32.155,30.411c0.473,0.752 0.345,1.626 -0.385,2.312c-0.885,0.832 -2.065,0.832 -2.951,0c-0.273,-0.257 -0.461,-0.539 -0.566,-0.832l-24.518,0l-14.165,13.311l0,26.344l-19.773,18.58l-0.885,-0.555l19.772,-18.302l0,-26.345l14.756,-13.865l24.74,0c0.068,-0.391 0.281,-0.773 0.639,-1.109c0.764,-0.479 1.747,-0.545 2.571,-0.198l31.662,-29.752l-13.557,0c-0.091,0.333 -0.293,0.635 -0.608,0.832c-0.731,0.687 -1.662,0.807 -2.462,0.361l-27.639,25.706l-25.97,0l-33.938,32.168l0,10.815l-6.197,5.823l-0.591,-0.831l5.608,-5.269l0,-11.093l34.823,-32.445l25.969,0l27.137,-25.499c-0.561,-0.648 -0.458,-1.751 0.309,-2.232c0.885,-0.831 2.066,-0.831 2.951,0c0.315,0.198 0.517,0.5 0.608,0.832l14.443,0l10.315,-9.693c-0.561,-0.652 -0.458,-1.788 0.309,-2.508c0.207,-0.195 0.523,-0.321 0.885,-0.379l0,-18.478l14.166,-13.312c-0.27,-0.73 -0.172,-1.56 0.294,-2.217c0.886,-0.832 2.361,-0.832 2.951,0c0.886,0.831 0.886,1.941 0,2.773c-0.786,0.492 -1.805,0.766 -2.643,0.239l-13.883,12.794l0,18.188c0.425,0.051 0.845,0.182 1.181,0.392c0.59,0.832 0.59,2.218 0,2.773c-0.765,0.718 -1.97,0.816 -2.664,0.294l-9.659,9.134l19.405,0l7.378,-6.932l0,-11.37l12.366,-11.62c-0.145,-0.662 0.061,-1.342 0.619,-1.691c0.59,-0.832 2.066,-0.832 2.951,0c0.59,0.555 0.59,1.941 0,2.773c-0.885,0.555 -2.361,0.555 -2.951,0c-0.044,-0.041 -0.085,-0.083 -0.125,-0.127l-11.68,11.22l0,9.705l22.134,-20.798l0,-10.26l20.96,-19.952Zm-44.274,103.787l-32.757,30.971l-0.295,0l0,6.655l-12.985,12.479l-12.1,0l-2.383,2.218l22.451,0l21.543,-20.361l0,-8.519c-0.321,-0.101 -0.628,-0.273 -0.885,-0.514c-0.591,-0.832 -0.591,-1.942 0,-2.773c0.878,-0.826 2.336,-0.832 2.936,-0.021l14.475,-13.845l0,-6.29Zm-29.032,-34.093c-0.392,-0.967 -0.158,-2.069 0.701,-2.877c0.886,-1.109 2.952,-1.109 4.132,0c1.18,1.109 1.18,2.773 0,3.882c-0.953,0.896 -2.482,1.068 -3.502,0.518l-37.014,34.782c0.641,1.107 0.473,2.557 -0.504,3.246c-0.352,0.331 -0.756,0.562 -1.181,0.696l0,11.506l-18.297,17.47l-19.182,0l-15.936,14.975l-1.476,-1.387l16.527,-15.529l18.887,0l17.411,-16.361l0,-10.784c-0.316,-0.138 -0.616,-0.333 -0.885,-0.586c-1.18,-0.832 -1.18,-2.773 0,-3.882c0.86,-0.808 2.032,-1.027 3.062,-0.659l37.257,-35.01Zm-33.92,-5.008c-0.469,-0.751 -0.339,-1.622 0.389,-2.306c0.59,-0.832 2.065,-0.832 2.656,0c0.885,0.832 0.885,1.941 0,2.773c-0.511,0.72 -1.686,0.817 -2.375,0.29l-10.315,9.693l-18.248,0c-0.068,0.391 -0.281,0.773 -0.639,1.109c-0.551,0.777 -1.873,0.829 -2.527,0.156l-20.197,18.979l-8.263,0l-18.297,17.193l0,20.521l-1.18,0l0,-20.798l18.887,-17.748l8.263,0l20.168,-18.952c-0.343,-0.706 -0.18,-1.494 0.49,-2.124c0.59,-0.832 2.065,-0.832 2.656,0c0.194,0.183 0.345,0.379 0.454,0.582l17.843,0.25l10.235,-9.618Zm52.143,30.326l-22.243,21.113l0,15.863l33.052,-30.863l0,-29.039l-15.051,0l-18.001,16.916l0,25.512l21.401,-20.11c-0.741,-0.813 -0.693,-1.844 0.142,-2.629c0.885,-0.555 2.066,-0.555 2.951,0c0.885,0.832 0.885,2.218 0,2.773c-0.667,0.626 -1.501,0.781 -2.251,0.464Zm24.089,-24.313l-1.476,1.387l-10.624,0l0,27.937l12.1,-11.299l0,-18.025Zm73.98,-40.676c-0.469,-0.751 -0.34,-1.623 0.388,-2.306c0.59,-0.832 2.066,-0.832 2.951,0c0.59,0.831 0.59,1.941 0,2.773c-0.76,0.714 -1.955,0.815 -2.651,0.303l-14.465,13.839l-21.839,-0.277l-29.516,28c0.275,0.732 0.179,1.567 -0.29,2.227c-0.885,0.832 -2.361,0.832 -2.951,0c-0.885,-0.832 -0.885,-1.942 0,-2.773c0.474,-0.669 1.521,-0.621 2.373,-0.289l29.794,-27.997l21.838,0l14.368,-13.5Z" style="fill:#30b9db;fill-opacity:0.501961;fill-rule:nonzero;"/></svg>