<?xml version="1.0" encoding="UTF-8"?>
<svg width="517px" height="640px" viewBox="0 0 517 640" version="1.1" xmlns="http://www.w3.org/2000/svg" xmlns:xlink="http://www.w3.org/1999/xlink">
    <!-- Generator: Sketch 52.6 (67491) - http://www.bohemiancoding.com/sketch -->
    <title>data</title>
    <desc>Created with Sketch.</desc>
    <defs>
        <filter x="-7.3%" y="-12.9%" width="114.6%" height="125.9%" filterUnits="objectBoundingBox" id="filter-1">
            <feGaussianBlur stdDeviation="5" in="SourceGraphic"></feGaussianBlur>
        </filter>
        <filter x="-8.3%" y="-14.7%" width="116.7%" height="129.4%" filterUnits="objectBoundingBox" id="filter-2">
            <feGaussianBlur stdDeviation="5" in="SourceGraphic"></feGaussianBlur>
        </filter>
        <linearGradient x1="100%" y1="53.6316923%" x2="0%" y2="53.6316923%" id="linearGradient-3">
            <stop stop-color="#247EBF" offset="0%"></stop>
            <stop stop-color="#2AE7FC" offset="100%"></stop>
        </linearGradient>
        <linearGradient x1="50%" y1="0%" x2="50%" y2="100%" id="linearGradient-4">
            <stop stop-color="#FFFFFF" stop-opacity="0" offset="0%"></stop>
            <stop stop-color="#FFFFFF" stop-opacity="0.426467426" offset="65.4129096%"></stop>
            <stop stop-color="#FFFFFF" stop-opacity="0" offset="100%"></stop>
        </linearGradient>
        <linearGradient x1="473.178624%" y1="-3319.14943%" x2="578.663545%" y2="354.939718%" id="linearGradient-5">
            <stop stop-color="#FFFFFF" stop-opacity="0" offset="0%"></stop>
            <stop stop-color="#FFFFFF" stop-opacity="0.532070879" offset="100%"></stop>
        </linearGradient>
        <path d="M62.4531469,3.58641379 L51.193007,10.0071034 C49.3356643,8.28727586 47.2461538,6.79675862 45.1566434,5.6502069 C38.6547832,1.98124138 32.8517483,1.75193103 28.6727273,4.15968966 L0.58041958,20.2114138 L22.9834545,27.3200345 C26.0027972,39.7027931 34.7090909,52.4295172 45.0393986,58.276931 L126.067133,104.253655 L132.103497,132.917448 L159.731469,117.095034 L159.847552,117.095034 C163.213986,115.14475 165.303497,110.903655 165.303497,104.941586 C165.303497,92.9027931 156.713287,78.3415862 146.14965,72.2648621 C143.47972,70.7743448 140.80979,69.8571034 138.488112,69.7424483 L138.488112,69.1691724 C138.488112,59.7674483 131.755245,48.301931 123.513287,43.6022155 C121.191608,42.3398621 119.102098,41.7665862 117.128671,41.651931 C111.324476,26.6321034 100.296503,12.4148621 87.6433566,5.19158621 C82.1955385,2.0637931 77.0251608,0.573275862 72.4502937,0.574422414 C68.6427413,0.574422414 65.2472867,1.60631897 62.4531469,3.58641379" id="path-6"></path>
        <linearGradient x1="58.9970302%" y1="22.45738%" x2="100%" y2="89.8876401%" id="linearGradient-8">
            <stop stop-color="#FFFFFF" stop-opacity="0.625283062" offset="0%"></stop>
            <stop stop-color="#2AE7FC" offset="100%"></stop>
        </linearGradient>
        <path d="M32.9822581,13.7796505 C29.983871,10.3427573 26.5241935,7.47867961 22.9491935,5.41654369 C10.2637097,-1.80093204 0,4.04178641 0,18.4767379 C0,33.0262524 10.2637097,50.6689709 22.9491935,57.8864466 L123.279839,115.397126 C126.30129,117.145359 129.157831,117.98167 131.697234,118 L131.869065,118 C138.057274,117.954175 142.308065,113.002757 142.308065,104.514777 C142.308065,92.4856505 133.774194,77.9361359 123.279839,71.8642913 C120.627419,70.3738252 117.973847,69.4573204 115.668548,69.3427573 L115.668548,68.7710874 C115.668548,59.375767 108.979839,47.9194563 100.791935,43.2223689 C98.4854839,41.9621748 96.4096774,41.3893592 94.4491935,41.2747961 C88.6830645,26.2670291 77.7274194,12.0623495 65.1572581,4.84372816 C59.799371,1.7551068 54.7182581,0.295572816 50.2045323,0.296718447 C41.9912581,0.296718447 35.6612016,5.13013592 32.9822581,13.7796505" id="path-9"></path>
        <linearGradient x1="4.45390174%" y1="37.2834076%" x2="61.6520232%" y2="89.3238114%" id="linearGradient-11">
            <stop stop-color="#FFFFFF" offset="0%"></stop>
            <stop stop-color="#2AE7FC" offset="100%"></stop>
        </linearGradient>
    </defs>
    <g id="Design" stroke="none" stroke-width="1" fill="none" fill-rule="evenodd">
        <g id="Landing-Page" transform="translate(-857.000000, -5692.000000)">
            <g id="data" transform="translate(857.000000, 5691.000000)">
                <g id="Group-13" transform="translate(151.000000, 502.000000)" fill-rule="nonzero">
                    <path d="M204.447733,45.2 L143.023991,17.2 C126.247462,7.6 98.917956,7.6 82.1414275,17.2 L21.8000424,43.6 C5.02351383,53.2 6.64704885,75.6 23.4235774,85.2 L82.6826058,118.8 C99.4591344,128.4 126.788641,128.4 143.565169,118.8 L202.283019,85.4666667 C219.059548,76.1333333 221.224261,54.8 204.447733,45.2 Z M140.021596,110.32899 C125.634926,118.334781 102.290518,118.334781 87.9038479,110.32899 L37.4147797,81.5081403 C23.0281097,73.2354891 23.0281097,60.1593629 37.1433331,51.8867117 L87.3609547,23.5995817 C101.747625,15.5937902 125.092032,15.5937902 139.478702,23.5995817 L189.967771,52.4204311 C204.354441,60.6930824 204.354441,73.7692085 190.239217,82.0418597 L140.021596,110.32899 Z" id="Shape" fill="#2AE7FC" filter="url(#filter-1)"></path>
                    <path d="M191.905786,47.9517241 L138.234555,23.3310345 C123.575452,14.8896552 99.6953014,14.8896552 85.0361987,23.3310345 L32.3107167,46.5448276 C17.651614,54.9862069 19.0702369,74.6827586 33.7293395,83.1241379 L85.509073,112.668966 C100.168176,121.110345 124.048327,121.110345 138.707429,112.668966 L190.014289,83.3586207 C204.673391,75.1517241 206.564888,56.3931034 191.905786,47.9517241 Z M135.037159,105.44905 C122.449845,112.489956 102.025148,112.489956 89.437834,105.44905 L45.2634878,80.1017896 C32.6761741,72.826187 32.6761741,61.3260409 45.0259913,54.0504383 L88.962841,29.1725712 C101.550155,22.1316654 121.974852,22.1316654 134.562166,29.1725712 L178.736512,54.519832 C191.323826,61.7954346 191.323826,73.2955807 178.974009,80.5711833 L135.037159,105.44905 Z" id="Shape" fill-opacity="0.32" fill="#2AE7FC" filter="url(#filter-2)"></path>
                    <path d="M204.447733,45.2 L143.023991,17.2 C126.247462,7.6 98.917956,7.6 82.1414275,17.2 L21.8000424,43.6 C5.02351383,53.2 6.64704885,75.6 23.4235774,85.2 L82.6826058,118.8 C99.4591344,128.4 126.788641,128.4 143.565169,118.8 L202.283019,85.4666667 C219.059548,76.1333333 221.224261,54.8 204.447733,45.2 Z M140.021596,110.32899 C125.634926,118.334781 102.290518,118.334781 87.9038479,110.32899 L37.4147797,81.5081403 C23.0281097,73.2354891 23.0281097,60.1593629 37.1433331,51.8867117 L87.3609547,23.5995817 C101.747625,15.5937902 125.092032,15.5937902 139.478702,23.5995817 L189.967771,52.4204311 C204.354441,60.6930824 204.354441,73.7692085 190.239217,82.0418597 L140.021596,110.32899 Z" id="Shape" fill="#2AE7FC"></path>
                    <path d="M209.93952,47.0229358 L144.943293,8.29816514 C126.542535,-2.76605505 96.5671059,-2.76605505 78.1663475,8.29816514 L13.7636931,47.0229358 C-4.63706531,58.087156 -4.63706531,75.912844 14.0604795,86.9770642 L79.0567067,125.701835 C97.4574651,136.766055 127.432894,136.766055 145.833653,125.701835 L210.236307,87.2844037 C228.637065,75.912844 228.637065,58.087156 209.93952,47.0229358 Z M140.788283,116.788991 C125.058603,126.009174 99.5349701,126.009174 83.8052896,116.788991 L28.6030144,83.5963303 C12.8733338,74.0688073 12.8733338,59.0091743 28.3062279,49.4816514 L83.2117167,16.5963303 C98.9413973,7.37614679 124.46503,7.37614679 140.19471,16.5963303 L195.396986,49.7889908 C211.126666,59.3165138 211.126666,74.3761468 195.693772,83.9036697 L140.788283,116.788991 Z" id="Shape" fill="url(#linearGradient-3)"></path>
                </g>
                <g id="Group-3" opacity="0.231491815" transform="translate(184.000000, 1.000000)" fill="url(#linearGradient-4)">
                    <polygon id="Rectangle" points="106 159.45944 158 129.5 158 554.839288 106 584.5"></polygon>
                    <polygon id="Rectangle-Copy-12" points="0 100.396371 9.9506865 94.662166 52 91.5 52 495.833156 0 525.5"></polygon>
                    <polygon id="Rectangle" points="0 78.5 106 139.845978 106 585.5 9.41469125e-14 523.416168"></polygon>
                    <polygon id="Rectangle-Copy-13" points="52 0.5 91.0412618 0.666999158 158 39.4665167 158 555.5 52 493.339092"></polygon>
                </g>
                <g transform="translate(353.000000, 158.000000)" fill="#FFFFFF" id="Group" opacity="0.62">
                    <g>
                        <polygon id="Path" opacity="0.5" points="23.1555963 18.5155107 0.33853211 5.30090261 0.33853211 0.286128266 23.1555963 13.4555582"></polygon>
                        <polygon id="Path" opacity="0.5" points="34.8913761 25.2545843 26.6462385 20.4958195 26.6462385 15.4810451 34.8913761 20.23981"></polygon>
                        <polygon id="Path" opacity="0.5" points="43.9489908 30.5178385 38.3368807 27.2800713 38.3368807 22.2652969 43.9489908 25.5105938"></polygon>
                        <polygon id="Path" opacity="0.5" points="12.7814679 23.9368884 0.33853211 16.7460333 0.33853211 11.7312589 12.7814679 18.922114"></polygon>
                        <polygon id="Path" opacity="0.5" points="31.506055 34.772114 16.2721101 25.9623753 16.2721101 20.947601 31.506055 29.7648694"></polygon>
                        <polygon id="Path" opacity="0.5" points="40.5636697 40.0428979 34.9966972 36.797601 34.9966972 31.7903563 40.5636697 35.0281235"></polygon>
                        <polygon id="Path" opacity="0.5" points="49.2150459 45.0049644 43.6480734 41.7671971 43.6480734 36.7524228 49.2150459 39.99019"></polygon>
                        <polygon id="Path" points="9.34348624 33.4092399 0.33853211 28.2438717 0.33853211 23.2290974 9.34348624 28.3944656"></polygon>
                        <polygon id="Path" points="15.9185321 37.2042043 12.8341284 35.4347268 12.8341284 30.4199525 15.9185321 32.1894299"></polygon>
                        <polygon id="Path" opacity="0.5" points="24.9761468 42.4749881 19.4091743 39.2296912 19.4091743 34.2149169 24.9761468 37.4602138"></polygon>
                        <polygon id="Path" opacity="0.5" points="33.5748624 58.8821853 0.33853211 39.6890024 0.33853211 34.674228 33.5748624 53.8674109"></polygon>
                        <polygon id="Path" opacity="0.5" points="45.2655046 65.6664371 37.020367 60.9076722 37.020367 55.8928979 45.2655046 60.6516627"></polygon>
                        <polygon id="Path" opacity="0.5" points="9.34348624 56.352209 0.33853211 51.134133 0.33853211 46.1193587 9.34348624 51.3374347"></polygon>
                        <polygon id="Path" opacity="0.5" points="30.4377982 68.5503088 12.8341284 58.377696 12.8341284 53.3629216 30.4377982 63.5355344"></polygon>
                        <polygon id="Path" opacity="0.5" points="39.5480734 73.8210926 33.9359633 70.5757957 33.9359633 65.5610214 39.5480734 68.8063183"></polygon>
                        <polygon id="Path" opacity="0.5" points="18.7546789 73.2638955 0.33853211 62.6244418 0.33853211 57.6171971 18.7546789 68.2491211"></polygon>
                        <polygon id="Path" points="35.5533945 82.9847268 22.2453211 75.2893824 22.2453211 70.2746081 35.5533945 77.9699525"></polygon>
                        <polygon id="Path" opacity="0.5" points="48.0489908 90.1755819 39.0440367 84.9575059 39.0440367 79.9502613 48.0489908 85.1608076"></polygon>
                        <polygon id="Path" opacity="0.5" points="6.56 77.6687648 0.33853211 74.0695724 0.33853211 69.0623278 6.56 72.6539905"></polygon>
                        <polygon id="Path" opacity="0.5" points="18.2506422 84.4530166 10.0506422 79.6942518 10.0506422 74.6794774 18.2506422 79.4382423"></polygon>
                        <polygon id="Path" opacity="0.5" points="34.9966972 94.1286698 21.7412844 86.4257957 21.7412844 81.4185511 34.9966972 89.0611876"></polygon>
                        <polygon id="Path" opacity="0.5" points="19.4091743 96.5607601 0.33853211 85.5147031 0.33853211 80.4999287 19.4091743 91.5459857"></polygon>
                        <polygon id="Path" opacity="0.5" points="40.7141284 108.864276 22.8546789 98.586247 22.8546789 93.5714727 40.7141284 103.849501"></polygon>
                        <polygon id="Path" points="49.8168807 114.12753 44.2047706 110.889762 44.2047706 105.874988 49.8168807 109.112755"></polygon>
                        <polygon id="Path" opacity="0.5" points="58.5209174 119.142304 52.9088073 115.904537 52.9088073 110.889762 58.5209174 114.12753"></polygon>
                        <polygon id="Path" opacity="0.5" points="11.7733945 103.593492 0.33853211 97.0125416 0.33853211 91.9977672 11.7733945 98.586247"></polygon>
                        <polygon id="Path" points="59.4838532 39.4857007 75.319633 48.6493349 75.319633 43.6345606 59.4838532 34.4709264"></polygon>
                        <polygon id="Path" opacity="0.5" points="62.8691743 52.9036105 75.319633 60.0944656 75.319633 55.0796912 62.8691743 47.8888361"></polygon>
                        <polygon id="Path" opacity="0.5" points="66.3146789 66.374228 75.319633 71.5395962 75.319633 66.5248219 66.3146789 61.3594537"></polygon>
                        <polygon id="Path" opacity="0.5" points="62.2146789 75.4399762 75.319633 83.0374347 75.319633 78.0226603 62.2146789 70.4252019"></polygon>
                        <polygon id="Path" opacity="0.5" points="66.3146789 89.2644893 75.319633 94.4825653 75.319633 89.467791 66.3146789 84.249715"></polygon>
                        <polygon id="Path" opacity="0.5" points="63.8847706 99.3392162 75.319633 105.927696 75.319633 100.912922 63.8847706 94.3319715"></polygon>
                        <polygon id="Path" opacity="0.5" points="69.0981651 113.826342 75.319633 117.418005 75.319633 112.41076 69.0981651 108.811568"></polygon>
                        <polygon id="Path" opacity="0.5" points="63.2754128 121.875582 75.319633 128.863135 75.319633 123.855891 63.2754128 116.860808"></polygon>
                        <polygon id="Path" opacity="0.5" points="63.8847706 133.727316 75.319633 140.308266 75.319633 135.301021 63.8847706 128.712542"></polygon>
                        <polygon id="Path" opacity="0.5" points="20.0711927 108.404964 15.2640367 105.618979 15.2640367 100.611734 20.0711927 103.39019"></polygon>
                        <polygon id="Path" opacity="0.5" points="34.4926606 116.762922 23.5618349 110.430451 23.5618349 105.415677 34.4926606 111.748147"></polygon>
                        <polygon id="Path" opacity="0.5" points="111.70055 69.4614014 88.8759633 56.2467933 88.8759633 51.232019 111.70055 64.4466271"></polygon>
                        <polygon id="Path" opacity="0.5" points="123.38367 76.2004751 115.191193 71.4868884 115.191193 66.4269359 123.38367 71.1857007"></polygon>
                        <polygon id="Path" points="132.441284 81.4637292 126.874312 78.225962 126.874312 73.2111876 132.441284 76.4489549"></polygon>
                        <polygon id="Path" opacity="0.5" points="101.273761 74.9354869 88.8759633 67.7446318 88.8759633 62.7298575 101.273761 69.8680048"></polygon>
                        <polygon id="Path" opacity="0.5" points="120.043486 85.7180048 104.764404 76.908266 104.764404 71.8934917 120.043486 80.7032304"></polygon>
                        <polygon id="Path" points="129.101101 90.9887886 123.534128 87.7434917 123.534128 82.7287173 129.101101 85.9740143"></polygon>
                        <polygon id="Path" opacity="0.5" points="137.752477 95.9508551 132.140367 92.758266 132.140367 87.7434917 137.752477 90.9360808"></polygon>
                        <polygon id="Path" opacity="0.5" points="97.8357798 84.4003088 88.8759633 79.1897625 88.8759633 74.1749881 97.8357798 79.3930641"></polygon>
                        <polygon id="Path" opacity="0.5" points="104.410826 88.2028029 101.326422 86.3806176 101.326422 81.3658432 104.410826 83.1353207"></polygon>
                        <polygon id="Path" opacity="0.5" points="113.46844 93.4133492 107.901468 90.1755819 107.901468 85.1608076 113.46844 88.4061045"></polygon>
                        <polygon id="Path" opacity="0.5" points="122.067156 109.828076 88.8759633 90.6348931 88.8759633 85.6201188 122.067156 104.813302"></polygon>
                        <polygon id="Path" opacity="0.5" points="133.757798 116.612328 125.557798 111.853563 125.557798 106.838789 133.757798 111.597553"></polygon>
                        <polygon id="Path" opacity="0.5" points="97.8357798 107.29057 88.8759633 102.125202 88.8759633 97.1179572 97.8357798 102.275796"></polygon>
                        <polygon id="Path" opacity="0.5" points="118.982752 119.4962 101.326422 109.316057 101.326422 104.301283 118.982752 114.481425"></polygon>
                        <polygon id="Path" opacity="0.5" points="128.040367 124.766983 122.473394 121.521686 122.473394 116.506912 128.040367 119.752209"></polygon>
                        <polygon id="Path" points="107.246972 124.209786 88.8759633 113.570333 88.8759633 108.555558 107.246972 119.195012"></polygon>
                        <polygon id="Path" opacity="0.5" points="124.090826 133.930618 110.737615 126.235273 110.737615 121.220499 124.090826 128.915843"></polygon>
                        <polygon id="Path" opacity="0.5" points="136.541284 141.121473 127.581468 135.956105 127.581468 130.94133 136.541284 136.106698"></polygon>
                        <polygon id="Path" opacity="0.5" points="95.0522936 128.614656 88.8759633 125.015463 88.8759633 120.000689 95.0522936 123.599881"></polygon>
                        <polygon id="Path" opacity="0.5" points="106.788073 135.398907 98.5429358 130.640143 98.5429358 125.625368 106.788073 130.384133"></polygon>
                        <polygon id="Path" points="123.534128 145.074561 110.278716 137.424394 110.278716 132.40962 123.534128 140.059786"></polygon>
                        <polygon id="Path" opacity="0.5" points="107.901468 147.499121 88.8759633 136.513302 88.8759633 131.498527 107.901468 142.491876"></polygon>
                        <polygon id="Path" opacity="0.5" points="129.25156 159.810166 111.39211 149.524608 111.39211 144.517363 129.25156 154.795392"></polygon>
                        <polygon id="Path" opacity="0.5" points="138.309174 165.07342 132.742202 161.835653 132.742202 156.820879 138.309174 160.058646"></polygon>
                        <polygon id="Path" opacity="0.5" points="147.013211 170.088195 141.446239 166.895606 141.446239 161.880831 147.013211 165.07342"></polygon>
                        <polygon id="Path" opacity="0.5" points="100.265688 154.539382 88.8759633 147.958432 88.8759633 142.943658 100.265688 149.524608"></polygon>
                        <polygon id="Path" points="148.021284 90.4315914 163.811927 99.5952257 163.811927 94.5804513 148.021284 85.4168171"></polygon>
                        <polygon id="Path" opacity="0.5" points="151.414128 103.849501 163.811927 111.040356 163.811927 106.025582 151.414128 98.8347268"></polygon>
                        <polygon id="Path" opacity="0.5" points="154.85211 117.320119 163.811927 122.538195 163.811927 117.470713 154.85211 112.305344"></polygon>
                        <polygon id="Path" opacity="0.5" points="150.759633 126.385867 163.811927 133.983325 163.811927 128.968551 150.759633 121.371093"></polygon>
                        <polygon id="Path" opacity="0.5" points="154.85211 140.21038 163.811927 145.428456 163.811927 140.413682 154.85211 135.195606"></polygon>
                        <polygon id="Path" opacity="0.5" points="152.429725 150.285107 163.811927 156.918765 163.811927 151.858812 152.429725 145.270333"></polygon>
                        <polygon id="Path" opacity="0.5" points="157.590459 164.772233 163.811927 168.363895 163.811927 163.349121 157.590459 159.757458"></polygon>
                        <polygon id="Path" opacity="0.5" points="151.767706 172.874181 163.811927 179.809026 163.811927 174.794252 151.767706 167.859406"></polygon>
                        <polygon id="Path" opacity="0.5" points="152.429725 184.673207 163.811927 191.306865 163.811927 186.239382 152.429725 179.658432"></polygon>
                        <polygon id="Path" points="108.608624 159.350855 103.75633 156.564869 103.75633 151.550095 108.608624 154.336081"></polygon>
                        <polygon id="Path" opacity="0.5" points="123.030092 167.708812 112.099266 161.376342 112.099266 156.361568 123.030092 162.694038"></polygon>
                        <polygon id="Path" opacity="0.5" points="23.1555963 121.724988 0.33853211 108.51038 0.33853211 103.495606 23.1555963 116.710214"></polygon>
                        <polygon id="Path" opacity="0.5" points="34.8913761 128.464062 26.6462385 123.750475 26.6462385 118.735701 34.8913761 123.449287"></polygon>
                        <polygon id="Path" opacity="0.5" points="43.9489908 133.727316 38.3368807 130.489549 38.3368807 125.474774 43.9489908 128.712542"></polygon>
                        <polygon id="Path" opacity="0.5" points="12.7814679 127.191544 0.33853211 120.000689 0.33853211 114.993444 12.7814679 122.184299"></polygon>
                        <polygon id="Path" opacity="0.5" points="31.506055 137.981591 16.2721101 129.171853 16.2721101 124.157078 31.506055 132.966817"></polygon>
                        <polygon id="Path" opacity="0.5" points="40.5636697 143.244846 34.9966972 140.007078 34.9966972 134.992304 40.5636697 138.237601"></polygon>
                        <polygon id="Path" opacity="0.5" points="49.2150459 148.206912 43.6480734 145.021853 43.6480734 140.007078 49.2150459 143.199667"></polygon>
                        <polygon id="Path" opacity="0.5" points="9.34348624 136.663895 0.33853211 131.445819 0.33853211 126.438575 9.34348624 131.649121"></polygon>
                        <polygon id="Path" opacity="0.5" points="15.9185321 140.46639 12.8341284 138.689382 12.8341284 133.6219 15.9185321 135.451615"></polygon>
                        <polygon id="Path" opacity="0.5" points="24.9761468 145.676936 19.4091743 142.439169 19.4091743 137.424394 24.9761468 140.662162"></polygon>
                        <polygon id="Path" opacity="0.5" points="33.5748624 162.084133 0.33853211 142.89095 0.33853211 137.883705 33.5748624 157.069359"></polygon>
                        <polygon id="Path" opacity="0.5" points="45.2655046 168.868385 37.020367 164.10962 37.020367 159.094846 45.2655046 163.86114"></polygon>
                        <polygon id="Path" opacity="0.5" points="9.34348624 159.554157 0.33853211 154.388789 0.33853211 149.374014 9.34348624 154.539382"></polygon>
                        <polygon id="Path" opacity="0.5" points="30.4377982 171.759786 12.8341284 161.579644 12.8341284 156.564869 30.4377982 166.745012"></polygon>
                        <polygon id="Path" opacity="0.5" points="39.5480734 177.02304 33.9359633 173.785273 33.9359633 168.770499 39.5480734 172.008266"></polygon>
                        <polygon id="Path" opacity="0.5" points="18.7546789 176.465843 0.33853211 165.833919 0.33853211 160.819145 18.7546789 171.451069"></polygon>
                        <polygon id="Path" opacity="0.5" points="35.5533945 186.194204 22.2453211 178.49133 22.2453211 173.476556 35.5533945 181.17943"></polygon>
                        <polygon id="Path" opacity="0.5" points="48.0489908 193.385059 39.0440367 188.219691 39.0440367 183.204917 48.0489908 188.370285"></polygon>
                        <polygon id="Path" opacity="0.5" points="6.56 180.870713 0.33853211 177.27905 0.33853211 172.264276 6.56 175.863468"></polygon>
                        <polygon id="Path" opacity="0.5" points="18.2506422 187.662494 10.0506422 182.8962 10.0506422 177.888955 18.2506422 182.64772"></polygon>
                        <polygon id="Path" opacity="0.5" points="34.9966972 197.330618 21.7412844 189.687981 21.7412844 184.673207 34.9966972 192.315843"></polygon>
                        <polygon id="Path" opacity="0.5" points="19.4091743 199.762708 0.33853211 188.776888 0.33853211 183.762114 19.4091743 194.747933"></polygon>
                        <polygon id="Path" opacity="0.5" points="40.7141284 212.118931 22.8546789 201.788195 22.8546789 196.77342 40.7141284 207.058979"></polygon>
                        <polygon id="Path" opacity="0.5" points="49.8168807 217.337007 44.2047706 214.09171 44.2047706 209.084466 49.8168807 212.322233"></polygon>
                        <polygon id="Path" opacity="0.5" points="58.5209174 222.351781 52.9088073 219.159192 52.9088073 214.144418 58.5209174 217.337007"></polygon>
                        <polygon id="Path" opacity="0.5" points="11.7733945 206.802969 0.33853211 200.214489 0.33853211 195.207245 11.7733945 201.788195"></polygon>
                        <polygon id="Path" opacity="0.5" points="59.4838532 142.687648 75.319633 151.858812 75.319633 146.844038 59.4838532 137.680404"></polygon>
                        <polygon id="Path" opacity="0.5" points="62.8691743 156.113088 75.319633 163.303943 75.319633 158.289169 62.8691743 151.098314"></polygon>
                        <polygon id="Path" opacity="0.5" points="66.3146789 169.583705 75.319633 174.794252 75.319633 169.787007 66.3146789 164.568931"></polygon>
                        <polygon id="Path" opacity="0.5" points="62.2146789 178.694632 75.319633 186.239382 75.319633 181.232138 62.2146789 173.634679"></polygon>
                        <polygon id="Path" opacity="0.5" points="66.3146789 192.519145 75.319633 197.684513 75.319633 192.669739 66.3146789 187.459192"></polygon>
                        <polygon id="Path" opacity="0.5" points="63.8847706 202.548694 75.319633 209.182352 75.319633 204.167577 63.8847706 197.533919"></polygon>
                        <polygon id="Path" opacity="0.5" points="69.0981651 217.02829 75.319633 220.627482 75.319633 215.612708 69.0981651 212.021045"></polygon>
                        <polygon id="Path" opacity="0.5" points="63.2754128 225.137767 75.319633 232.072613 75.319633 227.057838 63.2754128 220.122993"></polygon>
                        <polygon id="Path" opacity="0.5" points="63.8847706 236.936793 75.319633 243.570451 75.319633 238.555677 63.8847706 231.922019"></polygon>
                        <polygon id="Path" opacity="0.5" points="20.0711927 211.614442 15.2640367 208.828456 15.2640367 203.813682 20.0711927 206.599667"></polygon>
                        <polygon id="Path" opacity="0.5" points="34.4926606 219.964869 23.5618349 213.639929 23.5618349 208.625154 34.4926606 214.957625"></polygon>
                        <polygon id="Path" opacity="0.5" points="43.5427523 258.501829 25.1266055 247.869905 25.1266055 242.855131 43.5427523 253.494584"></polygon>
                        <polygon id="Path" opacity="0.5" points="56.1963303 265.7981 48.9066055 261.596532 48.9066055 256.581758 56.1963303 260.783325"></polygon>
                        <polygon id="Path" opacity="0.5" points="111.70055 172.670879 88.8759633 159.501449 88.8759633 154.486675 111.70055 167.656105"></polygon>
                        <polygon id="Path" opacity="0.5" points="123.38367 179.455131 115.191193 174.696366 115.191193 169.681591 123.38367 174.440356"></polygon>
                        <polygon id="Path" opacity="0.5" points="132.441284 184.673207 126.874312 181.42791 126.874312 176.420665 132.441284 179.658432"></polygon>
                        <polygon id="Path" opacity="0.5" points="101.273761 178.137435 88.8759633 170.94658 88.8759633 165.931805 101.273761 173.12266"></polygon>
                        <polygon id="Path" opacity="0.5" points="120.043486 188.98019 104.764404 180.162922 104.764404 175.148147 120.043486 183.965416"></polygon>
                        <polygon id="Path" opacity="0.5" points="129.101101 194.190736 123.534128 190.952969 123.534128 185.938195 129.101101 189.175962"></polygon>
                        <polygon id="Path" opacity="0.5" points="137.752477 199.205511 132.140367 195.967743 132.140367 190.952969 137.752477 194.190736"></polygon>
                        <polygon id="Path" opacity="0.5" points="97.8357798 187.609786 88.8759633 182.39171 88.8759633 177.376936 97.8357798 182.595012"></polygon>
                        <polygon id="Path" opacity="0.5" points="104.410826 191.404751 101.326422 189.635273 101.326422 184.620499 104.410826 186.397506"></polygon>
                        <polygon id="Path" opacity="0.5" points="113.46844 196.622827 107.901468 193.430238 107.901468 188.422993 113.46844 191.608052"></polygon>
                        <polygon id="Path" opacity="0.5" points="122.067156 213.082732 88.8759633 193.889549 88.8759633 188.874774 122.067156 208.067957"></polygon>
                        <polygon id="Path" opacity="0.5" points="133.757798 219.814276 125.557798 215.055511 125.557798 210.040736 133.757798 214.799501"></polygon>
                        <polygon id="Path" opacity="0.5" points="97.8357798 210.552755 88.8759633 205.334679 88.8759633 200.319905 97.8357798 205.537981"></polygon>
                        <polygon id="Path" opacity="0.5" points="118.982752 222.750855 101.326422 212.525534 101.326422 207.51076 118.982752 217.74361"></polygon>
                        <polygon id="Path" opacity="0.5" points="128.040367 227.968931 122.473394 224.731164 122.473394 219.71639 128.040367 222.954157"></polygon>
                        <polygon id="Path" opacity="0.5" points="107.246972 227.411734 88.8759633 216.77981 88.8759633 211.765036 107.246972 222.39696"></polygon>
                        <polygon id="Path" opacity="0.5" points="124.090826 237.132565 110.737615 229.437221 110.737615 224.422447 124.090826 232.125321"></polygon>
                        <polygon id="Path" opacity="0.5" points="136.541284 244.376128 127.581468 239.158052 127.581468 234.150808 136.541284 239.361354"></polygon>
                        <polygon id="Path" opacity="0.5" points="95.0522936 231.869311 88.8759633 228.270119 88.8759633 223.262874 95.0522936 226.801829"></polygon>
                        <polygon id="Path" opacity="0.5" points="106.788073 238.600855 98.5429358 233.84209 98.5429358 228.827316 106.788073 233.59361"></polygon>
                        <polygon id="Path" opacity="0.5" points="123.534128 248.276508 110.278716 240.626342 110.278716 235.619097 123.534128 243.261734"></polygon>
                        <polygon id="Path" opacity="0.5" points="107.901468 250.708599 88.8759633 239.715249 88.8759633 234.708005 107.901468 245.693824"></polygon>
                        <polygon id="Path" opacity="0.5" points="129.25156 263.064822 111.39211 252.734086 111.39211 247.719311 129.25156 258.050048"></polygon>
                        <polygon id="Path" opacity="0.5" points="138.309174 268.282898 132.742202 265.090309 132.742202 260.022827 138.309174 263.268124"></polygon>
                        <polygon id="Path" opacity="0.5" points="147.013211 273.34285 141.446239 270.105083 141.446239 265.090309 147.013211 268.328076"></polygon>
                        <polygon id="Path" opacity="0.5" points="100.265688 257.794038 88.8759633 251.16038 88.8759633 246.145606 100.265688 252.734086"></polygon>
                        <polygon id="Path" opacity="0.5" points="148.021284 193.686247 163.811927 202.797173 163.811927 197.789929 148.021284 188.618765"></polygon>
                        <polygon id="Path" opacity="0.5" points="151.414128 207.104157 163.811927 214.249834 163.811927 209.235059 151.414128 202.044204"></polygon>
                        <polygon id="Path" opacity="0.5" points="154.85211 220.522067 163.811927 225.740143 163.811927 220.725368 154.85211 215.514822"></polygon>
                        <polygon id="Path" opacity="0.5" points="150.759633 229.640523 163.811927 237.185273 163.811927 232.170499 150.759633 224.625748"></polygon>
                        <polygon id="Path" opacity="0.5" points="154.85211 243.465036 163.811927 248.630404 163.811927 243.615629 154.85211 238.450261"></polygon>
                        <polygon id="Path" opacity="0.5" points="152.429725 253.547292 163.811927 260.128242 163.811927 255.113468 152.429725 248.47981"></polygon>
                        <polygon id="Path" opacity="0.5" points="157.590459 267.974181 163.811927 271.573373 163.811927 266.558599 157.590459 262.959406"></polygon>
                        <polygon id="Path" opacity="0.5" points="151.767706 276.076128 163.811927 283.018504 163.811927 278.003729 151.767706 271.068884"></polygon>
                        <polygon id="Path" opacity="0.5" points="152.429725 287.927862 163.811927 294.508812 163.811927 289.501568 152.429725 282.86038"></polygon>
                        <polygon id="Path" opacity="0.5" points="108.608624 262.605511 103.75633 259.774347 103.75633 254.759572 108.608624 257.598266"></polygon>
                        <polygon id="Path" opacity="0.5" points="123.030092 270.91076 112.099266 264.585819 112.099266 259.571045 123.030092 265.895986"></polygon>
                        <polygon id="Path" opacity="0.5" points="132.035046 309.44772 113.618899 298.815796 113.618899 293.801021 132.035046 304.440475"></polygon>
                        <polygon id="Path" opacity="0.5" points="144.688624 316.796698 137.45156 312.587601 137.45156 307.580356 144.688624 311.781924"></polygon>
                    </g>
                </g>
                <g id="Group-8" opacity="0.086844308" transform="translate(197.000000, 130.000000)" fill="url(#linearGradient-5)">
                    <path d="M14,406 C14,410.48 11.6666667,413 7,413 C2.33333333,413 0,410.48 0,406 C0,401.52 2.33333333,399 7,399 C11.6666667,399 14,401.52 14,406 Z M4.66666667,406 C4.66666667,409.64 5.44444444,410.76 7.38888889,410.76 C9.33333333,410.76 9.72222222,409.64 9.72222222,406 C9.72222222,402.36 8.94444444,401.52 7.38888889,401.52 C5.83333333,401.52 4.66666667,402.64 4.66666667,406 Z" id="Shape" fill-rule="nonzero"></path>
                    <polygon id="Path" points="10.1923077 434 10.1923077 423.276596 6.73076923 425.06383 5 422.978723 10.5384615 420 14 420 14 434"></polygon>
                    <polygon id="Path" points="33.1923077 25 33.1923077 14.36 29.7307692 16.04 28 13.8 33.5384615 11 37 11 37 24.72 33.1923077 24.72"></polygon>
                    <path d="M41,40.8627451 C41,45.254902 38.6666667,48 34,48 C29.3333333,48 27,45.5294118 27,40.8627451 C27,36.1960784 29.3333333,34 34,34 C38.6666667,34 41,36.1960784 41,40.8627451 Z M31.2777778,40.8627451 C31.2777778,44.4313725 32.0555556,45.5294118 34,45.5294118 C35.9444444,45.5294118 36.7222222,44.4313725 36.7222222,40.8627451 C36.7222222,37.2941176 35.9444444,36.1960784 34,36.1960784 C32.0555556,36.1960784 31.2777778,37.2941176 31.2777778,40.8627451 Z" id="Shape" fill-rule="nonzero"></path>
                    <path d="M41,60.8627451 C41,65.254902 38.6666667,68 34,68 C29.3333333,68 27,65.5294118 27,60.8627451 C27,56.1960784 29.3333333,54 34,54 C38.6666667,54 41,56.4705882 41,60.8627451 Z M31.2777778,60.8627451 C31.2777778,64.4313725 32.0555556,65.5294118 34,65.5294118 C35.9444444,65.5294118 36.7222222,64.4313725 36.7222222,60.8627451 C36.7222222,57.2941176 35.9444444,56.1960784 34,56.1960784 C32.0555556,56.1960784 31.2777778,57.2941176 31.2777778,60.8627451 Z" id="Shape" fill-rule="nonzero"></path>
                    <path d="M41,83.8627451 C41,88.254902 38.6666667,91 34,91 C29.3333333,91 27,88.5294118 27,83.8627451 C27,79.1960784 29.3333333,77 34,77 C38.6666667,77 41,79.4705882 41,83.8627451 Z M31.2777778,83.8627451 C31.2777778,87.4313725 32.0555556,88.5294118 34,88.5294118 C35.9444444,88.5294118 36.7222222,87.4313725 36.7222222,83.8627451 C36.7222222,80.2941176 35.9444444,79.1960784 34,79.1960784 C32.0555556,79.1960784 31.2777778,80.2941176 31.2777778,83.8627451 Z" id="Shape" fill-rule="nonzero"></path>
                    <polygon id="Path" points="33.1923077 111 33.1923077 100.36 29.7307692 102.04 28 99.8 33.5384615 97 37 97 37 110.72 33.1923077 110.72"></polygon>
                    <polygon id="Path" points="33.1923077 132 33.1923077 121.36 29.7307692 123.04 28 120.8 33.5384615 118 37 118 37 131.72 33.1923077 131.72"></polygon>
                    <polygon id="Path" points="31.1363636 157 31.1363636 146.925 28.2727273 148.55 27 146.6 31.4545455 144 34 144 34 157"></polygon>
                    <polygon id="Path" points="31.1363636 176 31.1363636 165.925 28.2727273 167.55 27 165.6 31.4545455 163 34 163 34 176"></polygon>
                    <path d="M37,185.5 C37,189.833333 35.5,192 32.5,192 C29.5,192 28,189.52381 28,185.5 C28,181.47619 29.5,179 32.5,179 C35.5,179 37,181.166667 37,185.5 Z M30.7,185.5 C30.7,188.904762 31.3,189.833333 32.5,189.833333 C33.7,189.833333 34.3,188.904762 34.3,185.5 C34.3,182.095238 33.7,181.166667 32.5,181.166667 C31.3,181.166667 30.7,182.095238 30.7,185.5 Z" id="Shape" fill-rule="nonzero"></path>
                    <polygon id="Path" points="31.1363636 211 31.1363636 200.925 28.2727273 202.55 27 200.6 31.4545455 198 34 198 34 211"></polygon>
                    <path d="M37,218.5 C37,222.833333 35.5,225 32.5,225 C29.5,225 28,222.52381 28,218.5 C28,214.47619 29.5,212 32.5,212 C35.5,212 37,214.47619 37,218.5 Z M30.7,218.5 C30.7,221.904762 31.3,222.833333 32.5,222.833333 C33.7,222.833333 34.3,221.904762 34.3,218.5 C34.3,215.095238 33.7,214.166667 32.5,214.166667 C31.3,214.166667 30.7,215.404762 30.7,218.5 Z" id="Shape" fill-rule="nonzero"></path>
                    <path d="M37,237.5 C37,241.833333 35.5,244 32.5,244 C29.5,244 28,241.52381 28,237.5 C28,233.47619 29.5,231 32.5,231 C35.5,231 37,233.47619 37,237.5 Z M30.7,237.5 C30.7,240.904762 31.3,241.833333 32.5,241.833333 C33.7,241.833333 34.3,240.904762 34.3,237.5 C34.3,234.095238 33.7,233.166667 32.5,233.166667 C31.3,233.166667 30.7,234.095238 30.7,237.5 Z" id="Shape" fill-rule="nonzero"></path>
                    <path d="M37,255.5 C37,259.833333 35.5,262 32.5,262 C29.5,262 28,259.52381 28,255.5 C28,251.47619 29.5,249 32.5,249 C35.5,249 37,251.166667 37,255.5 Z M30.7,255.5 C30.7,258.904762 31.3,259.833333 32.5,259.833333 C33.7,259.833333 34.3,258.904762 34.3,255.5 C34.3,252.095238 33.7,251.166667 32.5,251.166667 C31.3,251.166667 30.7,252.095238 30.7,255.5 Z" id="Shape" fill-rule="nonzero"></path>
                    <polygon id="Path" points="31.1363636 282 31.1363636 271.925 28.2727273 273.55 27 271.6 31.4545455 269 34 269 34 282"></polygon>
                    <path d="M37,290.5 C37,294.833333 35.5,297 32.5,297 C29.5,297 28,294.52381 28,290.5 C28,286.47619 29.5,284 32.5,284 C35.5,284 37,286.166667 37,290.5 Z M30.7,290.5 C30.7,293.904762 31.3,294.833333 32.5,294.833333 C33.7,294.833333 34.3,293.904762 34.3,290.5 C34.3,287.095238 33.7,286.166667 32.5,286.166667 C31.3,286.166667 30.7,287.095238 30.7,290.5 Z" id="Shape" fill-rule="nonzero"></path>
                    <polygon id="Path" points="31.1363636 319 31.1363636 308.925 28.2727273 310.55 27 308.6 31.4545455 306 34 306 34 319"></polygon>
                    <path d="M37,327.5 C37,331.833333 35.5,334 32.5,334 C29.5,334 28,331.52381 28,327.5 C28,323.47619 29.5,321 32.5,321 C35.5,321 37,323.47619 37,327.5 Z M30.7,327.5 C30.7,330.904762 31.3,331.833333 32.5,331.833333 C33.7,331.833333 34.3,330.904762 34.3,327.5 C34.3,324.095238 33.7,323.166667 32.5,323.166667 C31.3,323.166667 30.7,324.404762 30.7,327.5 Z" id="Shape" fill-rule="nonzero"></path>
                    <path d="M37,417.5 C37,421.833333 35.5,424 32.5,424 C29.5,424 28,421.52381 28,417.5 C28,413.47619 29.5,411 32.5,411 C35.5,411 37,413.47619 37,417.5 Z M30.7,417.5 C30.7,420.904762 31.3,421.833333 32.5,421.833333 C33.7,421.833333 34.3,420.904762 34.3,417.5 C34.3,414.095238 33.7,413.166667 32.5,413.166667 C31.3,413.166667 30.7,414.404762 30.7,417.5 Z" id="Shape" fill-rule="nonzero"></path>
                    <polygon id="Path" points="31.1363636 440 31.1363636 429.925 28.2727273 431.55 27 429.6 31.4545455 427 34 427 34 440"></polygon>
                    <path d="M14,20 C14,24.48 11.6666667,27 7,27 C2.33333333,27 0,24.48 0,20 C0,15.52 2.33333333,13 7,13 C11.6666667,13 14,15.52 14,20 Z M4.66666667,20 C4.66666667,23.64 5.44444444,24.76 7.38888889,24.76 C9.33333333,24.76 9.72222222,23.64 9.72222222,20 C9.72222222,16.36 8.94444444,15.52 7.38888889,15.52 C5.83333333,15.52 4.66666667,16.64 4.66666667,20 Z" id="Shape" fill-rule="nonzero"></path>
                    <polygon id="Path" points="5.19230769 48 5.19230769 37.2765957 1.73076923 39.0638298 0 36.9787234 5.53846154 34 9 34 9 48"></polygon>
                    <path d="M14,61 C14,65.48 11.6666667,68 7,68 C2.33333333,68 0,65.48 0,61 C0,56.52 2.33333333,54 7,54 C11.6666667,54 14,56.52 14,61 Z M4.66666667,61 C4.66666667,64.36 5.44444444,65.76 7.38888889,65.76 C9.33333333,65.76 9.72222222,64.64 9.72222222,61 C9.72222222,57.36 8.94444444,56.52 7.38888889,56.52 C5.83333333,56.52 4.66666667,57.36 4.66666667,61 Z" id="Shape" fill-rule="nonzero"></path>
                    <path d="M14,84 C14,88.48 11.6666667,91 7,91 C2.33333333,91 0,88.48 0,84 C0,79.52 2.33333333,77 7,77 C11.6666667,77 14,79.52 14,84 Z M4.66666667,84 C4.66666667,87.64 5.44444444,88.76 7.38888889,88.76 C9.33333333,88.76 9.72222222,87.64 9.72222222,84 C9.72222222,80.36 8.94444444,79.52 7.38888889,79.52 C5.83333333,79.52 4.66666667,80.36 4.66666667,84 Z" id="Shape" fill-rule="nonzero"></path>
                    <path d="M14,104 C14,108.48 11.6666667,111 7,111 C2.33333333,111 0,108.48 0,104 C0,99.52 2.33333333,97 7,97 C11.6666667,97 14,99.8 14,104 Z M4.66666667,104 C4.66666667,107.36 5.44444444,108.76 7.38888889,108.76 C9.33333333,108.76 9.72222222,107.64 9.72222222,104 C9.72222222,100.36 8.94444444,99.52 7.38888889,99.52 C5.83333333,99.52 4.66666667,100.64 4.66666667,104 Z" id="Shape" fill-rule="nonzero"></path>
                    <polygon id="Path" points="5.19230769 132 5.19230769 121.276596 1.73076923 123.06383 0 120.978723 5.53846154 118 9 118 9 132"></polygon>
                    <path d="M14,145 C14,149.48 11.6666667,152 7,152 C2.33333333,152 0,149.48 0,145 C0,140.52 2.33333333,138 7,138 C11.6666667,138 14,140.52 14,145 Z M4.66666667,145 C4.66666667,148.64 5.44444444,149.76 7.38888889,149.76 C9.33333333,149.76 9.72222222,148.64 9.72222222,145 C9.72222222,141.36 8.94444444,140.52 7.38888889,140.52 C5.83333333,140.52 4.66666667,141.64 4.66666667,145 Z" id="Shape" fill-rule="nonzero"></path>
                    <polygon id="Path" points="5.19230769 173 5.19230769 162.276596 1.73076923 164.06383 0 161.978723 5.53846154 159 9 159 9 173"></polygon>
                    <path d="M14,189 C14,193.48 11.6666667,196 7,196 C2.33333333,196 0,193.48 0,189 C0,184.52 2.33333333,182 7,182 C11.6666667,182 14,184.52 14,189 Z M4.66666667,189 C4.66666667,192.64 5.44444444,193.76 7.38888889,193.76 C9.33333333,193.76 9.72222222,192.64 9.72222222,189 C9.72222222,185.36 8.94444444,184.52 7.38888889,184.52 C5.83333333,184.52 4.66666667,185.36 4.66666667,189 Z" id="Shape" fill-rule="nonzero"></path>
                    <polygon id="Path" points="5.19230769 217 5.19230769 206.276596 1.73076923 208.06383 0 205.978723 5.53846154 203 9 203 9 217"></polygon>
                    <path d="M14,227 C14,231.48 11.6666667,234 7,234 C2.33333333,234 0,231.48 0,227 C0,222.52 2.33333333,220 7,220 C11.6666667,220 14,222.52 14,227 Z M4.66666667,227 C4.66666667,230.36 5.44444444,231.76 7.38888889,231.76 C9.33333333,231.76 9.72222222,230.64 9.72222222,227 C9.72222222,223.36 8.94444444,222.52 7.38888889,222.52 C5.83333333,222.52 4.66666667,223.64 4.66666667,227 Z" id="Shape" fill-rule="nonzero"></path>
                    <polygon id="Path" points="5.19230769 257 5.19230769 246.276596 1.73076923 248.06383 0 245.978723 5.53846154 243 9 243 9 257"></polygon>
                    <path d="M14,269 C14,273.48 11.6666667,276 7,276 C2.33333333,276 0,273.48 0,269 C0,264.52 2.33333333,262 7,262 C11.6666667,262 14,264.52 14,269 Z M4.66666667,269 C4.66666667,272.64 5.44444444,273.76 7.38888889,273.76 C9.33333333,273.76 9.72222222,272.64 9.72222222,269 C9.72222222,265.36 8.94444444,264.52 7.38888889,264.52 C5.83333333,264.52 4.66666667,265.64 4.66666667,269 Z" id="Shape" fill-rule="nonzero"></path>
                    <path d="M14,289 C14,293.48 11.6666667,296 7,296 C2.33333333,296 0,293.48 0,289 C0,284.52 2.33333333,282 7,282 C11.6666667,282 14,284.52 14,289 Z M4.66666667,289 C4.66666667,292.64 5.44444444,293.76 7.38888889,293.76 C9.33333333,293.76 9.72222222,292.64 9.72222222,289 C9.72222222,285.36 8.94444444,284.52 7.38888889,284.52 C5.83333333,284.52 4.66666667,285.36 4.66666667,289 Z" id="Shape" fill-rule="nonzero"></path>
                    <polygon id="Path" points="5.19230769 321 5.19230769 310.276596 1.73076923 312.06383 0 309.978723 5.53846154 307 9 307 9 321"></polygon>
                    <path d="M14,332 C14,336.48 11.6666667,339 7,339 C2.33333333,339 0,336.48 0,332 C0,327.52 2.33333333,325 7,325 C11.6666667,325 14,327.8 14,332 Z M4.66666667,332 C4.66666667,335.64 5.44444444,336.76 7.38888889,336.76 C9.33333333,336.76 9.72222222,335.64 9.72222222,332 C9.72222222,328.36 8.94444444,327.52 7.38888889,327.52 C5.83333333,327.52 4.66666667,328.64 4.66666667,332 Z" id="Shape" fill-rule="nonzero"></path>
                    <path d="M138,261 C138,265.48 135.666667,268 131,268 C126.333333,268 124,265.48 124,261 C124,256.52 126.333333,254 131,254 C135.666667,254 138,256.52 138,261 Z M128.666667,261 C128.666667,264.64 129.444444,265.76 131.388889,265.76 C133.333333,265.76 133.722222,264.64 133.722222,261 C133.722222,257.36 132.944444,256.52 131.388889,256.52 C129.833333,256.52 128.666667,257.36 128.666667,261 Z" id="Shape" fill-rule="nonzero"></path>
                    <polygon id="Path" points="131.192308 290 131.192308 279.276596 127.730769 281.06383 126 278.978723 131.538462 276 135 276 135 290"></polygon>
                    <path d="M138,302 C138,306.48 135.666667,309 131,309 C126.333333,309 124,306.48 124,302 C124,297.52 126.333333,295 131,295 C135.666667,295 138,297.52 138,302 Z M128.666667,302 C128.666667,305.64 129.444444,306.76 131.388889,306.76 C133.333333,306.76 133.722222,305.64 133.722222,302 C133.722222,298.36 132.944444,297.52 131.388889,297.52 C129.833333,297.52 128.666667,298.36 128.666667,302 Z" id="Shape" fill-rule="nonzero"></path>
                    <polygon id="Path" points="131.192308 333 131.192308 322.276596 127.730769 324.06383 126 321.978723 131.538462 319 135 319 135 333"></polygon>
                    <polygon id="Path" points="131.192308 413 131.192308 402.276596 127.730769 404.06383 126 401.978723 131.538462 399 135 399 135 413"></polygon>
                    <polygon id="Path" points="131.192308 434 131.192308 423.276596 127.730769 425.06383 126 422.978723 131.538462 420 135 420 135 434"></polygon>
                    <polygon id="Path" points="106.192308 15 106.192308 4.27659574 102.730769 6.06382979 101 3.9787234 106.538462 1 110 1 110 15"></polygon>
                    <path d="M110,28 C110,32.48 107.666667,35 103,35 C98.3333333,35 96,32.48 96,28 C96,23.52 98.3333333,21 103,21 C107.666667,21 110,23.8 110,28 Z M100.666667,28 C100.666667,31.36 101.444444,32.76 103.388889,32.76 C105.333333,32.76 105.722222,31.64 105.722222,28 C105.722222,24.36 104.944444,23.52 103.388889,23.52 C101.833333,23.52 100.666667,24.64 100.666667,28 Z" id="Shape" fill-rule="nonzero"></path>
                    <polygon id="Path" points="106.192308 58 106.192308 47.2765957 102.730769 49.0638298 101 46.9787234 106.538462 44 110 44 110 58"></polygon>
                    <path d="M110,72 C110,76.48 107.666667,79 103,79 C98.3333333,79 96,76.48 96,72 C96,67.52 98.3333333,65 103,65 C107.666667,65 110,67.52 110,72 Z M100.666667,72 C100.666667,75.64 101.444444,76.76 103.388889,76.76 C105.333333,76.76 105.722222,75.64 105.722222,72 C105.722222,68.36 104.944444,67.52 103.388889,67.52 C101.833333,67.52 100.666667,68.64 100.666667,72 Z" id="Shape" fill-rule="nonzero"></path>
                    <polygon id="Path" points="106.192308 100 106.192308 89.2765957 102.730769 91.0638298 101 88.9787234 106.538462 86 110 86 110 100"></polygon>
                    <polygon id="Path" points="106.192308 120 106.192308 109.276596 102.730769 111.06383 101 108.978723 106.538462 106 110 106 110 120"></polygon>
                    <path d="M110,134 C110,138.48 107.666667,141 103,141 C98.3333333,141 96,138.48 96,134 C96,129.52 98.3333333,127 103,127 C107.666667,127 110,129.52 110,134 Z M100.666667,134 C100.666667,137.64 101.444444,138.76 103.388889,138.76 C105.333333,138.76 105.722222,137.64 105.722222,134 C105.722222,130.36 104.944444,129.52 103.388889,129.52 C101.833333,129.52 100.666667,130.36 100.666667,134 Z" id="Shape" fill-rule="nonzero"></path>
                    <polygon id="Path" points="106.192308 163 106.192308 152.208333 102.730769 153.958333 101 151.916667 106.538462 149 110 149 110 162.708333 106.192308 162.708333"></polygon>
                    <polygon id="Path" points="105.375 203.695652 105.375 193.043478 102.458333 194.869565 101 192.73913 105.375 190 108 190 108 204 105.375 204"></polygon>
                    <polygon id="Path" points="105.375 221.695652 105.375 211.043478 102.458333 212.869565 101 210.73913 105.375 208 108 208 108 222 105.375 222"></polygon>
                    <path d="M110,236 C110,240.375 108.411765,243 105.5,243 C102.588235,243 101,240.375 101,236 C101,231.625 102.588235,229 105.5,229 C108.411765,229 110,231.625 110,236 Z M103.911765,236 C103.911765,239.5 104.441176,240.666667 105.5,240.666667 C106.558824,240.666667 107.088235,239.5 107.088235,236 C107.088235,232.5 106.558824,231.333333 105.5,231.333333 C104.441176,231.333333 103.911765,232.5 103.911765,236 Z" id="Shape" fill-rule="nonzero"></path>
                    <polygon id="Path" points="105.375 262.695652 105.375 252.043478 102.458333 253.869565 101 251.73913 105.375 249 108 249 108 263 105.375 263"></polygon>
                    <path d="M110,275 C110,279.375 108.411765,282 105.5,282 C102.588235,282 101,279.375 101,275 C101,270.625 102.588235,268 105.5,268 C108.411765,268 110,270.625 110,275 Z M103.911765,275 C103.911765,278.5 104.441176,279.666667 105.5,279.666667 C106.558824,279.666667 107.088235,278.5 107.088235,275 C107.088235,271.5 106.558824,270.333333 105.5,270.333333 C104.441176,270.333333 103.911765,271.5 103.911765,275 Z" id="Shape" fill-rule="nonzero"></path>
                    <path d="M110,295 C110,299.375 108.411765,302 105.5,302 C102.588235,302 101,299.375 101,295 C101,290.625 102.588235,288 105.5,288 C108.411765,288 110,290.625 110,295 Z M103.911765,295 C103.911765,298.5 104.441176,299.666667 105.5,299.666667 C106.558824,299.666667 107.088235,298.5 107.088235,295 C107.088235,291.5 106.558824,290.333333 105.5,290.333333 C104.441176,290.333333 103.911765,291.5 103.911765,295 Z" id="Shape" fill-rule="nonzero"></path>
                    <path d="M110,316 C110,320.375 108.411765,323 105.5,323 C102.588235,323 101,320.375 101,316 C101,311.625 102.588235,309 105.5,309 C108.411765,309 110,311.333333 110,316 Z M103.911765,316 C103.911765,319.5 104.441176,320.666667 105.5,320.666667 C106.558824,320.666667 107.088235,319.5 107.088235,316 C107.088235,312.5 106.558824,311.333333 105.5,311.333333 C104.441176,311.333333 103.911765,312.208333 103.911765,316 Z" id="Shape" fill-rule="nonzero"></path>
                    <polygon id="Path" points="105.375 344.695652 105.375 334.043478 102.458333 335.869565 101 333.73913 105.375 331 108 331 108 345 105.375 345"></polygon>
                    <polygon id="Path" points="105.375 425.695652 105.375 415.043478 102.458333 416.869565 101 414.73913 105.375 412 108 412 108 426 105.375 426"></polygon>
                    <path d="M110,437 C110,441.375 108.411765,444 105.5,444 C102.588235,444 101,441.375 101,437 C101,432.625 102.588235,430 105.5,430 C108.411765,430 110,432.625 110,437 Z M103.911765,437 C103.911765,440.5 104.441176,441.666667 105.5,441.666667 C106.558824,441.666667 107.088235,440.5 107.088235,437 C107.088235,433.5 106.558824,432.333333 105.5,432.333333 C104.441176,432.333333 103.911765,433.5 103.911765,437 Z" id="Shape" fill-rule="nonzero"></path>
                    <path d="M140,9.5 C140,15.4375 137.217391,19 132,19 C126.782609,19 124,15.734375 124,9.5 C124,3.265625 126.782609,0 132,0 C137.217391,0 140,3.265625 140,9.5 Z M129.217391,9.5 C129.217391,14.25 129.913043,15.734375 132,15.734375 C134.086957,15.734375 134.782609,14.25 134.782609,9.5 C134.782609,4.75 133.73913,3.265625 132,3.265625 C130.26087,3.265625 129.217391,4.75 129.217391,9.5 Z" id="Shape" fill-rule="nonzero"></path>
                    <polygon id="Path" points="129.181818 47.6885246 129.181818 33.0491803 125.636364 35.5409836 124 32.7377049 129.454545 29 133 29 133 48 129.181818 48"></polygon>
                    <path d="M140,63.5 C140,69.4375 137.217391,73 132,73 C126.782609,73 124,69.734375 124,63.5 C124,57.265625 126.782609,54 132,54 C137.217391,54 140,57.5625 140,63.5 Z M129.217391,63.5 C129.217391,68.25 129.913043,69.734375 132,69.734375 C134.086957,69.734375 134.782609,68.25 134.782609,63.5 C134.782609,58.75 133.73913,57.265625 132,57.265625 C130.26087,57.265625 129.217391,58.75 129.217391,63.5 Z" id="Shape" fill-rule="nonzero"></path>
                    <polygon id="Path" points="129.181818 102.688525 129.181818 88.0491803 125.636364 90.5409836 124 87.7377049 129.454545 84 133 84 133 103 129.181818 103"></polygon>
                    <path d="M140,117.5 C140,123.4375 137.217391,127 132,127 C126.782609,127 124,123.734375 124,117.5 C124,111.265625 126.782609,108 132,108 C137.217391,108 140,111.265625 140,117.5 Z M129.217391,117.5 C129.217391,122.25 129.913043,123.734375 132,123.734375 C134.086957,123.734375 134.782609,122.25 134.782609,117.5 C134.782609,112.75 133.73913,111.265625 132,111.265625 C130.26087,111.265625 129.217391,112.75 129.217391,117.5 Z" id="Shape" fill-rule="nonzero"></path>
                    <polygon id="Path" points="129.181818 156.688525 129.181818 142.04918 125.636364 144.540984 124 141.737705 129.454545 138 133 138 133 157 129.181818 157"></polygon>
                    <polygon id="Path" points="129.181818 183.688525 129.181818 169.04918 125.636364 171.540984 124 168.737705 129.454545 165 133 165 133 184 129.181818 184"></polygon>
                    <path d="M140,199.5 C140,205.4375 137.217391,209 132,209 C126.782609,209 124,205.734375 124,199.5 C124,193.265625 126.782609,190 132,190 C137.217391,190 140,193.5625 140,199.5 Z M129.217391,199.5 C129.217391,204.25 129.913043,205.734375 132,205.734375 C134.086957,205.734375 134.782609,204.25 134.782609,199.5 C134.782609,194.75 133.73913,193.265625 132,193.265625 C130.26087,193.265625 129.217391,194.75 129.217391,199.5 Z" id="Shape" fill-rule="nonzero"></path>
                    <polygon id="Path" points="129.181818 234.688525 129.181818 220.04918 125.636364 222.540984 124 219.737705 129.454545 216 133 216 133 235 129.181818 235"></polygon>
                    <path d="M60,419.5 C60,423.833333 58.5,426 55.5,426 C52.5,426 51,423.52381 51,419.5 C51,415.47619 52.5,413 55.5,413 C58.5,413 60,415.166667 60,419.5 Z M53.7,419.5 C53.7,422.904762 54.3,423.833333 55.5,423.833333 C56.7,423.833333 57.3,422.904762 57.3,419.5 C57.3,416.095238 56.7,415.166667 55.5,415.166667 C54.3,415.166667 53.7,416.095238 53.7,419.5 Z" id="Shape" fill-rule="nonzero"></path>
                    <path d="M60,438.5 C60,442.833333 58.5,445 55.5,445 C52.5,445 51,442.52381 51,438.5 C51,434.47619 52.5,432 55.5,432 C58.5,432 60,434.47619 60,438.5 Z M53.7,438.5 C53.7,441.904762 54.3,442.833333 55.5,442.833333 C56.7,442.833333 57.3,441.904762 57.3,438.5 C57.3,435.095238 56.7,434.166667 55.5,434.166667 C54.3,434.166667 53.7,435.404762 53.7,438.5 Z" id="Shape" fill-rule="nonzero"></path>
                    <path d="M60,456.5 C60,460.833333 58.5,463 55.5,463 C52.5,463 51,460.52381 51,456.5 C51,452.47619 52.5,450 55.5,450 C58.5,450 60,452.47619 60,456.5 Z M53.7,456.5 C53.7,459.904762 54.3,460.833333 55.5,460.833333 C56.7,460.833333 57.3,459.904762 57.3,456.5 C57.3,453.095238 56.7,452.166667 55.5,452.166667 C54.3,452.166667 53.7,453.095238 53.7,456.5 Z" id="Shape" fill-rule="nonzero"></path>
                    <polygon id="Path" points="83.2758621 106 83.2758621 95.1111111 79.5517241 96.9259259 78 94.8518519 83.5862069 92 87 92 87 106 83.2758621 106"></polygon>
                    <polygon id="Path" points="83.2758621 130 83.2758621 119.111111 79.5517241 120.925926 78 118.851852 83.5862069 116 87 116 87 130 83.2758621 130"></polygon>
                    <path d="M87,147.5 C87,153.607143 84.55,157 80,157 C75.45,157 73,153.607143 73,147.5 C73,141.392857 75.45,138 80,138 C84.55,138 87,141.392857 87,147.5 Z M77.2,147.5 C77.2,152.25 77.9,153.946429 79.65,153.946429 C81.4,153.946429 82.1,152.589286 82.1,147.5 C82.1,142.410714 81.4,141.053571 79.65,141.053571 C77.9,141.053571 77.2,142.75 77.2,147.5 Z" id="Shape" fill-rule="nonzero"></path>
                    <polygon id="Path" points="83.2758621 177 83.2758621 166.111111 79.5517241 167.925926 78 165.851852 83.5862069 163 87 163 87 177 83.2758621 177"></polygon>
                    <path d="M87,194.5 C87,200.607143 84.55,204 80,204 C75.45,204 73,200.607143 73,194.5 C73,188.392857 75.45,185 80,185 C84.55,185 87,188.392857 87,194.5 Z M77.2,194.5 C77.2,199.25 77.9,200.946429 79.65,200.946429 C81.4,200.946429 82.1,199.589286 82.1,194.5 C82.1,189.410714 81.4,188.053571 79.65,188.053571 C77.9,188.053571 77.2,189.410714 77.2,194.5 Z" id="Shape" fill-rule="nonzero"></path>
                    <path d="M87,219.5 C87,225.607143 84.55,229 80,229 C75.45,229 73,225.607143 73,219.5 C73,213.392857 75.45,210 80,210 C84.55,210 87,213.392857 87,219.5 Z M77.2,219.5 C77.2,224.25 77.9,225.946429 79.65,225.946429 C81.4,225.946429 82.1,224.589286 82.1,219.5 C82.1,214.410714 81.4,213.053571 79.65,213.053571 C77.9,213.053571 77.2,214.75 77.2,219.5 Z" id="Shape" fill-rule="nonzero"></path>
                    <path d="M87,244.5 C87,250.607143 84.55,254 80,254 C75.45,254 73,250.607143 73,244.5 C73,238.392857 75.45,235 80,235 C84.55,235 87,238.392857 87,244.5 Z M77.2,244.5 C77.2,249.25 77.9,250.946429 79.65,250.946429 C81.4,250.946429 82.1,249.589286 82.1,244.5 C82.1,239.410714 81.4,238.053571 79.65,238.053571 C77.9,238.053571 77.2,239.75 77.2,244.5 Z" id="Shape" fill-rule="nonzero"></path>
                    <polygon id="Path" points="83.2758621 274 83.2758621 263.111111 79.5517241 264.925926 78 262.851852 83.5862069 260 87 260 87 274 83.2758621 274"></polygon>
                    <path d="M87,291.5 C87,297.607143 84.55,301 80,301 C75.45,301 73,297.607143 73,291.5 C73,285.392857 75.45,282 80,282 C84.55,282 87,285.392857 87,291.5 Z M77.2,291.5 C77.2,296.25 77.9,297.946429 79.65,297.946429 C81.4,297.946429 82.1,296.589286 82.1,291.5 C82.1,286.410714 81.4,285.053571 79.65,285.053571 C77.9,285.053571 77.2,286.75 77.2,291.5 Z" id="Shape" fill-rule="nonzero"></path>
                    <polygon id="Path" points="83.2758621 321 83.2758621 310.111111 79.5517241 311.925926 78 309.851852 83.5862069 307 87 307 87 321"></polygon>
                    <path d="M87,338.5 C87,344.607143 84.55,348 80,348 C75.45,348 73,344.607143 73,338.5 C73,332.392857 75.45,329 80,329 C84.55,329 87,332.392857 87,338.5 Z M77.2,338.5 C77.2,343.25 77.9,344.946429 79.65,344.946429 C81.4,344.946429 82.1,343.589286 82.1,338.5 C82.1,333.410714 81.4,332.053571 79.65,332.053571 C77.9,332.053571 77.2,333.410714 77.2,338.5 Z" id="Shape" fill-rule="nonzero"></path>
                    <polygon id="Path" points="83.2758621 418 83.2758621 407.111111 79.5517241 408.925926 78 406.851852 83.5862069 404 87 404 87 418"></polygon>
                    <path d="M87,435.5 C87,441.607143 84.55,445 80,445 C75.45,445 73,441.607143 73,435.5 C73,429.392857 75.45,426 80,426 C84.55,426 87,429.392857 87,435.5 Z M77.2,435.5 C77.2,440.25 77.9,441.946429 79.65,441.946429 C81.4,441.946429 82.1,440.589286 82.1,435.5 C82.1,430.410714 81.4,429.053571 79.65,429.053571 C77.9,429.053571 77.2,430.75 77.2,435.5 Z" id="Shape" fill-rule="nonzero"></path>
                    <polygon id="Path" points="79.1818182 18.6885246 79.1818182 4.04918033 75.6363636 6.54098361 74 3.73770492 79.4545455 0 83 0 83 19 79.1818182 19"></polygon>
                    <path d="M89,34.5 C89,40.4375 86.2173913,44 81,44 C75.7826087,44 73,40.734375 73,34.5 C73,28.265625 75.7826087,25 81,25 C86.2173913,25 89,28.5625 89,34.5 Z M77.8695652,34.5 C77.8695652,39.25 78.5652174,40.734375 80.6521739,40.734375 C82.7391304,40.734375 83.4347826,39.25 83.4347826,34.5 C83.4347826,29.75 82.3913043,28.265625 80.6521739,28.265625 C78.9130435,28.265625 77.8695652,29.75 77.8695652,34.5 Z" id="Shape" fill-rule="nonzero"></path>
                    <polygon id="Path" points="57.1363636 13 57.1363636 2.925 54.2727273 4.55 53 2.6 57.4545455 0 60 0 60 13"></polygon>
                    <path d="M62,25.5 C62,29.8333333 60.5,32 57.5,32 C54.5,32 53,29.5238095 53,25.5 C53,21.4761905 54.5,19 57.5,19 C60.5,19 62,21.4761905 62,25.5 Z M55.7,25.5 C55.7,28.9047619 56.3,29.8333333 57.5,29.8333333 C58.7,29.8333333 59.3,28.9047619 59.3,25.5 C59.3,22.0952381 58.7,21.1666667 57.5,21.1666667 C56.3,21.1666667 55.7,22.4047619 55.7,25.5 Z" id="Shape" fill-rule="nonzero"></path>
                    <path d="M62,41.5 C62,45.8333333 60.5,48 57.5,48 C54.5,48 53,45.5238095 53,41.5 C53,37.4761905 54.5,35 57.5,35 C60.5,35 62,37.4761905 62,41.5 Z M55.7,41.5 C55.7,44.9047619 56.3,45.8333333 57.5,45.8333333 C58.7,45.8333333 59.3,44.9047619 59.3,41.5 C59.3,38.0952381 58.7,37.1666667 57.5,37.1666667 C56.3,37.1666667 55.7,38.0952381 55.7,41.5 Z" id="Shape" fill-rule="nonzero"></path>
                    <path d="M62,60.5 C62,64.8333333 60.5,67 57.5,67 C54.5,67 53,64.5238095 53,60.5 C53,56.4761905 54.5,54 57.5,54 C60.5,54 62,56.1666667 62,60.5 Z M55.7,60.5 C55.7,63.9047619 56.3,64.8333333 57.5,64.8333333 C58.7,64.8333333 59.3,63.9047619 59.3,60.5 C59.3,57.0952381 58.7,56.1666667 57.5,56.1666667 C56.3,56.1666667 55.7,57.0952381 55.7,60.5 Z" id="Shape" fill-rule="nonzero"></path>
                    <polygon id="Path" points="57.1363636 86 57.1363636 75.925 54.2727273 77.55 53 75.6 57.4545455 73 60 73 60 86"></polygon>
                    <path d="M62,96.5 C62,100.833333 60.5,103 57.5,103 C54.5,103 53,100.52381 53,96.5 C53,92.4761905 54.5,90 57.5,90 C60.5,90 62,92.1666667 62,96.5 Z M55.7,96.5 C55.7,99.9047619 56.3,100.833333 57.5,100.833333 C58.7,100.833333 59.3,99.9047619 59.3,96.5 C59.3,93.0952381 58.7,92.1666667 57.5,92.1666667 C56.3,92.1666667 55.7,93.0952381 55.7,96.5 Z" id="Shape" fill-rule="nonzero"></path>
                    <polygon id="Path" points="57.1363636 120 57.1363636 109.925 54.2727273 111.55 53 109.6 57.4545455 107 60 107 60 120"></polygon>
                    <path d="M62,131.5 C62,135.833333 60.5,138 57.5,138 C54.5,138 53,135.52381 53,131.5 C53,127.47619 54.5,125 57.5,125 C60.5,125 62,127.47619 62,131.5 Z M55.7,131.5 C55.7,134.904762 56.3,135.833333 57.5,135.833333 C58.7,135.833333 59.3,134.904762 59.3,131.5 C59.3,128.095238 58.7,127.166667 57.5,127.166667 C56.3,127.166667 55.7,128.404762 55.7,131.5 Z" id="Shape" fill-rule="nonzero"></path>
                    <polygon id="Path" points="57.1363636 157 57.1363636 146.925 54.2727273 148.55 53 146.6 57.4545455 144 60 144 60 157"></polygon>
                    <path d="M62,169.5 C62,173.833333 60.5,176 57.5,176 C54.5,176 53,173.52381 53,169.5 C53,165.47619 54.5,163 57.5,163 C60.5,163 62,165.166667 62,169.5 Z M55.7,169.5 C55.7,172.904762 56.3,173.833333 57.5,173.833333 C58.7,173.833333 59.3,172.904762 59.3,169.5 C59.3,166.095238 58.7,165.166667 57.5,165.166667 C56.3,165.166667 55.7,166.095238 55.7,169.5 Z" id="Shape" fill-rule="nonzero"></path>
                    <polygon id="Path" points="57.1363636 192 57.1363636 181.925 54.2727273 183.55 53 181.6 57.4545455 179 60 179 60 192"></polygon>
                    <path d="M62,204.5 C62,208.833333 60.5,211 57.5,211 C54.5,211 53,208.52381 53,204.5 C53,200.47619 54.5,198 57.5,198 C60.5,198 62,200.166667 62,204.5 Z M55.7,204.5 C55.7,207.904762 56.3,208.833333 57.5,208.833333 C58.7,208.833333 59.3,207.904762 59.3,204.5 C59.3,201.095238 58.7,200.166667 57.5,200.166667 C56.3,200.166667 55.7,201.095238 55.7,204.5 Z" id="Shape" fill-rule="nonzero"></path>
                    <path d="M62,222.5 C62,226.833333 60.5,229 57.5,229 C54.5,229 53,226.52381 53,222.5 C53,218.47619 54.5,216 57.5,216 C60.5,216 62,218.166667 62,222.5 Z M55.7,222.5 C55.7,225.904762 56.3,226.833333 57.5,226.833333 C58.7,226.833333 59.3,225.904762 59.3,222.5 C59.3,219.095238 58.7,218.166667 57.5,218.166667 C56.3,218.166667 55.7,219.095238 55.7,222.5 Z" id="Shape" fill-rule="nonzero"></path>
                    <polygon id="Path" points="57.1363636 247 57.1363636 236.925 54.2727273 238.55 53 236.6 57.4545455 234 60 234 60 247"></polygon>
                    <path d="M62,257.5 C62,261.833333 60.5,264 57.5,264 C54.5,264 53,261.52381 53,257.5 C53,253.47619 54.5,251 57.5,251 C60.5,251 62,253.47619 62,257.5 Z M55.7,257.5 C55.7,260.904762 56.3,261.833333 57.5,261.833333 C58.7,261.833333 59.3,260.904762 59.3,257.5 C59.3,254.095238 58.7,253.166667 57.5,253.166667 C56.3,253.166667 55.7,254.095238 55.7,257.5 Z" id="Shape" fill-rule="nonzero"></path>
                </g>
                <g id="Group-8-Copy" transform="translate(0.000000, 152.000000)" fill="#FFFFFF">
                    <polygon id="Path" opacity="0.5" points="24 19 0 5.22400558 0 0 24 13.7229588"></polygon>
                    <polygon id="Path" opacity="0.5" points="36 26 28 21.1302083 28 16 36 20.8697917"></polygon>
                    <polygon id="Path" opacity="0.5" points="44 32 38 28.8604472 38 24 44 27.1395528"></polygon>
                    <polygon id="Path" opacity="0.5" points="13 24 0 16.9338197 0 12 13 19.0724336"></polygon>
                    <polygon id="Path" opacity="0.5" points="32 36 16 26.4438822 16 21 32 30.5630175"></polygon>
                    <polygon id="Path" opacity="0.5" points="42 41 36 37.8628659 36 33 42 36.1432974"></polygon>
                    <polygon id="Path" opacity="0.5" points="51 46 45 42.8604472 45 38 51 41.1395528"></polygon>
                    <polygon id="Path" points="9 35 0 29.925 0 25 9 30.075"></polygon>
                    <polygon id="Path" points="16 39 13 37.1761949 13 32 16 33.8303655"></polygon>
                    <polygon id="Path" opacity="0.5" points="26 44 20 40.8604472 20 36 26 39.1395528"></polygon>
                    <polygon id="Path" opacity="0.5" points="35 60 0 40.9689963 0 36 35 55.0310037"></polygon>
                    <polygon id="Path" opacity="0.5" points="45 67 37 62.1268705 37 57 45 61.8731295"></polygon>
                    <polygon id="Path" opacity="0.5" points="9 58 0 52.9036669 0 48 9 53.1025482"></polygon>
                    <polygon id="Path" opacity="0.5" points="30 71 12 60.277522 12 55 30 65.7157807"></polygon>
                    <polygon id="Path" opacity="0.5" points="40 75 34 71.8567026 34 67 40 70.1371341"></polygon>
                    <polygon id="Path" opacity="0.5" points="19 76 0 64.4455285 0 59 19 70.5544715"></polygon>
                    <polygon id="Path" points="36 86 23 78.1245623 23 73 36 80.8754377"></polygon>
                    <polygon id="Path" opacity="0.5" points="49 93 40 87.9004975 40 83 49 88.0995025"></polygon>
                    <polygon id="Path" opacity="0.5" points="6 81 0 77.2378139 0 72 6 75.7621861"></polygon>
                    <polygon id="Path" opacity="0.5" points="18 86 10 81.1268705 10 76 18 80.8666233"></polygon>
                    <polygon id="Path" opacity="0.5" points="36 97 23 89.1271271 23 84 36 91.8208208"></polygon>
                    <polygon id="Path" opacity="0.5" points="19 100 0 88.3095521 0 83 19 94.6904479"></polygon>
                    <polygon id="Path" opacity="0.5" points="42 113 24 102.244592 24 97 42 107.755408"></polygon>
                    <polygon id="Path" points="51 117 45 113.862866 45 109 51 112.143297"></polygon>
                    <polygon id="Path" opacity="0.5" points="60 122 54 118.860447 54 114 60 117.139553"></polygon>
                    <polygon id="Path" opacity="0.5" points="12 107 0 100.187054 0 95 12 101.812946"></polygon>
                    <polygon id="Path" points="61 40.3071749 78 50 78 44.6928251 61 35"></polygon>
                    <polygon id="Path" opacity="0.5" points="64 54.9275664 77 62 77 57.0724336 64 50"></polygon>
                    <polygon id="Path" opacity="0.5" points="69 67.925 78 73 78 68.075 69 63"></polygon>
                    <polygon id="Path" opacity="0.5" points="64 78.1659102 77 86 77 80.827534 64 73"></polygon>
                    <polygon id="Path" opacity="0.5" points="69 92.9004975 78 98 78 93.0995025 69 88"></polygon>
                    <polygon id="Path" opacity="0.5" points="65 102.187054 77 109 77 103.812946 65 97"></polygon>
                    <polygon id="Path" opacity="0.5" points="71 117.237814 77 121 77 115.762186 71 112"></polygon>
                    <polygon id="Path" opacity="0.5" points="65 125.011129 77 132 77 126.988871 65 120"></polygon>
                    <polygon id="Path" opacity="0.5" points="65 138.184211 77 145 77 139.809211 65 133"></polygon>
                    <polygon id="Path" opacity="0.5" points="21 111 16 108.14845 16 103 21 105.858075"></polygon>
                    <polygon id="Path" opacity="0.5" points="35 120 24 113.861469 24 109 35 115.138531"></polygon>
                    <polygon id="Path" opacity="0.5" points="115 72 91 58.2240056 91 53 115 66.7759944"></polygon>
                    <polygon id="Path" opacity="0.5" points="127 78 119 73.17892 119 68 127 72.8731295"></polygon>
                    <polygon id="Path" points="137 84 131 80.8567026 131 76 137 79.1432974"></polygon>
                    <polygon id="Path" opacity="0.5" points="105 76 92 68.9275664 92 64 105 71.0224075"></polygon>
                    <polygon id="Path" opacity="0.5" points="124 88 108 78.4369825 108 73 124 82.5561178"></polygon>
                    <polygon id="Path" points="132 94 126 90.8567026 126 86 132 89.1371341"></polygon>
                    <polygon id="Path" opacity="0.5" points="142 99 136 95.8868217 136 91 142 94.1131783"></polygon>
                    <polygon id="Path" opacity="0.5" points="100 86 91 80.9036669 91 76 100 81.0963331"></polygon>
                    <polygon id="Path" opacity="0.5" points="108 91 105 89.1311628 105 84 108 85.8167442"></polygon>
                    <polygon id="Path" opacity="0.5" points="116 96 110 92.8567026 110 88 116 91.1432974"></polygon>
                    <polygon id="Path" opacity="0.5" points="125 112 92 92.9689963 92 88 125 107.024698"></polygon>
                    <polygon id="Path" opacity="0.5" points="138 120 130 115.130208 130 110 138 114.869792"></polygon>
                    <polygon id="Path" opacity="0.5" points="100 111 91 105.925 91 101 100 106.075"></polygon>
                    <polygon id="Path" opacity="0.5" points="123 123 105 112.279732 105 107 123 117.720268"></polygon>
                    <polygon id="Path" opacity="0.5" points="131 128 125 124.862866 125 120 131 123.143297"></polygon>
                    <polygon id="Path" points="111 128 92 116.450223 92 111 111 122.549777"></polygon>
                    <polygon id="Path" opacity="0.5" points="128 138 115 130.127127 115 125 128 132.872873"></polygon>
                    <polygon id="Path" opacity="0.5" points="140 145 131 139.92817 131 135 140 140.078076"></polygon>
                    <polygon id="Path" opacity="0.5" points="97 133 91 129.241685 91 124 97 127.758315"></polygon>
                    <polygon id="Path" opacity="0.5" points="109 139 101 134.133377 101 129 109 133.873129"></polygon>
                    <polygon id="Path" points="127 149 114 141.151683 114 136 127 143.854847"></polygon>
                    <polygon id="Path" opacity="0.5" points="111 152 92 140.324324 92 135 111 146.675676"></polygon>
                    <polygon id="Path" opacity="0.5" points="132 164 114 153.249064 114 148 132 158.757588"></polygon>
                    <polygon id="Path" opacity="0.5" points="142 170 136 166.856703 136 162 142 165.143297"></polygon>
                    <polygon id="Path" opacity="0.5" points="152 174 146 170.886822 146 166 152 169.113178"></polygon>
                    <polygon id="Path" opacity="0.5" points="104 159 93 152.190789 93 147 104 153.815789"></polygon>
                    <polygon id="Path" points="152 92.3028264 169 102 169 96.6971736 152 87"></polygon>
                    <polygon id="Path" opacity="0.5" points="155 106.930136 168 114 168 109.069864 155 102"></polygon>
                    <polygon id="Path" opacity="0.5" points="159 119.900498 168 125 168 120.049751 159 115"></polygon>
                    <polygon id="Path" opacity="0.5" points="155 130.168517 168 138 168 132.831483 155 125"></polygon>
                    <polygon id="Path" opacity="0.5" points="159 144.897452 168 150 168 145.096333 159 140"></polygon>
                    <polygon id="Path" opacity="0.5" points="157 155.164391 168 162 168 156.783179 157 150"></polygon>
                    <polygon id="Path" opacity="0.5" points="162 170.241685 168 174 168 168.758315 162 165"></polygon>
                    <polygon id="Path" opacity="0.5" points="156 178.032464 168 185 168 179.96115 156 173"></polygon>
                    <polygon id="Path" opacity="0.5" points="157 191.164391 168 198 168 192.783179 157 186"></polygon>
                    <polygon id="Path" points="111 164 106 161.141925 106 156 111 158.858075"></polygon>
                    <polygon id="Path" opacity="0.5" points="127 172 116 165.86491 116 161 127 167.141256"></polygon>
                    <polygon id="Path" opacity="0.5" points="24 126 0 112.230635 0 107 24 120.775994"></polygon>
                    <polygon id="Path" opacity="0.5" points="36 133 28 128.157068 28 123 36 127.842932"></polygon>
                    <polygon id="Path" opacity="0.5" points="44 138 38 134.860447 38 130 44 133.139553"></polygon>
                    <polygon id="Path" opacity="0.5" points="13 131 0 123.930136 0 119 13 126.069864"></polygon>
                    <polygon id="Path" opacity="0.5" points="32 142 16 132.439485 16 127 32 136.560515"></polygon>
                    <polygon id="Path" opacity="0.5" points="42 147 36 143.862866 36 139 42 142.143297"></polygon>
                    <polygon id="Path" opacity="0.5" points="51 152 45 148.886822 45 144 51 147.106977"></polygon>
                    <polygon id="Path" opacity="0.5" points="9 141 0 135.900498 0 131 9 136.099502"></polygon>
                    <polygon id="Path" opacity="0.5" points="16 146 13 144.188082 13 139 16 140.86406"></polygon>
                    <polygon id="Path" opacity="0.5" points="26 150 20 146.860447 20 142 26 145.139553"></polygon>
                    <polygon id="Path" opacity="0.5" points="35 166 0 146.975302 0 142 35 161.031004"></polygon>
                    <polygon id="Path" opacity="0.5" points="45 174 37 169.133377 37 164 45 168.873129"></polygon>
                    <polygon id="Path" opacity="0.5" points="9 165 0 159.925 0 155 9 160.075"></polygon>
                    <polygon id="Path" opacity="0.5" points="30 177 12 166.277522 12 161 30 171.722478"></polygon>
                    <polygon id="Path" opacity="0.5" points="40 182 34 178.856703 34 174 40 177.143297"></polygon>
                    <polygon id="Path" opacity="0.5" points="19 182 0 170.445528 0 165 19 176.554472"></polygon>
                    <polygon id="Path" opacity="0.5" points="36 192 23 184.131066 23 179 36 186.875438"></polygon>
                    <polygon id="Path" opacity="0.5" points="49 199 40 193.921924 40 189 49 194.07183"></polygon>
                    <polygon id="Path" opacity="0.5" points="6 187 0 183.244461 0 178 6 181.762186"></polygon>
                    <polygon id="Path" opacity="0.5" points="18 193 10 188.126871 10 183 18 187.873129"></polygon>
                    <polygon id="Path" opacity="0.5" points="36 203 23 195.147739 23 190 36 197.852261"></polygon>
                    <polygon id="Path" opacity="0.5" points="19 206 0 194.324324 0 189 19 200.668919"></polygon>
                    <polygon id="Path" opacity="0.5" points="42 219 24 208.227197 24 203 42 213.719735"></polygon>
                    <polygon id="Path" opacity="0.5" points="51 223 45 219.860447 45 215 51 218.139553"></polygon>
                    <polygon id="Path" opacity="0.5" points="60 229 54 225.886822 54 221 60 224.106977"></polygon>
                    <polygon id="Path" opacity="0.5" points="12 213 0 206.187054 0 201 12 207.812946"></polygon>
                    <polygon id="Path" opacity="0.5" points="61 146.302826 78 156 78 150.690444 61 141"></polygon>
                    <polygon id="Path" opacity="0.5" points="64 160.93382 77 168 77 163.072434 64 156"></polygon>
                    <polygon id="Path" opacity="0.5" points="69 173.900498 78 179 78 174.099502 69 169"></polygon>
                    <polygon id="Path" opacity="0.5" points="64 184.218356 77 192 77 186.83409 64 179"></polygon>
                    <polygon id="Path" opacity="0.5" points="69 197.950249 78 203 78 198.099502 69 193"></polygon>
                    <polygon id="Path" opacity="0.5" points="65 208.161572 77 215 77 209.831878 65 203"></polygon>
                    <polygon id="Path" opacity="0.5" points="71 223.244461 77 227 77 221.762186 71 218"></polygon>
                    <polygon id="Path" opacity="0.5" points="65 232.032464 77 239 77 233.967536 65 227"></polygon>
                    <polygon id="Path" opacity="0.5" points="65 244.168122 77 251 77 245.831878 65 239"></polygon>
                    <polygon id="Path" opacity="0.5" points="21 219 16 216.141925 16 211 21 213.85155"></polygon>
                    <polygon id="Path" opacity="0.5" points="35 226 24 219.861469 24 215 35 221.138531"></polygon>
                    <polygon id="Path" opacity="0.5" points="44 267 25 255.445528 25 250 44 261.554472"></polygon>
                    <polygon id="Path" opacity="0.5" points="57 274 50 269.89441 50 265 57 269.10559"></polygon>
                    <polygon id="Path" opacity="0.5" points="115 179 91 165.238628 91 160 115 173.761372"></polygon>
                    <polygon id="Path" opacity="0.5" points="127 185 119 180.133377 119 175 127 179.873129"></polygon>
                    <polygon id="Path" opacity="0.5" points="137 190 131 186.856703 131 182 137 185.143297"></polygon>
                    <polygon id="Path" opacity="0.5" points="105 184 92 176.927566 92 172 105 179.072434"></polygon>
                    <polygon id="Path" opacity="0.5" points="124 195 108 185.436983 108 180 124 189.563017"></polygon>
                    <polygon id="Path" opacity="0.5" points="132 200 126 196.856703 126 192 132 195.143297"></polygon>
                    <polygon id="Path" opacity="0.5" points="142 206 136 202.862866 136 198 142 201.143297"></polygon>
                    <polygon id="Path" opacity="0.5" points="100 193 91 187.903667 91 183 100 188.102548"></polygon>
                    <polygon id="Path" opacity="0.5" points="108 198 105 196.169634 105 191 108 192.830366"></polygon>
                    <polygon id="Path" opacity="0.5" points="116 202 110 198.886822 110 194 116 197.113178"></polygon>
                    <polygon id="Path" opacity="0.5" points="125 219 92 199.968996 92 195 125 214.024698"></polygon>
                    <polygon id="Path" opacity="0.5" points="138 226 130 221.130208 130 216 138 220.869792"></polygon>
                    <polygon id="Path" opacity="0.5" points="100 217 91 211.897452 91 207 100 212.096333"></polygon>
                    <polygon id="Path" opacity="0.5" points="123 230 105 219.262104 105 214 123 224.737896"></polygon>
                    <polygon id="Path" opacity="0.5" points="131 235 125 231.860447 125 227 131 230.139553"></polygon>
                    <polygon id="Path" opacity="0.5" points="111 235 92 223.445528 92 218 111 229.554472"></polygon>
                    <polygon id="Path" opacity="0.5" points="128 244 115 236.127127 115 231 128 238.872873"></polygon>
                    <polygon id="Path" opacity="0.5" points="140 251 131 245.900498 131 241 140 246.099502"></polygon>
                    <polygon id="Path" opacity="0.5" points="97 239 91 235.241685 91 230 97 233.7051"></polygon>
                    <polygon id="Path" opacity="0.5" points="109 246 101 241.130208 101 236 109 240.869792"></polygon>
                    <polygon id="Path" opacity="0.5" points="127 256 114 248.147739 114 243 127 250.852261"></polygon>
                    <polygon id="Path" opacity="0.5" points="111 259 92 247.331081 92 242 111 253.675676"></polygon>
                    <polygon id="Path" opacity="0.5" points="132 271 114 260.231662 114 255 132 265.774969"></polygon>
                    <polygon id="Path" opacity="0.5" points="142 277 136 273.906009 136 269 142 272.143297"></polygon>
                    <polygon id="Path" opacity="0.5" points="152 282 146 278.862866 146 274 152 277.143297"></polygon>
                    <polygon id="Path" opacity="0.5" points="104 265 93 258.164391 93 253 104 259.783179"></polygon>
                    <polygon id="Path" opacity="0.5" points="152 199.356662 169 209 169 203.697174 152 194"></polygon>
                    <polygon id="Path" opacity="0.5" points="155 212.977592 168 220 168 215.06618 155 208"></polygon>
                    <polygon id="Path" opacity="0.5" points="159 227.900498 168 233 168 228.099502 159 223"></polygon>
                    <polygon id="Path" opacity="0.5" points="155 236.189463 168 244 168 238.810537 155 231"></polygon>
                    <polygon id="Path" opacity="0.5" points="159 251.925 168 257 168 252.075 159 247"></polygon>
                    <polygon id="Path" opacity="0.5" points="157 262.216821 168 269 168 263.835609 157 257"></polygon>
                    <polygon id="Path" opacity="0.5" points="162 276.241685 168 280 168 274.758315 162 271"></polygon>
                    <polygon id="Path" opacity="0.5" points="156 285.032464 168 292 168 286.967536 156 280"></polygon>
                    <polygon id="Path" opacity="0.5" points="157 296.216821 168 303 168 297.835609 157 291"></polygon>
                    <polygon id="Path" opacity="0.5" points="111 271 106 268.10859 106 263 111 265.89141"></polygon>
                    <polygon id="Path" opacity="0.5" points="127 278 116 271.86491 116 267 127 273.141256"></polygon>
                    <polygon id="Path" opacity="0.5" points="136 319 117 307.445528 117 302 136 313.554472"></polygon>
                    <polygon id="Path" opacity="0.5" points="149 326 142 321.900621 142 317 149 321.10559"></polygon>
                </g>
                <g id="Group-7" transform="translate(175.500000, 0.500000)">
                    <g id="Group-3" transform="translate(4.500000, 0.500000)">
                        <mask id="mask-7" fill="white">
                            <use xlink:href="#path-6"></use>
                        </mask>
                        <g id="Clip-2"></g>
                        <path d="M62.4531469,3.58641379 L51.193007,10.0071034 C49.3356643,8.28727586 47.2461538,6.79675862 45.1566434,5.6502069 C38.6547832,1.98124138 32.8517483,1.75193103 28.6727273,4.15968966 L0.58041958,20.2114138 L22.9834545,27.3200345 C26.0027972,39.7027931 34.7090909,52.4295172 45.0393986,58.276931 L126.067133,104.253655 L132.103497,132.917448 L159.731469,117.095034 L159.847552,117.095034 C163.213986,115.14475 165.303497,110.903655 165.303497,104.941586 C165.303497,92.9027931 156.713287,78.3415862 146.14965,72.2648621 C143.47972,70.7743448 140.80979,69.8571034 138.488112,69.7424483 L138.488112,69.1691724 C138.488112,59.7674483 131.755245,48.301931 123.513287,43.6022155 C121.191608,42.3398621 119.102098,41.7665862 117.128671,41.651931 C111.324476,26.6321034 100.296503,12.4148621 87.6433566,5.19158621 C82.1955385,2.0637931 77.0251608,0.573275862 72.4502937,0.574422414 C68.6427413,0.574422414 65.2472867,1.60631897 62.4531469,3.58641379" id="Fill-1" fill="url(#linearGradient-8)" mask="url(#mask-7)"></path>
                    </g>
                    <g id="Group-6" transform="translate(0.500000, 16.500000)">
                        <mask id="mask-10" fill="white">
                            <use xlink:href="#path-9"></use>
                        </mask>
                        <g id="Clip-5"></g>
                        <path d="M32.9822581,13.7796505 C29.983871,10.3427573 26.5241935,7.47867961 22.9491935,5.41654369 C10.2637097,-1.80093204 0,4.04178641 0,18.4767379 C0,33.0262524 10.2637097,50.6689709 22.9491935,57.8864466 L123.279839,115.397126 C126.30129,117.145359 129.157831,117.98167 131.697234,118 L131.869065,118 C138.057274,117.954175 142.308065,113.002757 142.308065,104.514777 C142.308065,92.4856505 133.774194,77.9361359 123.279839,71.8642913 C120.627419,70.3738252 117.973847,69.4573204 115.668548,69.3427573 L115.668548,68.7710874 C115.668548,59.375767 108.979839,47.9194563 100.791935,43.2223689 C98.4854839,41.9621748 96.4096774,41.3893592 94.4491935,41.2747961 C88.6830645,26.2670291 77.7274194,12.0623495 65.1572581,4.84372816 C59.799371,1.7551068 54.7182581,0.295572816 50.2045323,0.296718447 C41.9912581,0.296718447 35.6612016,5.13013592 32.9822581,13.7796505" id="Fill-4" fill="url(#linearGradient-11)" mask="url(#mask-10)"></path>
                    </g>
                </g>
            </g>
        </g>
    </g>
</svg>