<?xml version="1.0" encoding="UTF-8"?>
<!DOCTYPE svg PUBLIC "-//W3C//DTD SVG 1.1//EN" "http://www.w3.org/Graphics/SVG/1.1/DTD/svg11.dtd">
<!-- Creator: CorelDRAW X8 -->
<svg xmlns="http://www.w3.org/2000/svg" xml:space="preserve" width="465.667mm" height="211.667mm" version="1.1" style="shape-rendering:geometricPrecision; text-rendering:geometricPrecision; image-rendering:optimizeQuality; fill-rule:evenodd; clip-rule:evenodd"
viewBox="0 0 46567 21167"
 xmlns:xlink="http://www.w3.org/1999/xlink">
 <defs>
  <style type="text/css">
   <![CDATA[
    .fil0 {fill:#30B9DB}
    .fil1 {fill:#378BBA}
    .fil2 {fill:#30B9DB;fill-rule:nonzero}
   ]]>
  </style>
 </defs>
 <g id="Layer_x0020_1">
  <metadata id="CorelCorpID_0Corel-Layer"/>
  <polygon class="fil0" points="18515,10557 10992,2767 10992,6711 14752,10560 10992,14453 10989,18401 "/>
  <polygon class="fil1" points="2831,10557 10354,2767 10354,6711 6594,10560 10354,14453 10356,18401 "/>
  <polygon class="fil1" points="2831,2765 5699,2765 5699,6682 2831,9707 "/>
  <polygon class="fil0" points="11831,2766 18494,2766 18494,5650 14594,5650 "/>
  <polygon class="fil2" points="22894,9204 22894,6469 23349,6469 23349,7642 25056,6469 25724,6469 23741,7778 25941,9204 25177,9204 23349,7975 23349,9204 "/>
  <path id="1" class="fil2" d="M28052 8181l1474 0 -739 -1399 -735 1399zm-992 1023l1494 -2735 489 0 1521 2735 -503 0 -349 -673 -1852 0 -349 673 -451 0z"/>
  <path id="2" class="fil2" d="M31992 9204l0 -2735 287 0 2046 1830c47,41 96,91 149,150 52,58 106,123 162,193 -14,-87 -24,-179 -31,-275 -7,-96 -11,-228 -11,-397l0 -1501 419 0 0 2735 -256 0 -2101 -1902c-10,-9 -26,-22 -46,-41 -104,-93 -181,-182 -230,-266 10,82 17,170 23,265 5,94 7,205 7,332l0 1612 -418 0z"/>
  <polygon id="3" class="fil2" points="38036,6840 38036,9204 37580,9204 37580,6840 36329,6840 36329,6469 39292,6469 39292,6840 "/>
  <path id="4" class="fil2" d="M41022 8823l2263 0 0 -1983 -2263 0 0 1983zm-456 -1709c0,-247 44,-417 133,-508 90,-91 259,-137 509,-137l1891 0c247,0 415,45 503,135 90,91 134,261 134,510l0 1442c0,253 -44,424 -134,513 -88,90 -256,135 -503,135l-1891 0c-250,0 -419,-46 -509,-137 -89,-91 -133,-262 -133,-511l0 -1442z"/>
  <path id="5" class="fil2" d="M25226 12424l-1935 0 0 763 1723 0c244,0 411,46 501,135 90,90 135,260 135,510l0 308c0,252 -44,424 -133,513 -88,90 -256,135 -503,135l-1597 0c-247,0 -416,-45 -506,-136 -89,-91 -134,-261 -134,-512l0 -75 424 -98 0 440 2035 0 0 -822 -1717 0c-248,0 -416,-45 -504,-136 -88,-90 -132,-261 -132,-512l0 -237c0,-250 44,-421 132,-511 88,-91 256,-136 504,-136l1456 0c244,0 412,44 504,133 93,89 139,244 139,467l0 57 -392 112 0 -398z"/>
  <polygon id="6" class="fil2" points="28093,12424 28093,14788 27637,14788 27637,12424 26386,12424 26386,12053 29349,12053 29349,12424 "/>
  <path id="7" class="fil2" d="M30573 12053l0 2354 1993 0 0 -2354 451 0 0 2087c0,252 -44,424 -133,513 -90,90 -258,135 -504,135l-1623 0c-247,0 -416,-46 -505,-137 -89,-92 -135,-262 -135,-511l0 -2087 456 0z"/>
  <path id="8" class="fil2" d="M35884 12424l-985 0 0 1983 985 0c443,0 757,-78 940,-234 183,-154 274,-411 274,-771 0,-346 -93,-596 -280,-749 -186,-153 -498,-229 -934,-229zm64 -371c252,0 461,17 627,50 167,34 308,88 424,162 175,116 313,275 415,476 101,203 151,423 151,663 0,255 -50,485 -148,690 -100,204 -239,365 -418,482 -113,73 -252,126 -420,160 -167,35 -377,52 -631,52l-1505 0 0 -2735 1505 0z"/>
  <polygon id="9" class="fil2" points="38727,14788 38727,12053 39183,12053 39183,14788 "/>
  <path id="10" class="fil2" d="M41022 14407l2263 0 0 -1983 -2263 0 0 1983zm-456 -1709c0,-247 44,-417 133,-508 90,-91 259,-137 509,-137l1891 0c247,0 415,45 503,135 90,91 134,261 134,510l0 1442c0,252 -44,424 -134,513 -88,90 -256,135 -503,135l-1891 0c-250,0 -419,-46 -509,-138 -89,-91 -133,-261 -133,-510l0 -1442z"/>
 </g>
</svg>
