<?xml version="1.0" encoding="UTF-8"?>
<svg width="743px" height="583px" viewBox="0 0 743 583" version="1.1" xmlns="http://www.w3.org/2000/svg" xmlns:xlink="http://www.w3.org/1999/xlink">
    <!-- Generator: Sketch 52.6 (67491) - http://www.bohemiancoding.com/sketch -->
    <title>it consulting</title>
    <desc>Created with Sketch.</desc>
    <defs>
        <path d="M165.514928,360.276997 L193.652983,377.210174 C194.138122,377.578313 194.501976,378.191879 194.501976,378.805444 C194.501976,379.540495 194.259407,380.032575 193.652983,380.400714 L165.029789,397.825971 L166.363921,400.034806 L195.107187,382.609549 C196.442532,381.750558 197.17024,380.400714 197.17024,378.805444 C197.048956,377.210174 196.321247,375.86033 194.987115,375.001339 L166.849059,358.066934 L165.514928,360.276997 Z" id="path-1"></path>
        <linearGradient x1="100%" y1="53.6316923%" x2="0%" y2="53.6316923%" id="linearGradient-3">
            <stop stop-color="#247EBF" offset="0%"></stop>
            <stop stop-color="#2AE7FC" offset="100%"></stop>
        </linearGradient>
        <path d="M166.121351,429.73137 L216.938437,459.427934 C219.242847,460.777778 221.912324,461.391343 224.459303,461.391343 C227.006282,461.391343 229.674546,460.777778 231.736387,459.427934 L282.069547,430.098282 L280.8567,427.890674 L230.523539,457.220326 C226.763713,459.427934 222.033609,459.427934 218.152498,457.220326 L167.334198,427.522535 L166.121351,429.73137 Z" id="path-4"></path>
        <path d="M119.548017,401.752789 C113.96892,405.066042 110.936802,409.361 110.936802,414.146809 C110.936802,418.933846 113.96892,423.35029 119.548017,426.542057 C125.00583,429.73137 132.282913,431.325413 139.438712,431.325413 C146.715795,431.325413 153.871594,429.73137 159.329407,426.542057 C164.908504,423.228804 167.940622,418.933846 167.940622,414.146809 C167.940622,409.361 164.908504,404.943329 159.329407,401.752789 C153.871594,398.562249 146.655153,396.966979 139.438712,396.966979 C132.222271,396.966979 125.00583,398.562249 119.548017,401.752789 M120.762077,424.455935 C116.03076,421.632307 113.362496,418.073628 113.362496,414.27075 C113.362496,410.465417 116.03076,406.906738 120.762077,404.084337 C125.976108,401.01651 132.646767,399.543954 139.438712,399.543954 C146.230656,399.543954 152.901316,401.01651 157.994062,404.084337 C162.725379,406.906738 165.393643,410.465417 165.393643,414.27075 C165.393643,418.073628 162.725379,421.632307 157.994062,424.455935 C152.840674,427.461178 146.109372,428.964413 139.37807,428.964413 C132.646767,428.964413 125.915465,427.461178 120.762077,424.455935 M128.401802,406.906738 C125.128327,408.870147 123.429128,411.324409 123.429128,414.146809 C123.429128,416.967983 125.247186,419.546185 128.401802,421.386881 C131.43392,423.228804 135.436316,424.087796 139.438712,424.087796 C143.441108,424.087796 147.443504,423.228804 150.475622,421.386881 C153.749096,419.422245 155.448295,416.967983 155.448295,414.146809 C155.448295,411.324409 153.629025,408.748661 150.475622,406.906738 C147.443504,405.127398 143.441108,404.237729 139.438712,404.237729 C135.436316,404.237729 131.43392,405.127398 128.401802,406.906738 M129.614649,419.300759 C127.31024,417.828202 125.976108,416.110219 125.976108,414.27075 C125.976108,412.428826 127.188955,410.58813 129.614649,409.237059 C132.404198,407.643017 135.921455,406.906738 139.438712,406.906738 C142.955969,406.906738 146.594511,407.643017 149.14149,409.237059 C151.4459,410.710843 152.780032,412.428826 152.780032,414.27075 C152.780032,416.110219 151.567184,417.950915 149.14149,419.300759 C146.473226,420.896029 142.925648,421.693664 139.37807,421.693664 C135.830491,421.693664 132.282913,420.896029 129.614649,419.300759" id="path-6"></path>
        <path d="M112.513503,397.704485 C105.115135,401.999442 100.991455,407.88967 100.991455,414.146809 C100.991455,420.405176 105.115135,426.295404 112.513503,430.590361 C120.033156,434.885319 129.735934,437.094154 139.438712,437.094154 C149.14149,437.094154 158.965552,435.008032 166.242636,430.590361 C173.641004,426.295404 177.764685,420.405176 177.764685,414.146809 C177.764685,407.88967 173.641004,401.999442 166.242636,397.704485 C158.844268,393.346943 149.111169,391.168786 139.37807,391.168786 C129.64497,391.168786 119.911871,393.346943 112.513503,397.704485 M113.847635,428.504239 C107.29826,424.577421 103.659718,419.546185 103.659718,414.27075 C103.659718,408.870147 107.29826,403.838911 113.847635,399.912093 C120.882149,395.862561 130.221073,393.776439 139.438712,393.776439 C148.777636,393.776439 157.994062,395.862561 165.029789,400.034806 C171.579164,403.961624 175.217705,408.99286 175.217705,414.27075 C175.217705,419.546185 171.579164,424.700134 165.029789,428.504239 C157.995275,432.615127 148.716993,434.670571 139.438712,434.670571 C130.160431,434.670571 120.882149,432.615127 113.847635,428.504239" id="path-8"></path>
        <path d="M29.0696134,262.473449 L-0.887713387,280.021419 C-2.22184535,280.881638 -3.07083841,282.107541 -3.07083841,283.334672 C-3.07083841,284.43909 -2.34313007,285.543507 -1.25156756,286.157073 L142.833471,370.215529 C143.804962,370.829094 145.017809,371.07452 146.230656,371.07452 C147.686073,371.07452 149.262775,370.706381 150.475622,370.094043 L180.432949,352.544846 C181.76708,351.685855 182.616074,350.459951 182.616074,349.23282 C182.616074,348.127175 181.888365,347.022758 180.796803,346.407965 L36.710551,262.228023 C35.7536145,261.658635 34.534703,261.380076 33.272129,261.380076 C31.8167124,261.380076 30.303079,261.750669 29.0696134,262.473449 M144.168816,367.88398 L0.0825644023,283.702811 C-0.160005045,283.457385 -0.282502616,283.334672 -0.282502616,283.334672 C-0.282502616,283.211959 -0.160005045,282.84382 0.567703297,282.47568 L30.52503,264.927711 C31.9804467,264.068719 34.1635718,263.946006 35.376419,264.682285 L179.462671,348.863454 C179.706453,349.10888 179.825312,349.23282 179.825312,349.23282 C179.825312,349.354306 179.706453,349.722445 178.977532,350.090585 L149.020205,367.638554 C148.20881,368.117135 147.170613,368.36747 146.201548,368.36747 C145.432603,368.36747 144.704895,368.20917 144.168816,367.88398" id="path-10"></path>
        <path d="M237.436769,395.371709 C235.738783,396.353414 234.768505,398.192883 234.768505,400.158746 C234.768505,402.120928 235.738783,403.961624 237.436769,404.943329 L535.918474,579.441321 C540.040941,581.772869 544.649761,583 549.259793,583 C553.868613,583 558.597504,581.772869 562.722398,579.318608 L735.553129,478.325747 C737.252328,477.344043 738.221393,475.50212 738.221393,473.539938 C738.221393,471.576528 737.252328,469.735832 735.553129,468.7529 L424.336528,287.016064 L423.608819,286.647925 L237.436769,395.371709 Z M537.252606,576.987059 L238.769688,402.61178 C237.921908,402.120928 237.436769,401.261937 237.436769,400.280232 C237.436769,399.298527 237.921908,398.439536 238.769688,397.948684 L423.608819,289.961178 L734.097712,471.331102 C734.946705,471.821954 735.431844,472.680946 735.431844,473.662651 C735.431844,474.643128 734.946705,475.50212 734.097712,475.994199 L561.266981,576.987059 C557.567797,579.134538 553.413795,580.208278 549.259793,580.208278 C545.105791,580.208278 540.95179,579.134538 537.252606,576.987059 Z" id="path-12"></path>
        <linearGradient x1="99.9987903%" y1="49.9999889%" x2="0.00120970258%" y2="49.9999889%" id="linearGradient-14">
            <stop stop-color="#42E8E0" offset="0%"></stop>
            <stop stop-color="#41E3DE" offset="17%"></stop>
            <stop stop-color="#3DD5DA" offset="38%"></stop>
            <stop stop-color="#36BDD2" offset="60%"></stop>
            <stop stop-color="#2D9CC8" offset="83%"></stop>
            <stop stop-color="#247EBE" offset="100%"></stop>
        </linearGradient>
        <linearGradient x1="99.9986456%" y1="49.9986739%" x2="0.000245354527%" y2="49.9986739%" id="linearGradient-15">
            <stop stop-color="#C0BFF6" offset="0%"></stop>
            <stop stop-color="#C5C4F7" offset="29%"></stop>
            <stop stop-color="#D3D2F9" offset="64%"></stop>
            <stop stop-color="#E9E9FD" offset="100%"></stop>
        </linearGradient>
        <linearGradient x1="100.017692%" y1="50%" x2="1.57358084e-13%" y2="50%" id="linearGradient-16">
            <stop stop-color="#5761D7" offset="0%"></stop>
            <stop stop-color="#5C66D9" offset="18%"></stop>
            <stop stop-color="#6A73DF" offset="39%"></stop>
            <stop stop-color="#8289E8" offset="61%"></stop>
            <stop stop-color="#A3A7F5" offset="85%"></stop>
            <stop stop-color="#BCBEFF" offset="100%"></stop>
        </linearGradient>
        <linearGradient x1="100%" y1="50%" x2="4.54632496e-14%" y2="50%" id="linearGradient-17">
            <stop stop-color="#52B0E6" offset="0%"></stop>
            <stop stop-color="#57B3E7" offset="19%"></stop>
            <stop stop-color="#65BBEB" offset="41%"></stop>
            <stop stop-color="#7DC9F2" offset="66%"></stop>
            <stop stop-color="#9EDDFB" offset="91%"></stop>
            <stop stop-color="#ACE5FF" offset="100%"></stop>
        </linearGradient>
        <linearGradient x1="66.402425%" y1="50%" x2="-33.5977454%" y2="50%" id="linearGradient-18">
            <stop stop-color="#BFE5FF" offset="0%"></stop>
            <stop stop-color="#C1EAFF" offset="39%"></stop>
            <stop stop-color="#C5F8FE" offset="84%"></stop>
            <stop stop-color="#C7FFFD" offset="100%"></stop>
        </linearGradient>
        <linearGradient x1="-2689.47403%" y1="-430.753877%" x2="-2589.47403%" y2="-430.753877%" id="linearGradient-19">
            <stop stop-color="#52B0E6" offset="0%"></stop>
            <stop stop-color="#57B3E7" offset="19%"></stop>
            <stop stop-color="#65BBEB" offset="41%"></stop>
            <stop stop-color="#7DC9F2" offset="66%"></stop>
            <stop stop-color="#9EDDFB" offset="91%"></stop>
            <stop stop-color="#ACE5FF" offset="100%"></stop>
        </linearGradient>
        <path d="M65.2511813,3.83846497 L53.4865631,10.7103971 C51.5460076,8.86970103 49.3628825,7.27443106 47.1797575,6.04730031 C40.3866001,2.12048193 34.3235768,1.87505578 29.9573267,4.45203034 L0.606423618,21.6318608 L24.0131624,29.2400714 C27.1677781,42.4930834 36.2641324,56.1142347 47.0572599,62.3726015 L131.71521,111.580544 L138.022016,142.258813 L166.88778,125.324409 L167.009065,125.324409 C170.526321,123.237059 172.709447,118.697903 172.709447,112.316823 C172.709447,99.43195 163.734377,83.8473896 152.697467,77.3435966 C149.907918,75.7483266 147.11837,74.766622 144.692675,74.643909 L144.692675,74.0303436 C144.692675,63.9678715 137.658161,51.696564 129.046946,46.6665551 C126.621252,45.3154842 124.438126,44.7019188 122.376286,44.5792057 C116.31205,28.5037929 104.790001,13.2873717 91.5699664,5.55644801 C85.8780743,2.20883534 80.4760527,0.613565373 75.6962217,0.614792503 C71.7180828,0.614792503 68.1705046,1.71921017 65.2511813,3.83846497" id="path-20"></path>
        <linearGradient x1="58.9970302%" y1="22.45738%" x2="100%" y2="89.8876401%" id="linearGradient-22">
            <stop stop-color="#FFFFFF" stop-opacity="0.625283062" offset="0%"></stop>
            <stop stop-color="#2AE7FC" offset="100%"></stop>
        </linearGradient>
        <path d="M34.687431,14.7599286 C31.5340282,11.0785364 27.8954864,8.0107095 24.13566,5.80187416 C10.7943404,-1.92904953 0,4.32931727 0,19.7911647 C0,35.3757251 10.7943404,54.2735386 24.13566,62.0044623 L129.65337,123.606426 C132.831029,125.479027 135.835252,126.374833 138.505942,126.394467 L138.686656,126.394467 C145.194794,126.345382 149.665349,121.041722 149.665349,111.949911 C149.665349,99.0650379 140.690279,83.4804775 129.65337,76.9766845 C126.863821,75.3801874 124.073059,74.3984828 121.648578,74.2757697 L121.648578,73.6634315 C121.648578,63.5997323 114.614064,51.3284248 106.002848,46.2971888 C103.577154,44.9473449 101.394029,44.3337796 99.3321887,44.2110665 C93.2679525,28.1356537 81.7459038,12.9204596 68.5258689,5.18830879 C62.8909806,1.8799643 57.5471757,0.316599732 52.8000916,0.317826863 C44.1621936,0.317826863 37.5048751,5.49509148 34.687431,14.7599286" id="path-23"></path>
        <linearGradient x1="4.45390174%" y1="37.2834076%" x2="61.6520232%" y2="89.3238114%" id="linearGradient-25">
            <stop stop-color="#FFFFFF" offset="0%"></stop>
            <stop stop-color="#2AE7FC" offset="100%"></stop>
        </linearGradient>
    </defs>
    <g id="Design" stroke="none" stroke-width="1" fill="none" fill-rule="evenodd">
        <g id="Landing-Page" transform="translate(-660.000000, -4134.000000)">
            <g id="it-consulting" transform="translate(664.000000, 4134.000000)">
                <mask id="mask-2" fill="white">
                    <use xlink:href="#path-1"></use>
                </mask>
                <g id="Clip-2"></g>
                <path d="M165.514928,360.276997 L193.652983,377.210174 C194.138122,377.578313 194.501976,378.191879 194.501976,378.805444 C194.501976,379.540495 194.259407,380.032575 193.652983,380.400714 L165.029789,397.825971 L166.363921,400.034806 L195.107187,382.609549 C196.442532,381.750558 197.17024,380.400714 197.17024,378.805444 C197.048956,377.210174 196.321247,375.86033 194.987115,375.001339 L166.849059,358.066934 L165.514928,360.276997 Z" id="Fill-1" fill="url(#linearGradient-3)" mask="url(#mask-2)"></path>
                <mask id="mask-5" fill="white">
                    <use xlink:href="#path-4"></use>
                </mask>
                <g id="Clip-5"></g>
                <path d="M166.121351,429.73137 L216.938437,459.427934 C219.242847,460.777778 221.912324,461.391343 224.459303,461.391343 C227.006282,461.391343 229.674546,460.777778 231.736387,459.427934 L282.069547,430.098282 L280.8567,427.890674 L230.523539,457.220326 C226.763713,459.427934 222.033609,459.427934 218.152498,457.220326 L167.334198,427.522535 L166.121351,429.73137 Z" id="Fill-4" fill="url(#linearGradient-3)" mask="url(#mask-5)"></path>
                <mask id="mask-7" fill="white">
                    <use xlink:href="#path-6"></use>
                </mask>
                <g id="Clip-8"></g>
                <path d="M119.548017,401.752789 C113.96892,405.066042 110.936802,409.361 110.936802,414.146809 C110.936802,418.933846 113.96892,423.35029 119.548017,426.542057 C125.00583,429.73137 132.282913,431.325413 139.438712,431.325413 C146.715795,431.325413 153.871594,429.73137 159.329407,426.542057 C164.908504,423.228804 167.940622,418.933846 167.940622,414.146809 C167.940622,409.361 164.908504,404.943329 159.329407,401.752789 C153.871594,398.562249 146.655153,396.966979 139.438712,396.966979 C132.222271,396.966979 125.00583,398.562249 119.548017,401.752789 M120.762077,424.455935 C116.03076,421.632307 113.362496,418.073628 113.362496,414.27075 C113.362496,410.465417 116.03076,406.906738 120.762077,404.084337 C125.976108,401.01651 132.646767,399.543954 139.438712,399.543954 C146.230656,399.543954 152.901316,401.01651 157.994062,404.084337 C162.725379,406.906738 165.393643,410.465417 165.393643,414.27075 C165.393643,418.073628 162.725379,421.632307 157.994062,424.455935 C152.840674,427.461178 146.109372,428.964413 139.37807,428.964413 C132.646767,428.964413 125.915465,427.461178 120.762077,424.455935 M128.401802,406.906738 C125.128327,408.870147 123.429128,411.324409 123.429128,414.146809 C123.429128,416.967983 125.247186,419.546185 128.401802,421.386881 C131.43392,423.228804 135.436316,424.087796 139.438712,424.087796 C143.441108,424.087796 147.443504,423.228804 150.475622,421.386881 C153.749096,419.422245 155.448295,416.967983 155.448295,414.146809 C155.448295,411.324409 153.629025,408.748661 150.475622,406.906738 C147.443504,405.127398 143.441108,404.237729 139.438712,404.237729 C135.436316,404.237729 131.43392,405.127398 128.401802,406.906738 M129.614649,419.300759 C127.31024,417.828202 125.976108,416.110219 125.976108,414.27075 C125.976108,412.428826 127.188955,410.58813 129.614649,409.237059 C132.404198,407.643017 135.921455,406.906738 139.438712,406.906738 C142.955969,406.906738 146.594511,407.643017 149.14149,409.237059 C151.4459,410.710843 152.780032,412.428826 152.780032,414.27075 C152.780032,416.110219 151.567184,417.950915 149.14149,419.300759 C146.473226,420.896029 142.925648,421.693664 139.37807,421.693664 C135.830491,421.693664 132.282913,420.896029 129.614649,419.300759" id="Fill-7" fill="url(#linearGradient-3)" mask="url(#mask-7)"></path>
                <mask id="mask-9" fill="white">
                    <use xlink:href="#path-8"></use>
                </mask>
                <g id="Clip-11"></g>
                <path d="M112.513503,397.704485 C105.115135,401.999442 100.991455,407.88967 100.991455,414.146809 C100.991455,420.405176 105.115135,426.295404 112.513503,430.590361 C120.033156,434.885319 129.735934,437.094154 139.438712,437.094154 C149.14149,437.094154 158.965552,435.008032 166.242636,430.590361 C173.641004,426.295404 177.764685,420.405176 177.764685,414.146809 C177.764685,407.88967 173.641004,401.999442 166.242636,397.704485 C158.844268,393.346943 149.111169,391.168786 139.37807,391.168786 C129.64497,391.168786 119.911871,393.346943 112.513503,397.704485 M113.847635,428.504239 C107.29826,424.577421 103.659718,419.546185 103.659718,414.27075 C103.659718,408.870147 107.29826,403.838911 113.847635,399.912093 C120.882149,395.862561 130.221073,393.776439 139.438712,393.776439 C148.777636,393.776439 157.994062,395.862561 165.029789,400.034806 C171.579164,403.961624 175.217705,408.99286 175.217705,414.27075 C175.217705,419.546185 171.579164,424.700134 165.029789,428.504239 C157.995275,432.615127 148.716993,434.670571 139.438712,434.670571 C130.160431,434.670571 120.882149,432.615127 113.847635,428.504239" id="Fill-10" fill="url(#linearGradient-3)" mask="url(#mask-9)"></path>
                <mask id="mask-11" fill="white">
                    <use xlink:href="#path-10"></use>
                </mask>
                <g id="Clip-14"></g>
                <path d="M29.0696134,262.473449 L-0.887713387,280.021419 C-2.22184535,280.881638 -3.07083841,282.107541 -3.07083841,283.334672 C-3.07083841,284.43909 -2.34313007,285.543507 -1.25156756,286.157073 L142.833471,370.215529 C143.804962,370.829094 145.017809,371.07452 146.230656,371.07452 C147.686073,371.07452 149.262775,370.706381 150.475622,370.094043 L180.432949,352.544846 C181.76708,351.685855 182.616074,350.459951 182.616074,349.23282 C182.616074,348.127175 181.888365,347.022758 180.796803,346.407965 L36.710551,262.228023 C35.7536145,261.658635 34.534703,261.380076 33.272129,261.380076 C31.8167124,261.380076 30.303079,261.750669 29.0696134,262.473449 M144.168816,367.88398 L0.0825644023,283.702811 C-0.160005045,283.457385 -0.282502616,283.334672 -0.282502616,283.334672 C-0.282502616,283.211959 -0.160005045,282.84382 0.567703297,282.47568 L30.52503,264.927711 C31.9804467,264.068719 34.1635718,263.946006 35.376419,264.682285 L179.462671,348.863454 C179.706453,349.10888 179.825312,349.23282 179.825312,349.23282 C179.825312,349.354306 179.706453,349.722445 178.977532,350.090585 L149.020205,367.638554 C148.20881,368.117135 147.170613,368.36747 146.201548,368.36747 C145.432603,368.36747 144.704895,368.20917 144.168816,367.88398" id="Fill-13" fill="url(#linearGradient-3)" mask="url(#mask-11)"></path>
                <mask id="mask-13" fill="white">
                    <use xlink:href="#path-12"></use>
                </mask>
                <g id="Clip-17"></g>
                <path d="M237.436769,395.371709 C235.738783,396.353414 234.768505,398.192883 234.768505,400.158746 C234.768505,402.120928 235.738783,403.961624 237.436769,404.943329 L535.918474,579.441321 C540.040941,581.772869 544.649761,583 549.259793,583 C553.868613,583 558.597504,581.772869 562.722398,579.318608 L735.553129,478.325747 C737.252328,477.344043 738.221393,475.50212 738.221393,473.539938 C738.221393,471.576528 737.252328,469.735832 735.553129,468.7529 L424.336528,287.016064 L423.608819,286.647925 L237.436769,395.371709 Z M537.252606,576.987059 L238.769688,402.61178 C237.921908,402.120928 237.436769,401.261937 237.436769,400.280232 C237.436769,399.298527 237.921908,398.439536 238.769688,397.948684 L423.608819,289.961178 L734.097712,471.331102 C734.946705,471.821954 735.431844,472.680946 735.431844,473.662651 C735.431844,474.643128 734.946705,475.50212 734.097712,475.994199 L561.266981,576.987059 C557.567797,579.134538 553.413795,580.208278 549.259793,580.208278 C545.105791,580.208278 540.95179,579.134538 537.252606,576.987059 Z" id="Fill-16" fill="url(#linearGradient-3)" mask="url(#mask-13)"></path>
                <g id="compu" transform="translate(283.000000, 0.000000)">
                    <path d="M249.893082,540.999951 C246.390429,540.999126 242.948397,540.079062 239.905999,538.330378 L17.8122799,409.095648 C16.5484949,408.362689 15.7695652,407.005403 15.7695652,405.536217 C15.7695652,404.06703 16.5484949,402.709745 17.8122799,401.976785 L156.408544,321.410431 L156.952058,321.684233 L388.557285,456.395011 C389.82107,457.12797 390.6,458.485256 390.6,459.954442 C390.6,461.423629 389.82107,462.780914 388.557285,463.513874 L259.880166,538.330378 C256.841033,540.087078 253.396843,541.007719 249.893082,540.999951 Z M156.340604,323.874652 L18.8313701,403.893402 C18.2397214,404.257748 17.8788862,404.906037 17.8788862,405.604667 C17.8788862,406.303297 18.2397214,406.951586 18.8313701,407.315932 L240.993028,536.550662 C246.49662,539.76846 253.289545,539.76846 258.793136,536.550662 L387.402316,461.734158 C387.993965,461.369812 388.3548,460.721523 388.3548,460.022893 C388.3548,459.324263 387.993965,458.675974 387.402316,458.311628 L156.340604,323.874652 Z" id="Shape" fill="url(#linearGradient-14)" fill-rule="nonzero"></path>
                    <path d="M155.317723,265.653138 L186.165508,80.8335237 L183.657007,79.807508 L187.38586,77.6186747 C188.290894,77.1091445 189.409284,77.1897408 190.233348,77.8238778 L437.08343,221.602867 C439.11735,222.765685 440.676688,225.843732 440.269904,227.895763 L409.218727,414.288602 C409.16679,415.115945 408.67342,415.849491 407.930577,416.203831 L404.269521,418.324263 L403.659346,414.904211 L403.862738,414.972612 L158.504197,272.014435 C156.470277,270.851617 154.978736,267.77357 155.317723,265.653138 Z" id="Path" fill="url(#linearGradient-15)"></path>
                    <path d="M436.949186,227.505364 L440.978829,225.723356 C441.441804,226.678336 441.628194,227.748291 441.516114,228.807601 L410.622191,415.507233 C410.570742,416.336242 410.082004,417.071265 409.346138,417.426318 L405.71946,419.55102 L405.115013,416.124082 L405.316496,416.19262 L393.026087,408.92751 L436.949186,227.505364 Z" id="Path" fill="url(#linearGradient-16)"></path>
                    <path d="M156.077531,274.908008 L402.883391,419.012702 C404.781376,420.109598 406.408221,419.492594 406.747147,417.50447 L437.860547,230.757949 C438.199473,228.632713 436.708199,225.61625 434.674643,224.450798 L187.868783,80.2775477 C185.970798,79.1806518 184.343953,79.7976558 184.005027,81.7857795 L152.891627,268.5323 C152.552701,270.657536 154.043975,273.674 156.077531,274.908008 Z" id="Path" fill="#247EBE"></path>
                    <g id="Group" opacity="0.51" transform="translate(161.334783, 92.006803)" fill="#453C9E">
                        <polygon id="Path" points="29.6655464 0.137076802 267.81792 138.995877 238.294898 314.796875 0.278262961 176.075152"></polygon>
                    </g>
                    <path d="M0,363.303427 L13.4266082,370.429521 L148.506424,291.631365 C150.744192,290.329483 154.74505,290.466523 157.321874,291.973966 L390.320994,427.917915 C392.558762,426.684553 402.730435,421.751103 402.730435,421.751103 L397.780221,434.701409 C397.513951,435.364375 397.036774,435.918866 396.423998,436.277372 L254.1562,519.255256 C251.918432,520.557139 247.917574,520.420098 245.34075,518.912655 L6.91673756,379.81678 C6.02697086,379.374533 5.3276619,378.61918 4.95021413,377.692656 L0,363.303427 Z" id="Path" fill="url(#linearGradient-17)"></path>
                    <path d="M2.17504855,364.980119 L246.439359,507.807615 C249.082619,509.386198 253.149172,509.523466 255.453553,508.219419 L401.171718,422.975906 C403.476098,421.603225 403.204995,419.269667 400.493959,417.691083 L156.297424,274.863587 C153.654165,273.285004 149.587611,273.147735 147.283231,274.451783 L1.56506553,359.695295 C-0.739314758,361.067977 -0.468211194,363.401535 2.17504855,364.980119 Z" id="Path" fill="url(#linearGradient-18)"></path>
                    <path d="M320.243478,476.759891 L320.243478,473.846008 C320.243478,473.554619 320.113219,473.481772 319.91783,473.554619 L310.864805,479.382386 C310.658159,479.552812 310.537065,479.823696 310.539157,480.110857 L310.539157,483.024741 C310.539157,483.316129 310.669416,483.388976 310.864805,483.316129 L319.91783,477.488362 C320.112754,477.307222 320.230873,477.042992 320.243478,476.759891 Z" id="Path" fill="#247EBE"></path>
                    <path d="M305.68693,485.347193 L305.68693,482.433309 C305.68693,482.141921 305.556671,482.069074 305.361282,482.141921 L296.308283,487.969688 C296.101637,488.140113 295.980544,488.410997 295.982635,488.698159 L295.982635,491.612042 C295.982635,491.903431 296.112894,491.976278 296.308283,491.903431 L305.361282,486.075664 C305.567929,485.905238 305.689022,485.634354 305.68693,485.347193 Z" id="Path" fill="#247EBE"></path>
                    <path d="M364.365955,415.76919 L160.310828,297.49074 C158.947758,296.670131 157.245321,296.670131 155.882252,297.49074 L83.253616,339.698839 C82.7775949,339.989135 82.4869565,340.507805 82.4869565,341.067011 C82.4869565,341.626217 82.7775949,342.144887 83.253616,342.435183 L287.172479,460.645224 C288.511037,461.465953 290.194366,461.465953 291.532923,460.645224 L364.297823,418.505534 C364.79534,418.238489 365.111496,417.723545 365.125596,417.157285 C365.139695,416.591025 364.849561,416.060862 364.365955,415.76919 Z" id="Path" fill="#AECDED"></path>
                    <path d="M364.366138,417.911676 L363.616867,418.324263 L160.360188,299.842942 C158.997447,299.018063 157.29542,299.018063 155.93268,299.842942 L84.0027018,341.858082 L83.2534312,341.445495 C82.7775249,341.153689 82.4869565,340.63232 82.4869565,340.070204 C82.4869565,339.508088 82.7775249,338.986719 83.2534312,338.694913 L155.864564,296.267185 C157.227305,295.442306 158.929332,295.442306 160.292072,296.267185 L364.298023,415.161094 C364.79542,415.429528 365.1115,415.947151 365.125596,416.516358 C365.139691,417.085564 364.849628,417.618486 364.366138,417.911676 Z" id="Path" fill="#95BFE5"></path>
                    <polygon id="Path" fill="#247EBE" points="150.417391 307.621928 326.995804 410.963719 334.8 406.419709 158.28945 303.00907"></polygon>
                    <polygon id="Path" fill="#247EBE" points="131.008696 319.842908 296.666281 415.870748 304.473913 411.304485 138.816328 315.276644"></polygon>
                    <polygon id="Path" fill="#247EBE" points="118.878261 327.211393 313.594669 440.405896 321.456522 435.899963 126.740114 322.637188"></polygon>
                    <polygon id="Path" fill="#247EBE" points="106.747826 333.34518 301.464234 446.539683 309.326087 441.965478 114.609679 328.770975"></polygon>
                    <polygon id="Path" fill="#247EBE" points="93.4043478 340.703074 288.118125 453.900227 295.982609 449.328672 101.201035 336.131519"></polygon>
                    <polygon id="Path" fill="#247EBE" points="337.226087 417.097506 345.145003 422.004535 352.995652 417.097506 345.145003 412.190476"></polygon>
                    <polygon id="Path" fill="#247EBE" points="310.53913 423.11219 326.894773 433.045351 334.8 428.257425 318.444358 418.324263"></polygon>
                    <path d="M153.377026,444.388797 L98.6704399,412.484578 C96.5011577,411.252226 96.5011577,409.198307 98.6704399,407.965955 L136.090558,386.125942 C138.522123,384.893771 141.387061,384.893771 143.818626,386.125942 L198.525212,418.030161 C200.694494,419.262513 200.694494,421.316433 198.525212,422.548784 L161.105094,444.388797 C158.673529,445.620968 155.808591,445.620968 153.377026,444.388797 Z" id="Path" fill="url(#linearGradient-19)"></path>
                    <path d="M198.633577,419.559186 L143.882593,388.01121 C141.449054,386.792797 138.581791,386.792797 136.148253,388.01121 L98.62992,409.539657 C98.0709927,409.840327 97.6025826,410.284362 97.2730183,410.825948 C96.7302576,409.742756 97.1373281,408.524165 98.62992,407.71177 L136.080408,386.115623 C138.513946,384.897211 141.381209,384.897211 143.814748,386.115623 L198.565732,417.6636 C200.058324,418.543694 200.465395,419.762285 199.922634,420.777778 C199.615787,420.25914 199.169145,419.836914 198.633577,419.559186 Z" id="Path" fill="#95BFE5"></path>
                    <polygon id="Path" fill="#42E8E0" opacity="0.5" points="221.986957 20.8548753 195.3 5.77415114 195.3 0 221.986957 15.0807241"></polygon>
                    <polygon id="Path" fill="#42E8E0" opacity="0.5" points="234.117391 28.2154195 224.413043 22.8622964 224.413043 17.1746032 234.117391 22.5277262"></polygon>
                    <polygon id="Path" fill="#42E8E0" opacity="0.5" points="245.034783 35.5759637 238.969565 31.7633077 238.969565 25.7619048 245.034783 29.6451655"></polygon>
                    <polygon id="Path" fill="#42E8E0" opacity="0.5" points="209.856522 28.2154195 195.3 19.5685666 195.3 13.4943311 209.856522 22.141184"></polygon>
                    <polygon id="Path" fill="#42E8E0" opacity="0.5" points="230.478261 39.2562358 213.495652 29.1262737 213.495652 23.30839 230.478261 33.5067979"></polygon>
                    <polygon id="Path" fill="#42E8E0" opacity="0.5" points="241.395652 46.61678 235.330435 42.7764961 235.330435 36.8027211 241.395652 40.643005"></polygon>
                    <polygon id="Path" fill="#42E8E0" opacity="0.5" points="251.1 51.5238095 245.034783 47.6835256 245.034783 41.7097506 251.1 45.5500345"></polygon>
                    <polygon id="Path" fill="#42E8E0" points="205.004348 38.0294785 195.3 32.4448795 195.3 26.9886621 205.004348 32.6374519"></polygon>
                    <polygon id="Path" fill="#42E8E0" points="213.495652 42.9365079 209.856522 40.6766917 209.856522 34.3492063 213.495652 36.6090226"></polygon>
                    <polygon id="Path" fill="#42E8E0" opacity="0.5" points="223.2 49.0702948 217.134783 45.187034 217.134783 39.2562358 223.2 43.0688918"></polygon>
                    <polygon id="Path" fill="#42E8E0" opacity="0.5" points="232.904348 68.6984127 195.3 46.3612056 195.3 40.4829932 232.904348 62.8893557"></polygon>
                    <polygon id="Path" fill="#42E8E0" opacity="0.5" points="246.247826 74.8321995 236.543478 69.4464355 236.543478 63.7913832 246.247826 69.1771473"></polygon>
                    <polygon id="Path" fill="#42E8E0" opacity="0.5" points="205.004348 65.0181406 195.3 58.7779875 195.3 52.7505669 205.004348 58.99072"></polygon>
                    <polygon id="Path" fill="#42E8E0" opacity="0.5" points="230.478261 78.5124717 209.856522 67.0403734 209.856522 61.3378685 230.478261 72.877055"></polygon>
                    <polygon id="Path" fill="#42E8E0" opacity="0.5" points="240.182609 84.6462585 234.117391 80.7629978 234.117391 74.8321995 240.182609 78.6448555"></polygon>
                    <polygon id="Path" fill="#42E8E0" opacity="0.5" points="217.134783 84.6462585 195.3 72.1221386 195.3 66.244898 217.134783 78.7690179"></polygon>
                    <polygon id="Path" fill="#42E8E0" points="235.330435 95.6870748 219.56087 86.7443576 219.56087 80.9659864 235.330435 89.8399135"></polygon>
                    <polygon id="Path" fill="#42E8E0" opacity="0.5" points="248.673913 104.274376 238.969565 98.6897775 238.969565 93.2335601 248.673913 98.8823498"></polygon>
                    <polygon id="Path" fill="#42E8E0" opacity="0.5" points="202.578261 89.553288 195.3 85.4246149 195.3 79.739229 202.578261 83.8002189"></polygon>
                    <polygon id="Path" fill="#42E8E0" opacity="0.5" points="215.921739 98.1405896 206.217391 92.7874665 206.217391 87.0997732 215.921739 92.4528963"></polygon>
                    <polygon id="Path" fill="#42E8E0" opacity="0.5" points="235.330435 107.954649 219.56087 99.0807214 219.56087 93.2335601 235.330435 102.107487"></polygon>
                    <polygon id="Path" fill="#42E8E0" opacity="0.5" points="217.134783 111.634921 195.3 98.9584278 195.3 93.2335601 217.134783 105.8419"></polygon>
                    <polygon id="Path" fill="#42E8E0" opacity="0.5" points="241.395652 125.129252 220.773913 113.612948 220.773913 107.954649 241.395652 119.53752"></polygon>
                    <polygon id="Path" fill="#42E8E0" points="251.1 132.489796 245.034783 128.606535 245.034783 122.675737 251.1 126.488393"></polygon>
                    <polygon id="Path" fill="#42E8E0" opacity="0.5" points="262.017391 137.396825 255.952174 133.513565 255.952174 127.582766 262.017391 131.395422"></polygon>
                    <polygon id="Path" fill="#42E8E0" opacity="0.5" points="208.643478 118.995465 195.3 111.314076 195.3 105.501134 208.643478 113.182522"></polygon>
                    <polygon id="Path" fill="#42E8E0" points="263.230435 44.8848873 281.426087 55.2040816 281.426087 49.5754302 263.230435 39.2562358"></polygon>
                    <polygon id="Path" fill="#42E8E0" opacity="0.5" points="266.869565 59.9800982 281.426087 68.6984127 281.426087 62.6241772 266.869565 53.9773243"></polygon>
                    <polygon id="Path" fill="#42E8E0" opacity="0.5" points="270.508696 76.543954 280.213043 82.1927438 280.213043 76.7365264 270.508696 71.1519274"></polygon>
                    <polygon id="Path" fill="#42E8E0" opacity="0.5" points="265.656522 86.7988705 281.426087 95.6870748 281.426087 89.7847516 265.656522 80.9659864"></polygon>
                    <polygon id="Path" fill="#42E8E0" opacity="0.5" points="270.508696 103.532616 280.213043 109.181406 280.213043 103.725189 270.508696 98.1405896"></polygon>
                    <polygon id="Path" fill="#42E8E0" opacity="0.5" points="268.082609 115.033539 281.426087 122.675737 281.426087 116.823604 268.082609 109.181406"></polygon>
                    <polygon id="Path" fill="#42E8E0" opacity="0.5" points="274.147826 130.882321 281.426087 134.943311 281.426087 129.257925 274.147826 125.129252"></polygon>
                    <polygon id="Path" fill="#42E8E0" opacity="0.5" points="266.869565 140.621618 281.426087 148.437642 281.426087 142.826138 266.869565 134.943311"></polygon>
                    <polygon id="Path" fill="#42E8E0" opacity="0.5" points="268.082609 154.250584 281.426087 161.931973 281.426087 156.11903 268.082609 148.437642"></polygon>
                    <polygon id="Path" fill="#42E8E0" opacity="0.5" points="218.347826 126.356009 213.495652 122.78726 213.495652 116.54195 218.347826 120.03635"></polygon>
                    <polygon id="Path" fill="#42E8E0" opacity="0.5" points="234.117391 134.943311 221.986957 127.45431 221.986957 121.44898 234.117391 128.93798"></polygon>
                    <polygon id="Path" fill="#42E8E0" opacity="0.5" points="322.669565 79.739229 295.982609 64.6585049 295.982609 58.8843537 322.669565 74.0330091"></polygon>
                    <polygon id="Path" fill="#42E8E0" opacity="0.5" points="336.013043 87.0997732 326.308696 81.7140092 326.308696 76.0589569 336.013043 81.444721"></polygon>
                    <polygon id="Path" fill="#42E8E0" points="345.717391 94.4603175 339.652174 90.5770567 339.652174 84.6462585 345.717391 88.4589145"></polygon>
                    <polygon id="Path" fill="#42E8E0" opacity="0.5" points="310.53913 87.0997732 295.982609 78.4107406 295.982609 72.3786848 310.53913 81.0677175"></polygon>
                    <polygon id="Path" fill="#42E8E0" opacity="0.5" points="332.373913 98.1405896 315.391304 87.9421817 315.391304 82.1927438 332.373913 92.3227059"></polygon>
                    <polygon id="Path" fill="#42E8E0" points="342.078261 105.501134 336.013043 101.688478 336.013043 95.6870748 342.078261 99.4997308"></polygon>
                    <polygon id="Path" fill="#42E8E0" opacity="0.5" points="351.782609 110.408163 345.717391 106.595507 345.717391 100.594104 351.782609 104.40676"></polygon>
                    <polygon id="Path" fill="#42E8E0" opacity="0.5" points="305.686957 96.9138322 295.982609 91.2650425 295.982609 85.8730159 305.686957 91.4576148"></polygon>
                    <polygon id="Path" fill="#42E8E0" opacity="0.5" points="315.391304 101.820862 311.752174 99.580696 311.752174 93.2335601 315.391304 95.4737257"></polygon>
                    <polygon id="Path" fill="#42E8E0" opacity="0.5" points="325.095652 106.727891 319.030435 102.915235 319.030435 96.9138322 325.095652 100.797093"></polygon>
                    <polygon id="Path" fill="#42E8E0" opacity="0.5" points="333.586957 126.356009 295.982609 103.949647 295.982609 98.1405896 333.586957 120.477797"></polygon>
                    <polygon id="Path" fill="#42E8E0" opacity="0.5" points="348.143478 134.943311 338.43913 129.590188 338.43913 123.902494 348.143478 129.255617"></polygon>
                    <polygon id="Path" fill="#42E8E0" opacity="0.5" points="305.686957 122.675737 295.982609 117.026947 295.982609 111.634921 305.686957 117.28371"></polygon>
                    <polygon id="Path" fill="#42E8E0" opacity="0.5" points="331.16087 137.396825 310.53913 125.902538 310.53913 120.222222 331.16087 131.716509"></polygon>
                    <polygon id="Path" fill="#42E8E0" opacity="0.5" points="340.865217 144.75737 334.8 140.944714 334.8 134.943311 340.865217 138.755967"></polygon>
                    <polygon id="Path" fill="#42E8E0" points="317.817391 142.303855 295.982609 129.827175 295.982609 123.902494 317.817391 136.379174"></polygon>
                    <polygon id="Path" fill="#42E8E0" opacity="0.5" points="337.226087 154.571429 321.456522 145.697501 321.456522 139.85034 337.226087 148.793057"></polygon>
                    <polygon id="Path" fill="#42E8E0" opacity="0.5" points="350.569565 161.931973 340.865217 156.283183 340.865217 150.891156 350.569565 156.475755"></polygon>
                    <polygon id="Path" fill="#42E8E0" opacity="0.5" points="303.26087 148.437642 295.982609 144.376652 295.982609 138.623583 303.26087 142.752256"></polygon>
                    <polygon id="Path" fill="#42E8E0" opacity="0.5" points="316.604348 155.798186 306.9 150.412422 306.9 144.75737 316.604348 150.143134"></polygon>
                    <polygon id="Path" fill="#42E8E0" points="336.013043 168.06576 320.243478 159.150171 320.243478 153.344671 336.013043 162.26026"></polygon>
                    <polygon id="Path" fill="#42E8E0" opacity="0.5" points="317.817391 169.292517 295.982609 156.684177 295.982609 150.891156 317.817391 163.567649"></polygon>
                    <polygon id="Path" fill="#42E8E0" opacity="0.5" points="343.291304 184.013605 322.669565 172.430734 322.669565 166.839002 343.291304 178.355306"></polygon>
                    <polygon id="Path" fill="#42E8E0" opacity="0.5" points="352.995652 190.147392 346.930435 186.334736 346.930435 180.333333 352.995652 184.216594"></polygon>
                    <polygon id="Path" fill="#42E8E0" opacity="0.5" points="362.7 196.281179 356.634783 192.468523 356.634783 186.46712 362.7 190.350381"></polygon>
                    <polygon id="Path" fill="#42E8E0" opacity="0.5" points="309.326087 177.879819 295.982609 170.237621 295.982609 164.385488 309.326087 172.027685"></polygon>
                    <polygon id="Path" fill="#42E8E0" points="365.126087 105.039175 383.321739 115.315193 383.321739 109.643365 365.126087 99.3673469"></polygon>
                    <polygon id="Path" fill="#42E8E0" opacity="0.5" points="368.765217 120.162671 383.321739 128.809524 383.321739 122.80675 368.765217 114.088435"></polygon>
                    <polygon id="Path" fill="#42E8E0" opacity="0.5" points="372.404348 135.492499 382.108696 141.077098 382.108696 135.685071 372.404348 130.036281"></polygon>
                    <polygon id="Path" fill="#42E8E0" opacity="0.5" points="367.552174 145.752663 383.321739 154.571429 383.321739 148.738544 367.552174 139.85034"></polygon>
                    <polygon id="Path" fill="#42E8E0" opacity="0.5" points="372.404348 162.481161 382.108696 168.06576 382.108696 162.673733 372.404348 157.024943"></polygon>
                    <polygon id="Path" fill="#42E8E0" opacity="0.5" points="369.978261 173.878702 383.321739 181.560091 383.321739 175.747148 369.978261 168.06576"></polygon>
                    <polygon id="Path" fill="#42E8E0" opacity="0.5" points="376.043478 189.698991 383.321739 193.827664 383.321739 188.074595 376.043478 184.013605"></polygon>
                    <polygon id="Path" fill="#42E8E0" opacity="0.5" points="368.765217 199.439168 383.321739 207.321995 383.321739 201.643688 368.765217 193.827664"></polygon>
                    <polygon id="Path" fill="#42E8E0" opacity="0.5" points="369.978261 213.174129 383.321739 220.816327 383.321739 214.964193 369.978261 207.321995"></polygon>
                    <polygon id="Path" fill="#42E8E0" points="319.030435 184.013605 314.178261 180.519206 314.178261 174.199546 319.030435 177.768295"></polygon>
                    <polygon id="Path" fill="#42E8E0" opacity="0.5" points="336.013043 193.827664 323.882609 186.268013 323.882609 180.333333 336.013043 187.822334"></polygon>
                    <polygon id="Path" fill="#42E8E0" opacity="0.5" points="221.986957 139.85034 195.3 124.769616 195.3 118.995465 221.986957 134.076189"></polygon>
                    <polygon id="Path" fill="#42E8E0" opacity="0.5" points="234.117391 148.437642 224.413043 143.084519 224.413043 137.396825 234.117391 142.749948"></polygon>
                    <polygon id="Path" fill="#42E8E0" opacity="0.5" points="245.034783 154.571429 238.969565 150.758773 238.969565 144.75737 245.034783 148.64063"></polygon>
                    <polygon id="Path" fill="#42E8E0" opacity="0.5" points="209.856522 147.210884 195.3 138.564031 195.3 132.489796 209.856522 141.136649"></polygon>
                    <polygon id="Path" fill="#42E8E0" opacity="0.5" points="230.478261 159.478458 213.495652 149.348496 213.495652 143.530612 230.478261 153.72902"></polygon>
                    <polygon id="Path" fill="#42E8E0" opacity="0.5" points="241.395652 164.385488 235.330435 160.545204 235.330435 154.571429 241.395652 158.411713"></polygon>
                    <polygon id="Path" fill="#42E8E0" opacity="0.5" points="251.1 170.519274 245.034783 166.636014 245.034783 160.705215 251.1 164.517871"></polygon>
                    <polygon id="Path" fill="#42E8E0" opacity="0.5" points="205.004348 157.024943 195.3 151.440344 195.3 145.984127 205.004348 151.632917"></polygon>
                    <polygon id="Path" fill="#42E8E0" opacity="0.5" points="213.495652 163.15873 209.856522 160.898914 209.856522 154.571429 213.495652 156.831245"></polygon>
                    <polygon id="Path" fill="#42E8E0" opacity="0.5" points="223.2 168.06576 217.134783 164.182499 217.134783 158.251701 223.2 162.064357"></polygon>
                    <polygon id="Path" fill="#42E8E0" opacity="0.5" points="232.904348 187.693878 195.3 165.35667 195.3 159.478458 232.904348 181.884821"></polygon>
                    <polygon id="Path" fill="#42E8E0" opacity="0.5" points="246.247826 193.827664 236.543478 188.4419 236.543478 182.786848 246.247826 188.172612"></polygon>
                    <polygon id="Path" fill="#42E8E0" opacity="0.5" points="205.004348 184.013605 195.3 177.773452 195.3 171.746032 205.004348 177.986185"></polygon>
                    <polygon id="Path" fill="#42E8E0" opacity="0.5" points="230.478261 198.734694 209.856522 187.262596 209.856522 181.560091 230.478261 193.099277"></polygon>
                    <polygon id="Path" fill="#42E8E0" opacity="0.5" points="240.182609 203.641723 234.117391 199.758463 234.117391 193.827664 240.182609 197.64032"></polygon>
                    <polygon id="Path" fill="#42E8E0" opacity="0.5" points="217.134783 203.641723 195.3 191.117603 195.3 185.240363 217.134783 197.764483"></polygon>
                    <polygon id="Path" fill="#42E8E0" opacity="0.5" points="235.330435 214.68254 219.56087 205.739822 219.56087 199.961451 235.330435 208.835378"></polygon>
                    <polygon id="Path" fill="#42E8E0" opacity="0.5" points="248.673913 223.269841 238.969565 217.029688 238.969565 211.002268 248.673913 217.242421"></polygon>
                    <polygon id="Path" fill="#42E8E0" opacity="0.5" points="202.578261 208.548753 195.3 204.42008 195.3 198.734694 202.578261 202.795684"></polygon>
                    <polygon id="Path" fill="#42E8E0" opacity="0.5" points="215.921739 215.909297 206.217391 210.556174 206.217391 204.868481 215.921739 210.221604"></polygon>
                    <polygon id="Path" fill="#42E8E0" opacity="0.5" points="235.330435 226.950113 219.56087 218.076186 219.56087 212.229025 235.330435 221.102952"></polygon>
                    <polygon id="Path" fill="#42E8E0" opacity="0.5" points="217.134783 230.630385 195.3 217.953893 195.3 212.229025 217.134783 224.837365"></polygon>
                    <polygon id="Path" fill="#42E8E0" opacity="0.5" points="241.395652 244.124717 220.773913 232.586566 220.773913 226.950113 241.395652 238.488264"></polygon>
                    <polygon id="Path" fill="#42E8E0" opacity="0.5" points="251.1 251.485261 245.034783 247.602 245.034783 241.671202 251.1 245.483858"></polygon>
                    <polygon id="Path" fill="#42E8E0" opacity="0.5" points="262.017391 256.39229 255.952174 252.50903 255.952174 246.578231 262.017391 250.390887"></polygon>
                    <polygon id="Path" fill="#42E8E0" opacity="0.5" points="208.643478 239.217687 195.3 231.506641 195.3 225.723356 208.643478 233.365554"></polygon>
                    <polygon id="Path" fill="#42E8E0" opacity="0.5" points="263.230435 163.856801 281.426087 174.199546 281.426087 168.527718 263.230435 158.251701"></polygon>
                    <polygon id="Path" fill="#42E8E0" opacity="0.5" points="266.869565 180.273782 281.426087 188.920635 281.426087 182.846399 266.869565 174.199546"></polygon>
                    <polygon id="Path" fill="#42E8E0" opacity="0.5" points="270.508696 195.539419 280.213043 201.188209 280.213043 195.731991 270.508696 190.147392"></polygon>
                    <polygon id="Path" fill="#42E8E0" opacity="0.5" points="265.656522 205.794335 281.426087 214.68254 281.426087 208.780216 265.656522 199.961451"></polygon>
                    <polygon id="Path" fill="#42E8E0" opacity="0.5" points="270.508696 222.528081 280.213043 228.176871 280.213043 222.720653 270.508696 217.136054"></polygon>
                    <polygon id="Path" fill="#42E8E0" opacity="0.5" points="268.082609 234.029004 281.426087 241.671202 281.426087 235.887917 268.082609 228.176871"></polygon>
                    <polygon id="Path" fill="#42E8E0" opacity="0.5" points="274.147826 251.104543 281.426087 255.165533 281.426087 249.480147 274.147826 245.351474"></polygon>
                    <polygon id="Path" fill="#42E8E0" opacity="0.5" points="266.869565 259.617083 281.426087 267.433107 281.426087 261.821603 266.869565 253.938776"></polygon>
                    <polygon id="Path" fill="#42E8E0" opacity="0.5" points="268.082609 273.246049 281.426087 280.927438 281.426087 275.114495 268.082609 267.433107"></polygon>
                    <polygon id="Path" fill="#42E8E0" opacity="0.5" points="218.347826 245.351474 213.495652 241.857074 213.495652 235.537415 218.347826 239.031815"></polygon>
                    <polygon id="Path" fill="#42E8E0" opacity="0.5" points="234.117391 253.938776 221.986957 246.449775 221.986957 240.444444 234.117391 248.004096"></polygon>
                    <polygon id="Path" fill="#42E8E0" opacity="0.5" points="245.034783 298.102041 223.2 285.555659 223.2 279.70068 245.034783 292.17736"></polygon>
                    <polygon id="Path" fill="#42E8E0" opacity="0.5" points="258.378261 306.689342 249.886957 302.222687 249.886957 296.875283 258.378261 301.341938"></polygon>
                    <polygon id="Path" fill="#42E8E0" opacity="0.5" points="322.669565 198.734694 295.982609 183.604686 295.982609 177.879819 322.669565 193.009826"></polygon>
                    <polygon id="Path" fill="#42E8E0" opacity="0.5" points="336.013043 206.095238 326.308696 200.709474 326.308696 195.054422 336.013043 200.440186"></polygon>
                    <polygon id="Path" fill="#42E8E0" opacity="0.5" points="345.717391 213.455782 339.652174 209.572522 339.652174 203.641723 345.717391 207.454379"></polygon>
                    <polygon id="Path" fill="#42E8E0" opacity="0.5" points="310.53913 206.095238 295.982609 197.406205 295.982609 191.37415 310.53913 200.063182"></polygon>
                    <polygon id="Path" fill="#42E8E0" opacity="0.5" points="332.373913 218.362812 315.391304 208.164404 315.391304 202.414966 332.373913 212.544928"></polygon>
                    <polygon id="Path" fill="#42E8E0" opacity="0.5" points="342.078261 224.496599 336.013043 220.683943 336.013043 214.68254 342.078261 218.495196"></polygon>
                    <polygon id="Path" fill="#42E8E0" opacity="0.5" points="351.782609 229.403628 345.717391 225.590972 345.717391 219.589569 351.782609 223.402225"></polygon>
                    <polygon id="Path" fill="#42E8E0" opacity="0.5" points="305.686957 215.909297 295.982609 210.260507 295.982609 204.868481 305.686957 210.45308"></polygon>
                    <polygon id="Path" fill="#42E8E0" opacity="0.5" points="315.391304 220.816327 311.752174 218.576161 311.752174 212.229025 315.391304 214.469191"></polygon>
                    <polygon id="Path" fill="#42E8E0" opacity="0.5" points="325.095652 226.950113 319.030435 223.137457 319.030435 217.136054 325.095652 221.019315"></polygon>
                    <polygon id="Path" fill="#42E8E0" opacity="0.5" points="333.586957 246.578231 295.982609 224.171869 295.982609 218.362812 333.586957 240.700019"></polygon>
                    <polygon id="Path" fill="#42E8E0" opacity="0.5" points="348.143478 253.938776 338.43913 248.585652 338.43913 242.897959 348.143478 248.251082"></polygon>
                    <polygon id="Path" fill="#42E8E0" opacity="0.5" points="305.686957 242.897959 295.982609 237.31336 295.982609 231.857143 305.686957 237.505933"></polygon>
                    <polygon id="Path" fill="#42E8E0" opacity="0.5" points="331.16087 256.39229 310.53913 244.853104 310.53913 239.217687 331.16087 250.689785"></polygon>
                    <polygon id="Path" fill="#42E8E0" opacity="0.5" points="340.865217 263.752834 334.8 259.940178 334.8 253.938776 340.865217 257.822036"></polygon>
                    <polygon id="Path" fill="#42E8E0" opacity="0.5" points="317.817391 262.526077 295.982609 250.049397 295.982609 244.124717 317.817391 256.601397"></polygon>
                    <polygon id="Path" fill="#42E8E0" opacity="0.5" points="337.226087 273.566893 321.456522 264.692966 321.456522 258.845805 337.226087 267.788522"></polygon>
                    <polygon id="Path" fill="#42E8E0" opacity="0.5" points="350.569565 282.154195 340.865217 276.505405 340.865217 271.113379 350.569565 276.762168"></polygon>
                    <polygon id="Path" fill="#42E8E0" opacity="0.5" points="303.26087 267.433107 295.982609 263.372117 295.982609 257.619048 303.26087 261.747721"></polygon>
                    <polygon id="Path" fill="#42E8E0" opacity="0.5" points="316.604348 276.020408 306.9 270.634644 306.9 264.979592 316.604348 270.365356"></polygon>
                    <polygon id="Path" fill="#42E8E0" opacity="0.5" points="336.013043 285.834467 320.243478 276.918878 320.243478 271.113379 336.013043 280.028967"></polygon>
                    <polygon id="Path" fill="#42E8E0" opacity="0.5" points="317.817391 289.514739 295.982609 276.9064 295.982609 271.113379 317.817391 283.789872"></polygon>
                    <polygon id="Path" fill="#42E8E0" opacity="0.5" points="343.291304 303.00907 322.669565 291.426198 322.669565 285.834467 343.291304 297.350771"></polygon>
                    <polygon id="Path" fill="#42E8E0" opacity="0.5" points="352.995652 310.369615 346.930435 306.556959 346.930435 300.555556 352.995652 304.438816"></polygon>
                    <polygon id="Path" fill="#42E8E0" opacity="0.5" points="362.7 316.503401 356.634783 312.690745 356.634783 306.689342 362.7 310.572603"></polygon>
                    <polygon id="Path" fill="#42E8E0" opacity="0.5" points="309.326087 296.875283 295.982609 289.233086 295.982609 283.380952 309.326087 291.091999"></polygon>
                    <polygon id="Path" fill="#42E8E0" opacity="0.5" points="365.126087 224.03464 383.321739 234.310658 383.321739 228.705557 365.126087 218.362812"></polygon>
                    <polygon id="Path" fill="#42E8E0" opacity="0.5" points="368.765217 239.115956 383.321739 247.804989 383.321739 241.772933 368.765217 233.0839"></polygon>
                    <polygon id="Path" fill="#42E8E0" opacity="0.5" points="372.404348 254.487963 382.108696 260.072562 382.108696 254.680536 372.404348 249.031746"></polygon>
                    <polygon id="Path" fill="#42E8E0" opacity="0.5" points="367.552174 264.748128 383.321739 273.566893 383.321739 267.734009 367.552174 258.845805"></polygon>
                    <polygon id="Path" fill="#42E8E0" opacity="0.5" points="372.404348 281.476626 382.108696 287.061224 382.108696 281.669198 372.404348 276.020408"></polygon>
                    <polygon id="Path" fill="#42E8E0" opacity="0.5" points="369.978261 292.844509 383.321739 300.555556 383.321739 294.703422 369.978261 287.061224"></polygon>
                    <polygon id="Path" fill="#42E8E0" opacity="0.5" points="376.043478 309.921214 383.321739 314.049887 383.321739 308.296818 376.043478 304.235828"></polygon>
                    <polygon id="Path" fill="#42E8E0" opacity="0.5" points="368.765217 318.434633 383.321739 326.31746 383.321739 320.639153 368.765217 312.823129"></polygon>
                    <polygon id="Path" fill="#42E8E0" opacity="0.5" points="369.978261 332.169594 383.321739 339.811791 383.321739 333.959658 369.978261 326.31746"></polygon>
                    <polygon id="Path" fill="#42E8E0" opacity="0.5" points="319.030435 304.235828 314.178261 300.741428 314.178261 294.421769 319.030435 297.990517"></polygon>
                    <polygon id="Path" fill="#42E8E0" opacity="0.5" points="336.013043 312.823129 323.882609 305.263478 323.882609 299.328798 336.013043 306.817799"></polygon>
                    <polygon id="Path" fill="#42E8E0" opacity="0.5" points="346.930435 356.986395 325.095652 344.509714 325.095652 338.585034 346.930435 351.131416"></polygon>
                    <polygon id="Path" fill="#42E8E0" opacity="0.5" points="360.273913 364.346939 351.782609 359.851467 351.782609 354.53288 360.273913 359.028352"></polygon>
                </g>
                <g id="Group-7" transform="translate(0.824648, 190.132976)">
                    <g id="Group-3" transform="translate(6.064236, 0.612338)">
                        <mask id="mask-21" fill="white">
                            <use xlink:href="#path-20"></use>
                        </mask>
                        <g id="Clip-2"></g>
                        <path d="M65.2511813,3.83846497 L53.4865631,10.7103971 C51.5460076,8.86970103 49.3628825,7.27443106 47.1797575,6.04730031 C40.3866001,2.12048193 34.3235768,1.87505578 29.9573267,4.45203034 L0.606423618,21.6318608 L24.0131624,29.2400714 C27.1677781,42.4930834 36.2641324,56.1142347 47.0572599,62.3726015 L131.71521,111.580544 L138.022016,142.258813 L166.88778,125.324409 L167.009065,125.324409 C170.526321,123.237059 172.709447,118.697903 172.709447,112.316823 C172.709447,99.43195 163.734377,83.8473896 152.697467,77.3435966 C149.907918,75.7483266 147.11837,74.766622 144.692675,74.643909 L144.692675,74.0303436 C144.692675,63.9678715 137.658161,51.696564 129.046946,46.6665551 C126.621252,45.3154842 124.438126,44.7019188 122.376286,44.5792057 C116.31205,28.5037929 104.790001,13.2873717 91.5699664,5.55644801 C85.8780743,2.20883534 80.4760527,0.613565373 75.6962217,0.614792503 C71.7180828,0.614792503 68.1705046,1.71921017 65.2511813,3.83846497" id="Fill-1" fill="url(#linearGradient-22)" mask="url(#mask-21)"></path>
                    </g>
                    <g id="Group-6" transform="translate(0.000000, 17.792169)">
                        <mask id="mask-24" fill="white">
                            <use xlink:href="#path-23"></use>
                        </mask>
                        <g id="Clip-5"></g>
                        <path d="M34.687431,14.7599286 C31.5340282,11.0785364 27.8954864,8.0107095 24.13566,5.80187416 C10.7943404,-1.92904953 0,4.32931727 0,19.7911647 C0,35.3757251 10.7943404,54.2735386 24.13566,62.0044623 L129.65337,123.606426 C132.831029,125.479027 135.835252,126.374833 138.505942,126.394467 L138.686656,126.394467 C145.194794,126.345382 149.665349,121.041722 149.665349,111.949911 C149.665349,99.0650379 140.690279,83.4804775 129.65337,76.9766845 C126.863821,75.3801874 124.073059,74.3984828 121.648578,74.2757697 L121.648578,73.6634315 C121.648578,63.5997323 114.614064,51.3284248 106.002848,46.2971888 C103.577154,44.9473449 101.394029,44.3337796 99.3321887,44.2110665 C93.2679525,28.1356537 81.7459038,12.9204596 68.5258689,5.18830879 C62.8909806,1.8799643 57.5471757,0.316599732 52.8000916,0.317826863 C44.1621936,0.317826863 37.5048751,5.49509148 34.687431,14.7599286" id="Fill-4" fill="url(#linearGradient-25)" mask="url(#mask-24)"></path>
                    </g>
                </g>
            </g>
        </g>
    </g>
</svg>