<?xml version="1.0" encoding="UTF-8" standalone="no"?><!DOCTYPE svg PUBLIC "-//W3C//DTD SVG 1.1//EN" "http://www.w3.org/Graphics/SVG/1.1/DTD/svg11.dtd"><svg width="100%" height="100%" viewBox="0 0 50 50" version="1.1" xmlns="http://www.w3.org/2000/svg" xmlns:xlink="http://www.w3.org/1999/xlink" xml:space="preserve" xmlns:serif="http://www.serif.com/" style="fill-rule:evenodd;clip-rule:evenodd;stroke-linejoin:round;stroke-miterlimit:1.41421;"><path id="Path_546" d="M47.334,42.988l-2.021,0l0,-19.738c0.011,-0.422 -0.058,-0.842 -0.202,-1.24c-0.377,-0.984 -1.243,-1.519 -2.509,-1.519l-13.346,0c1.456,-1.207 2.298,-2.962 2.31,-4.812c0.035,-1.868 -0.795,-3.655 -2.265,-4.875c-2.527,-2.138 -6.313,-2.119 -8.817,0.042c-1.25,1.037 -2.03,2.503 -2.176,4.085c-0.229,2.102 0.626,4.179 2.287,5.56l-4.108,0c-2.974,0 -6.063,0 -9.106,-0.021c-0.737,-0.043 -1.457,0.222 -1.976,0.728c-0.515,0.507 -0.796,1.194 -0.778,1.903c0.023,4.876 0.023,9.816 0.023,14.606l0,4.79c0.002,0.114 -0.005,0.228 -0.023,0.34l0,0.128l-1.843,0c-0.554,0 -0.844,0.064 -1.021,0.257c-0.178,0.172 -0.244,0.471 -0.202,1.005c0,0.086 0.023,0.15 0.023,0.215l0,0.064c0.402,2.667 2.796,4.634 5.595,4.598l0.022,0c7.485,-0.022 15.102,-0.022 22.453,-0.022l13.502,0c2.839,-0.106 5.119,-2.291 5.243,-5.025c0.048,-0.302 -0.032,-0.61 -0.222,-0.855c-0.133,-0.15 -0.399,-0.214 -0.843,-0.214Zm-22.363,-11.655c-0.513,-0.283 -0.775,-0.856 -0.645,-1.411c0.134,-1.198 0.245,-2.417 0.356,-3.593c0.089,-1.09 0.201,-2.202 0.311,-3.293c-0.004,0.051 0.004,0.102 0.022,0.15c0.044,0.534 0.111,1.091 0.156,1.625c0.045,0.534 0.089,1.068 0.133,1.583c0.089,1.197 0.202,2.437 0.333,3.656c0.08,0.52 -0.186,1.033 -0.666,1.283Zm-2.243,-9.238l0.622,0l-0.089,1.005c-0.066,0.706 -0.111,1.411 -0.177,2.117l-0.067,0.877c-0.134,1.582 -0.267,3.165 -0.4,4.747c-0.04,0.327 0.084,0.652 0.334,0.877l0.733,0.706c0.221,0.214 0.422,0.427 0.643,0.62c0.168,0.193 0.416,0.305 0.678,0.305c0.261,0 0.509,-0.112 0.677,-0.305c0.177,-0.171 0.353,-0.34 0.533,-0.492l0.733,-0.706c0.331,-0.293 0.489,-0.726 0.422,-1.154c-0.202,-2.267 -0.4,-4.555 -0.6,-6.78l-0.111,-1.347l0,-0.406c0.267,0 0.555,0 0.822,-0.021c0.637,-0.04 1.276,-0.025 1.91,0.042c3.625,0.381 6.382,3.311 6.418,6.822c0.045,1.112 0.045,2.245 0.022,3.336l0,1.456c0.004,0.044 -0.004,0.089 -0.022,0.129l0,0.021l-2.953,0l0,-3.956c0.003,-0.136 -0.004,-0.271 -0.023,-0.406c-0.017,-0.209 -0.121,-0.401 -0.288,-0.535c-0.168,-0.133 -0.384,-0.195 -0.6,-0.171c-0.446,0.032 -0.783,0.404 -0.756,0.834l0,4.192l-12.348,0l0,-3.914c0.003,-0.15 -0.004,-0.3 -0.022,-0.449c-0.018,-0.206 -0.123,-0.397 -0.291,-0.526c-0.168,-0.13 -0.384,-0.187 -0.597,-0.158c-0.427,0.046 -0.745,0.399 -0.733,0.812l0,4.235l-2.954,0c0,-0.557 -0.022,-1.112 -0.044,-1.647c-0.138,-1.592 -0.063,-3.195 0.222,-4.769c0.768,-3.167 3.707,-5.402 7.084,-5.388l1.222,-0.003Zm-9.35,3.229c-0.11,0.236 -0.201,0.449 -0.311,0.663c-0.435,1.076 -0.647,2.224 -0.621,3.379l0,5.068c0,0.855 0.244,1.091 1.133,1.091l22.918,0c0.689,0 1,-0.3 1,-0.941l0,-5.475c-0.006,-1.314 -0.325,-2.61 -0.933,-3.786c-0.022,-0.064 -0.067,-0.129 -0.089,-0.195l-0.022,-0.042l4.086,0l0,14.862l-31.024,0l0,-14.862l4.02,0c-0.061,0.074 -0.114,0.154 -0.159,0.238l0.002,0Zm2.443,-2.93c-0.377,0.343 -0.733,0.685 -1.109,1.005c-0.098,0.039 -0.205,0.053 -0.31,0.043l-5.486,0c-0.888,0 -1.177,0.278 -1.177,1.134l0,15.888c0,0.856 0.289,1.134 1.155,1.134l32.135,0c0.866,0 1.155,-0.278 1.155,-1.112l0,-15.932c0,-0.812 -0.289,-1.112 -1.132,-1.112l-5.375,0c-0.268,0.013 -0.528,-0.089 -0.711,-0.278c-0.266,-0.278 -0.554,-0.513 -0.844,-0.77c-0.098,-0.091 -0.202,-0.177 -0.311,-0.257c0.067,0 0.134,-0.021 0.178,-0.021l8.662,0c0.733,0 0.999,0.257 0.999,0.962l0,19.567c0.003,0.079 -0.004,0.158 -0.022,0.235l0,0.086l-37.31,0l0,-19.802c0,-0.813 0.223,-1.048 1.089,-1.048l8.727,0c-0.099,0.099 -0.203,0.192 -0.314,0.278l0.001,0Zm9.15,-11.569c1.297,-0.001 2.542,0.491 3.465,1.369c0.959,0.924 1.494,2.179 1.488,3.485c-0.004,2.647 -2.226,4.796 -4.975,4.812c-1.326,0.002 -2.597,-0.508 -3.528,-1.417c-0.932,-0.909 -1.445,-2.14 -1.424,-3.416c0.006,-2.639 2.213,-4.782 4.952,-4.812c-0.023,-0.021 -0.001,-0.021 0.022,-0.021Zm-17.833,36.675c-1.71,0 -3.042,-1.005 -3.575,-2.716c0,-0.042 -0.022,-0.064 -0.022,-0.128l0,-0.043l16.389,0l0,0.128c0,0.129 0.022,0.236 0.022,0.342c0.049,1.041 0.939,1.86 2.021,1.861c1.955,0.021 3.953,0.021 5.93,0c1.078,-0.008 1.964,-0.824 2.021,-1.861c0,-0.106 0.022,-0.213 0.022,-0.321l0,-0.128l16.411,0c-0.109,0.59 -0.377,1.142 -0.777,1.602c-0.665,0.832 -1.708,1.303 -2.798,1.262l-22.875,0c-4.153,-0.019 -8.484,-0.019 -12.77,0.002l0.001,0Zm21.098,-2.33c-0.089,0.107 -0.245,0.15 -0.533,0.15l-5.374,0c-0.192,0.02 -0.386,-0.017 -0.555,-0.107c-0.089,-0.086 -0.111,-0.257 -0.066,-0.577l6.573,0c0.043,0.255 0.043,0.448 -0.046,0.533l0.001,0.001Z" style="fill:#fff;fill-rule:nonzero;stroke:#c8c8c8;stroke-width:0.1px;"/><path id="Path_547" d="M45.646,0.903c0.758,-0.055 1.503,0.212 2.04,0.729c0.538,0.518 0.814,1.235 0.758,1.965c0,1.82 0,3.571 -0.023,5.263c0.054,0.712 -0.217,1.412 -0.741,1.916c-0.524,0.505 -1.25,0.766 -1.99,0.714l-1.421,0c-1.333,0 -2.688,0 -4.042,0.021c-0.221,0.014 -0.431,0.097 -0.6,0.236c-0.732,0.663 -1.465,1.368 -2.176,2.031c-0.267,0.257 -0.533,0.492 -0.799,0.749c-0.173,0.198 -0.421,0.32 -0.689,0.34c-0.083,-0.006 -0.165,-0.02 -0.244,-0.043c-0.384,-0.113 -0.634,-0.47 -0.599,-0.855l0,-2.502l-1.311,0c-0.69,0.026 -1.361,-0.219 -1.859,-0.679c-0.498,-0.46 -0.781,-1.095 -0.784,-1.759c-0.044,-1.86 -0.044,-3.721 0,-5.752c0.056,-1.293 1.144,-2.323 2.488,-2.353c0.71,-0.021 1.443,-0.021 2.132,-0.021l9.86,0Zm-8.839,9.901c0.008,0.307 -0.007,0.614 -0.044,0.919l0,0.364l0.156,0.085c0.177,-0.171 0.333,-0.342 0.488,-0.513c0.4,-0.428 0.8,-0.855 1.2,-1.304c0.335,-0.378 0.84,-0.577 1.354,-0.534c1.488,0.021 2.976,0.021 4.419,0.021l1.355,0c0.271,0.039 0.546,-0.047 0.742,-0.231c0.196,-0.185 0.291,-0.448 0.257,-0.71l0,-5.431c0.032,-0.258 -0.06,-0.516 -0.251,-0.699c-0.191,-0.184 -0.458,-0.273 -0.726,-0.242l-11.97,0c-0.265,-0.03 -0.53,0.06 -0.717,0.244c-0.187,0.184 -0.275,0.442 -0.238,0.697l0,5.388c-0.035,0.27 0.061,0.54 0.261,0.733c0.2,0.192 0.48,0.285 0.761,0.251l1.954,0c0.275,-0.038 0.553,0.051 0.75,0.241c0.196,0.189 0.289,0.456 0.249,0.721Zm0,0l0,0l0,0l0,0Zm0.711,-4.555c0.009,-0.208 -0.071,-0.412 -0.223,-0.561c-0.151,-0.15 -0.36,-0.233 -0.577,-0.23c-0.444,0.015 -0.798,0.363 -0.804,0.791c-0.006,0.428 0.338,0.785 0.782,0.811c0.444,-0.038 0.793,-0.382 0.822,-0.811Zm2.287,0.77c0.451,-0.007 0.815,-0.357 0.822,-0.792c0,-0.21 -0.086,-0.411 -0.24,-0.56c-0.155,-0.148 -0.364,-0.231 -0.582,-0.231c-0.23,0.004 -0.451,0.088 -0.622,0.236c-0.159,0.151 -0.24,0.362 -0.221,0.577c0.041,0.424 0.401,0.753 0.843,0.77Zm3.109,-0.002c0.448,-0.003 0.818,-0.339 0.844,-0.77c0.009,-0.216 -0.073,-0.427 -0.228,-0.584c-0.155,-0.157 -0.369,-0.247 -0.593,-0.25c-0.451,0.006 -0.815,0.357 -0.822,0.791c-0.01,0.211 0.069,0.417 0.22,0.57c0.151,0.154 0.36,0.241 0.579,0.243Z" style="fill:#fff;fill-rule:nonzero;stroke:#c8c8c8;stroke-width:0.1px;"/></svg>