<?xml version="1.0" encoding="UTF-8" standalone="no"?><!DOCTYPE svg PUBLIC "-//W3C//DTD SVG 1.1//EN" "http://www.w3.org/Graphics/SVG/1.1/DTD/svg11.dtd"><svg width="100%" height="100%" viewBox="0 0 967 770" version="1.1" xmlns="http://www.w3.org/2000/svg" xmlns:xlink="http://www.w3.org/1999/xlink" xml:space="preserve" xmlns:serif="http://www.serif.com/" style="fill-rule:evenodd;clip-rule:evenodd;stroke-linejoin:round;stroke-miterlimit:1.41421;"><path d="M967,770l-967,0l0,-677.479l4.3,-0.525c2.3,-0.315 12.5,-1.576 22.7,-2.732c23.9,-2.836 45.6,-6.303 76,-12.082c46.4,-8.72 60.7,-10.401 92,-10.506c26.9,0 37.4,1.051 60.4,5.884c18.3,3.887 30.1,7.879 52.1,17.755c41.4,18.491 57,21.958 93.4,20.697c36,-1.261 73.1,-9.981 128.1,-30.152c72,-26.476 94.2,-33.83 128.8,-42.971c61.1,-16.179 119.4,-25.424 171.2,-27.316c52.8,-1.786 98.5,2.942 131.7,13.658l6.3,2.102l0,743.667Z" style="fill:url(#_Linear1);"/><defs><linearGradient id="_Linear1" x1="0" y1="0" x2="1" y2="0" gradientUnits="userSpaceOnUse" gradientTransform="matrix(967,0,0,759.795,0,390.102)"><stop offset="0" style="stop-color:#247ebf;stop-opacity:1"/><stop offset="0.43" style="stop-color:#269ed2;stop-opacity:1"/><stop offset="1" style="stop-color:#2ae7fc;stop-opacity:1"/></linearGradient></defs></svg>