<?xml version="1.0" encoding="UTF-8" standalone="no"?><!DOCTYPE svg PUBLIC "-//W3C//DTD SVG 1.1//EN" "http://www.w3.org/Graphics/SVG/1.1/DTD/svg11.dtd"><svg width="100%" height="100%" viewBox="0 0 50 50" version="1.1" xmlns="http://www.w3.org/2000/svg" xmlns:xlink="http://www.w3.org/1999/xlink" xml:space="preserve" xmlns:serif="http://www.serif.com/" style="fill-rule:evenodd;clip-rule:evenodd;stroke-linejoin:round;stroke-miterlimit:1.41421;"><path id="Path_204" d="M6.512,41.002c-1.447,0.049 -2.859,-0.469 -3.957,-1.452c-1.251,-1.122 -1.95,-2.772 -1.902,-4.49l0,-27.546c-0.068,-2.849 1.89,-5.316 4.59,-5.783c0.377,-0.074 0.76,-0.109 1.143,-0.104l37.228,0c2.665,-0.1 5.015,1.803 5.579,4.516c0.114,0.555 0.165,1.123 0.152,1.69l0,22.237c0,1.849 0.026,3.698 -0.052,5.546c-0.184,2.868 -2.37,5.155 -5.123,5.361c-0.355,0.027 -0.71,0.027 -1.065,0.027l-11.206,-0.001c0.203,0.713 0.406,1.374 0.583,2.007c0.305,0.976 0.584,1.98 0.886,2.982c0.005,0.088 0.049,0.168 0.117,0.219c0.069,0.051 0.156,0.068 0.238,0.045l1.369,0c0.386,-0.033 0.757,0.164 0.958,0.51c0.2,0.346 0.195,0.78 -0.014,1.12c-0.208,0.34 -0.584,0.528 -0.969,0.485l-20.06,0c-0.389,0.042 -0.767,-0.148 -0.977,-0.492c-0.21,-0.344 -0.216,-0.781 -0.014,-1.13c0.202,-0.35 0.576,-0.55 0.966,-0.517l1.369,0c0.123,-0.012 0.234,-0.08 0.305,-0.185c0.507,-1.638 0.989,-3.275 1.471,-4.912c-0.001,-0.046 -0.009,-0.091 -0.026,-0.133l-11.589,0Zm12.276,5.235l12.553,0c-0.507,-1.69 -0.989,-3.354 -1.496,-5.018c-0.026,-0.106 -0.228,-0.185 -0.33,-0.185l-8.851,0c-0.196,-0.026 -0.375,0.115 -0.406,0.317c-0.279,0.976 -0.558,1.928 -0.863,2.905c-0.203,0.605 -0.405,1.264 -0.607,1.977l0,0.004Zm-16.027,-14.369l0,3.75c0.023,0.28 0.083,0.556 0.178,0.819c0.537,1.542 1.977,2.538 3.55,2.456l37.151,0c1.879,0.093 3.501,-1.354 3.703,-3.301c0.101,-1.215 0.025,-2.43 0.025,-3.618c0,-0.027 -0.025,-0.027 -0.052,-0.055c-14.861,-0.054 -29.671,-0.054 -44.557,-0.054l0.002,0.003Zm39.891,1.981c0.271,-0.009 0.534,0.1 0.726,0.3c0.191,0.2 0.296,0.473 0.288,0.756c-0.021,0.57 -0.467,1.022 -1.014,1.03c-0.552,-0.02 -0.995,-0.481 -1.015,-1.056c-0.011,-0.281 0.093,-0.554 0.287,-0.751c0.193,-0.197 0.458,-0.298 0.728,-0.279Zm-13.593,-30.136c-7.507,0 -15.038,0.026 -22.546,0c-1.009,-0.033 -1.987,0.367 -2.705,1.106c-0.719,0.738 -1.116,1.751 -1.099,2.802c0.053,7.212 0.026,14.42 0.026,21.63l0,0.502l0.001,0l44.632,0l0,-22.528c-0.048,-1.284 -0.742,-2.448 -1.826,-3.063c-0.612,-0.347 -1.308,-0.503 -2.003,-0.449l-14.48,0Zm-10.649,15.74l0,5.837c0.038,0.366 -0.094,0.728 -0.355,0.976c-0.283,0.269 -0.69,0.341 -1.042,0.185c-0.358,-0.134 -0.606,-0.476 -0.633,-0.871l0,-12.016c-0.039,-0.38 0.124,-0.752 0.424,-0.971c0.3,-0.22 0.691,-0.252 1.021,-0.086c0.394,0.198 0.627,0.632 0.583,1.085l0,5.863l0.002,-0.002Zm-10.146,1.585l0,4.436c0.003,0.479 -0.313,0.896 -0.761,1.004c-0.438,0.113 -0.894,-0.092 -1.116,-0.502c-0.083,-0.181 -0.126,-0.38 -0.126,-0.581l0,-8.768c-0.012,-0.381 0.176,-0.738 0.491,-0.932c0.315,-0.194 0.706,-0.194 1.021,0c0.315,0.194 0.503,0.551 0.492,0.932l-0.001,4.411Zm5.072,1.585l0,2.72c0.03,0.294 -0.06,0.587 -0.248,0.808c-0.189,0.221 -0.457,0.35 -0.741,0.354c-0.282,-0.001 -0.551,-0.124 -0.743,-0.339c-0.192,-0.215 -0.29,-0.503 -0.271,-0.796l0,-5.494c-0.025,-0.29 0.068,-0.578 0.256,-0.794c0.188,-0.215 0.454,-0.339 0.733,-0.342c0.285,0 0.558,0.121 0.754,0.336c0.197,0.214 0.301,0.503 0.287,0.8c-0.027,0.898 -0.027,1.822 -0.027,2.747Zm8.114,-2.14l0,-4.912c-0.01,-0.468 0.264,-0.892 0.685,-1.056c0.423,-0.166 0.899,-0.001 1.141,0.396c0.129,0.214 0.199,0.461 0.204,0.713l0,9.694c0.028,0.298 -0.066,0.595 -0.259,0.816c-0.194,0.222 -0.468,0.348 -0.756,0.346c-0.293,-0.003 -0.571,-0.133 -0.769,-0.358c-0.197,-0.226 -0.296,-0.526 -0.272,-0.83c0.026,-1.587 0.026,-3.198 0.026,-4.809Zm20.491,-2.799c0.035,4.369 -3.337,7.939 -7.532,7.976c-4.194,0.036 -7.623,-3.476 -7.658,-7.844c-0.035,-4.369 3.337,-7.94 7.532,-7.976c2.017,-0.026 3.96,0.788 5.398,2.261c1.438,1.473 2.251,3.483 2.26,5.583Zm-8.596,5.678l0,-5.097c-0.023,-0.139 -0.085,-0.267 -0.178,-0.37c-1.041,-1.109 -2.079,-2.191 -3.119,-3.274c-0.088,-0.086 -0.181,-0.165 -0.279,-0.238c-1.068,1.608 -1.259,3.677 -0.507,5.467c0.684,1.901 2.079,3.037 4.083,3.512Zm2.054,0c1.789,-0.365 3.295,-1.615 4.037,-3.349c0.742,-1.735 0.626,-3.736 -0.309,-5.366c-1.243,1.162 -2.435,2.245 -3.601,3.38c-0.102,0.079 -0.127,0.291 -0.152,0.423l0,4.595c-0.002,0.106 0.007,0.213 0.025,0.317Zm2.333,-10.302c-2.054,-1.69 -5.148,-1.374 -6.467,-0.185c1.041,1.084 2.08,2.166 3.145,3.248c1.09,-0.976 2.181,-2.006 3.322,-3.063Z" style="fill:#fff;fill-rule:nonzero;stroke:#c8c8c8;stroke-width:0.1px;"/></svg>