<?xml version="1.0" encoding="UTF-8"?>
<svg width="1440px" height="241px" viewBox="0 0 1440 241" version="1.1" xmlns="http://www.w3.org/2000/svg" xmlns:xlink="http://www.w3.org/1999/xlink">
    <!-- Generator: Sketch 52.6 (67491) - http://www.bohemiancoding.com/sketch -->
    <title>onda2</title>
    <desc>Created with Sketch.</desc>
    <defs>
        <linearGradient x1="100%" y1="53.6316923%" x2="0%" y2="53.6316923%" id="linearGradient-1">
            <stop stop-color="#247EBF" offset="0%"></stop>
            <stop stop-color="#2AE7FC" offset="100%"></stop>
        </linearGradient>
    </defs>
    <g id="Design" stroke="none" stroke-width="1" fill="none" fill-rule="evenodd" fill-opacity="0.200000003">
        <g id="Landing-Page" transform="translate(0.000000, -1351.000000)" fill="url(#linearGradient-1)">
            <path d="M7.31369863,1313.47093 C48.4595117,1323.64926 220.600844,1413.86281 383.339907,1414.20589 C630.932219,1414.72785 907.900772,1329.91197 1071.59274,1405.31272 C1296.62478,1508.96829 1383.76064,1385.60746 1445.78328,1388.85793 L1433.3274,1626.53041 C1389.11558,1626.29498 1274.93614,1628.33193 1227.71525,1598.86374 C1011.87671,1464.16977 1008.56439,1527.37249 776.738108,1559.10887 C544.911825,1590.84525 448.030065,1489.35523 272.984214,1498.68975 C138.175378,1505.87858 108.276907,1522.59918 -5.14218868,1551.14342 L7.31369863,1313.47093 Z" id="onda2" transform="translate(720.320548, 1470.000671) rotate(-3.000000) translate(-720.320548, -1470.000671) "></path>
        </g>
    </g>
</svg>