<?xml version="1.0" encoding="UTF-8"?>
<svg width="1441px" height="283px" viewBox="0 0 1441 283" version="1.1" xmlns="http://www.w3.org/2000/svg" xmlns:xlink="http://www.w3.org/1999/xlink">
    <!-- Generator: Sketch 52.6 (67491) - http://www.bohemiancoding.com/sketch -->
    <title>onda5 </title>
    <desc>Created with Sketch.</desc>
    <g id="Design" stroke="none" stroke-width="1" fill="none" fill-rule="evenodd" fill-opacity="0.471240942" opacity="0.5">
        <g id="Landing-Page-Copy" transform="translate(0.000000, -1266.000000)" fill="#2AE7FC">
            <g id="Group-18" transform="translate(0.000000, 1266.000000)">
                <path d="M0,99.4828177 C106.154509,123.72238 202.316619,25.7378116 422.973694,66.9012533 C643.630768,108.064695 669.909041,99.4828177 772.986457,66.9012533 C876.063873,34.3196889 1041.00305,-55.1887562 1264.77623,48.8688658 C1309.24517,69.5475382 1398.03621,97.0054215 1440.56373,99.4828177 L1440.56373,272.482818 C1339.44578,272.482818 1238.78992,239.931648 1197.97298,213.141608 C1044.57833,112.461615 999.358294,140.710193 772.986457,253.790675 C602.253378,339.077694 470.190624,209.366389 296.652091,197.41448 C240.099088,193.519574 138.573677,272.482818 0,272.482818 L0,99.4828177 Z" id="onda5-" transform="translate(720.281864, 141.327216) scale(-1, 1) translate(-720.281864, -141.327216) "></path>
            </g>
        </g>
    </g>
</svg>