<?xml version="1.0" encoding="UTF-8" standalone="no"?><!DOCTYPE svg PUBLIC "-//W3C//DTD SVG 1.1//EN" "http://www.w3.org/Graphics/SVG/1.1/DTD/svg11.dtd"><svg width="100%" height="100%" viewBox="0 0 50 50" version="1.1" xmlns="http://www.w3.org/2000/svg" xmlns:xlink="http://www.w3.org/1999/xlink" xml:space="preserve" xmlns:serif="http://www.serif.com/" style="fill-rule:evenodd;clip-rule:evenodd;stroke-linejoin:round;stroke-miterlimit:1.41421;"><path id="Path_427" d="M6.807,0.482l0.03,0.002l0.167,0.004l0.169,0.004l0.17,0.002l0.17,0.002l0.172,0l0.171,0l0.347,-0.002l0.701,-0.006l0.355,-0.003l0.357,-0.001l0.036,0.007l0.029,0.019l0.02,0.03l0.007,0.035l0,1.407l0.001,1.4l0.001,0.701l0.002,0.702l0.003,0.703l0.006,0.704l0.007,0.707l0.009,0.706l0.004,0.05l0.007,0.049l0.008,0.05l0.011,0.049l0.013,0.048l0.016,0.048l0.017,0.046l0.019,0.046l0.022,0.045l0.024,0.044l0.025,0.043l0.028,0.042l0.029,0.041l0.032,0.039l0.033,0.038l0.036,0.037l0.14,0.139l0.142,0.137l0.143,0.137l0.143,0.136l0.145,0.135l0.144,0.135l0.292,0.269l0.295,0.27l0.298,0.27l0.301,0.274l0.241,0.221l0.102,-0.094l0.163,-0.149l0.326,-0.295l0.324,-0.292l0.321,-0.291l0.319,-0.291l0.158,-0.145l0.157,-0.146l0.156,-0.147l0.155,-0.147l0.153,-0.149l0.143,-0.14l0.011,-0.02l0.016,-0.03l0.013,-0.031l0.013,-0.031l0.011,-0.031l0.01,-0.032l0.009,-0.032l0.007,-0.033l0.006,-0.032l0.005,-0.033l0.003,-0.034l0.002,-0.033l0,-0.033l-0.001,-0.034l-0.002,-0.033l-0.004,-0.036l-0.001,-0.01l0,-7.005l0.007,-0.035l0.02,-0.03l0.03,-0.02l0.035,-0.007l0.794,0.001l0.39,0.001l0.386,0.002l0.381,0.003l0.378,0.005l0.375,0.007l0.372,0.01l0.017,0.001l0.02,0.002l0.02,0.003l0.019,0.005l0.019,0.005l0.019,0.007l0.035,0.015l0.035,0.018l0.033,0.021l0.033,0.023l0.031,0.025l0.03,0.027l0.029,0.028l0.027,0.029l0.026,0.029l0.025,0.03l0.023,0.031l0.021,0.03l0.02,0.031l0.066,0.114l0.065,0.112l0.067,0.111l0.067,0.111l0.067,0.111l0.069,0.11l0.069,0.11l0.07,0.109l0.071,0.109l0.071,0.108l0.073,0.108l0.072,0.107l0.074,0.107l0.059,0.085l0,-1.751l0.007,-0.035l0.02,-0.03l0.03,-0.02l0.035,-0.007l10.583,0l0.035,0.007l0.03,0.02l0.02,0.03l0.007,0.035l0,6.369l0.89,0.36l0.934,0.377l0.464,0.189l0.464,0.189l0.465,0.191l0.41,0.169l4.507,-4.462l0.03,-0.019l0.034,-0.007l0.035,0.006l0.03,0.02l1.903,1.864l1.891,1.854l0.943,0.926l0.943,0.927l0.943,0.931l0.945,0.934l0.02,0.03l0.007,0.035l-0.007,0.035l-0.02,0.03l-3.364,3.331l-0.039,0.038l-0.041,0.038l-0.084,0.075l-0.086,0.074l-0.087,0.073l-0.173,0.145l-0.085,0.072l-0.082,0.072l-0.039,0.036l-0.038,0.037l-0.037,0.036l-0.036,0.037l-0.034,0.036l-0.032,0.037l-0.031,0.038l-0.029,0.037l-0.027,0.038l-0.024,0.038l-0.023,0.038l-0.021,0.038l-0.018,0.039l-0.015,0.039l-0.014,0.039l-0.01,0.039l-0.003,0.015l-0.002,0.017l-0.002,0.017l-0.001,0.016l-0.001,0.037l0.002,0.037l0.004,0.038l0.007,0.039l0.009,0.039l0.011,0.041l0.013,0.042l0.014,0.042l0.017,0.044l0.018,0.043l0.02,0.045l0.021,0.045l0.022,0.045l0.024,0.046l0.049,0.093l0.053,0.094l0.107,0.19l0.053,0.096l0.05,0.096l0.024,0.048l0.023,0.048l0.022,0.048l0.02,0.046l0.041,0.089l0.042,0.092l0.04,0.092l0.039,0.093l0.039,0.093l0.037,0.093l0.036,0.094l0.036,0.094l0.034,0.094l0.033,0.095l0.032,0.096l0.031,0.095l0.03,0.096l0.03,0.096l0.028,0.097l0.027,0.098l0.012,0.051l0.011,0.044l0.013,0.042l0.013,0.039l0.014,0.037l0.015,0.034l0.016,0.032l0.016,0.03l0.017,0.027l0.018,0.025l0.019,0.024l0.019,0.021l0.02,0.02l0.021,0.018l0.022,0.017l0.022,0.015l0.024,0.014l0.025,0.012l0.026,0.012l0.027,0.01l0.029,0.009l0.03,0.008l0.031,0.007l0.033,0.006l0.034,0.004l0.035,0.004l0.037,0.003l0.039,0.001l0.04,0.001l0.041,-0.001l0.043,-0.001l0.046,-0.002l0.333,-0.005l0.331,-0.004l0.331,-0.002l0.33,-0.001l0.33,-0.001l0.329,0l0.658,0.002l1.317,0.007l0.66,0.003l0.661,0.001l0.667,0l0.035,0.007l0.03,0.02l0.02,0.029l0.007,0.035l0,10.565l-0.007,0.035l-0.02,0.03l-0.03,0.02l-0.035,0.007l-6.089,0l-0.013,-0.001l-0.028,-0.004l-0.025,-0.002l-0.025,-0.002l-0.025,0l-0.025,0.002l-0.025,0.002l-0.024,0.003l-0.024,0.005l-0.023,0.006l-0.024,0.007l-0.022,0.007l-0.023,0.009l-0.022,0.01l-0.021,0.011l-0.021,0.012l-0.02,0.012l-0.02,0.014l-0.019,0.015l-0.018,0.015l-0.018,0.016l-0.016,0.017l-0.016,0.018l-0.016,0.018l-0.014,0.02l-0.013,0.02l-0.013,0.02l-0.012,0.022l-0.01,0.022l-0.01,0.023l-0.008,0.023l-0.008,0.024l-0.007,0.027l-0.002,0.008l-0.072,0.199l-0.074,0.199l-0.075,0.199l-0.077,0.2l-0.078,0.2l-0.08,0.2l-0.162,0.4l-0.164,0.402l-0.166,0.403l-0.165,0.406l-0.082,0.203l-0.06,0.148l4.507,4.462l0.02,0.03l0.007,0.035l-0.007,0.036l-0.02,0.029l-1.887,1.848l-1.879,1.841l-0.937,0.921l-0.936,0.921l-0.936,0.922l-0.935,0.923l-0.03,0.02l-0.034,0.007l-0.035,-0.007l-0.03,-0.02l-4.452,-4.408l-0.864,0.34l-0.892,0.353l-0.438,0.174l-0.433,0.173l-0.428,0.172l-0.414,0.168l-0.017,0.013l-0.024,0.022l-0.023,0.023l-0.022,0.024l-0.02,0.026l-0.018,0.026l-0.017,0.027l-0.015,0.028l-0.014,0.029l-0.011,0.03l-0.011,0.03l-0.008,0.031l-0.007,0.031l-0.005,0.032l-0.003,0.032l-0.001,0.035l-0.004,0.375l-0.004,0.377l-0.002,0.377l-0.002,0.376l-0.001,0.378l0.001,0.377l0.001,0.755l0.007,1.516l0.003,0.761l0.001,0.763l-0.007,0.035l-0.019,0.03l-0.03,0.02l-0.035,0.007l-10.58,0l-0.035,-0.007l-0.03,-0.02l-0.02,-0.03l-0.006,-0.035l0,-1.751l-0.002,-0.517l-0.003,-0.516l-0.006,-1.034l-0.002,-0.517l0,-0.258l0,-0.259l0.002,-0.259l0.002,-0.259l0.004,-0.258l0.005,-0.26l0.002,-0.05l0,-0.046l-0.001,-0.044l-0.002,-0.042l-0.003,-0.04l-0.005,-0.039l-0.005,-0.036l-0.008,-0.035l-0.008,-0.032l-0.01,-0.031l-0.011,-0.029l-0.012,-0.027l-0.013,-0.025l-0.014,-0.024l-0.016,-0.022l-0.017,-0.021l-0.018,-0.02l-0.02,-0.018l-0.021,-0.017l-0.022,-0.015l-0.025,-0.015l-0.026,-0.014l-0.028,-0.012l-0.031,-0.011l-0.032,-0.011l-0.035,-0.008l-0.036,-0.008l-0.039,-0.006l-0.041,-0.005l-0.043,-0.004l-0.014,0l-0.02,0.144l-0.03,0.225l-0.029,0.226l-0.03,0.224l-0.03,0.224l-0.017,0.111l-0.017,0.111l-0.018,0.111l-0.019,0.111l-0.02,0.11l-0.021,0.11l-0.021,0.087l-0.022,0.086l-0.023,0.084l-0.024,0.085l-0.025,0.083l-0.027,0.084l-0.027,0.083l-0.028,0.082l-0.03,0.082l-0.031,0.082l-0.031,0.081l-0.033,0.08l-0.034,0.081l-0.035,0.079l-0.036,0.079l-0.036,0.078l-0.038,0.078l-0.039,0.078l-0.04,0.076l-0.041,0.077l-0.042,0.075l-0.043,0.075l-0.044,0.075l-0.045,0.074l-0.046,0.073l-0.047,0.072l-0.048,0.072l-0.049,0.072l-0.049,0.07l-0.051,0.07l-0.051,0.069l-0.053,0.069l-0.053,0.068l-0.055,0.067l-0.055,0.067l-0.056,0.065l-0.057,0.065l-0.058,0.065l-0.059,0.063l-0.059,0.063l-0.061,0.062l-0.061,0.061l-0.062,0.061l-0.063,0.059l-0.064,0.059l-0.064,0.058l-0.066,0.057l-0.066,0.057l-0.067,0.055l-0.068,0.055l-0.068,0.054l-0.07,0.053l-0.07,0.052l-0.071,0.051l-0.071,0.05l-0.073,0.05l-0.073,0.048l-0.074,0.048l-0.075,0.046l-0.075,0.046l-0.076,0.045l-0.077,0.044l-0.077,0.042l-0.078,0.042l-0.079,0.041l-0.079,0.04l-0.08,0.038l-0.08,0.038l-0.08,0.036l-0.081,0.035l-0.081,0.034l-0.081,0.033l-0.082,0.032l-0.082,0.031l-0.083,0.029l-0.083,0.029l-0.083,0.027l-0.083,0.026l-0.084,0.026l-0.084,0.024l-0.084,0.022l-0.084,0.022l-0.085,0.021l-0.085,0.019l-0.085,0.019l-0.086,0.017l-0.085,0.016l-0.086,0.015l-0.086,0.014l-0.086,0.012l-0.086,0.012l-0.086,0.01l-0.086,0.01l-0.087,0.008l-0.087,0.007l-0.086,0.006l-0.087,0.005l-0.087,0.003l-0.087,0.003l-0.087,0.001l-0.086,0l-0.087,-0.001l-0.087,-0.002l-0.087,-0.003l-0.087,-0.004l-0.087,-0.006l-0.087,-0.006l-0.087,-0.008l-0.086,-0.009l-0.087,-0.01l-0.087,-0.011l-0.086,-0.013l-0.086,-0.013l-0.086,-0.015l-0.087,-0.016l-0.085,-0.017l-0.086,-0.018l-0.086,-0.019l-0.085,-0.02l-0.085,-0.022l-0.085,-0.023l-0.085,-0.024l-0.085,-0.025l-0.084,-0.026l-0.084,-0.027l-0.084,-0.029l-0.083,-0.029l-0.082,-0.031l-0.117,-0.041l-0.118,-0.044l-0.117,-0.046l-0.115,-0.048l-0.114,-0.05l-0.113,-0.053l-0.112,-0.054l-0.11,-0.056l-0.108,-0.059l-0.108,-0.06l-0.105,-0.062l-0.105,-0.065l-0.103,-0.066l-0.101,-0.068l-0.1,-0.069l-0.099,-0.072l-0.097,-0.073l-0.095,-0.075l-0.094,-0.077l-0.092,-0.078l-0.091,-0.08l-0.089,-0.082l-0.087,-0.083l-0.086,-0.085l-0.083,-0.086l-0.083,-0.088l-0.08,-0.09l-0.079,-0.091l-0.077,-0.092l-0.075,-0.094l-0.073,-0.095l-0.072,-0.096l-0.069,-0.098l-0.068,-0.099l-0.066,-0.1l-0.064,-0.102l-0.062,-0.102l-0.06,-0.104l-0.058,-0.106l-0.056,-0.106l-0.054,-0.107l-0.052,-0.109l-0.05,-0.109l-0.047,-0.111l-0.046,-0.111l-0.044,-0.113l-0.041,-0.113l-0.04,-0.114l-0.037,-0.116l-0.035,-0.116l-0.032,-0.116l-0.031,-0.118l-0.028,-0.119l-0.026,-0.119l-0.024,-0.12l-0.021,-0.12l-0.019,-0.122l-0.017,-0.122l-0.014,-0.122l-0.012,-0.123l-0.009,-0.124l-0.007,-0.124l-0.005,-0.125l-0.002,-0.124l-0.01,-0.608l-0.008,-0.608l-0.006,-0.607l-0.005,-0.607l-0.003,-0.606l-0.003,-0.606l-0.001,-0.606l0,-0.605l0.001,-1.212l0.002,-1.212l0.003,-1.213l0.001,-1.215l0,-12.372l0,-0.052l-0.001,-0.051l-0.002,-0.051l-0.003,-0.052l-0.003,-0.051l-0.005,-0.051l-0.005,-0.05l-0.006,-0.051l-0.007,-0.051l-0.008,-0.05l-0.009,-0.05l-0.009,-0.05l-0.011,-0.05l-0.011,-0.05l-0.012,-0.05l-0.013,-0.049l-0.013,-0.049l-0.015,-0.049l-0.015,-0.049l-0.017,-0.048l-0.017,-0.048l-0.017,-0.048l-0.019,-0.047l-0.02,-0.048l-0.02,-0.047l-0.021,-0.046l-0.022,-0.047l-0.023,-0.046l-0.023,-0.045l-0.024,-0.046l-0.025,-0.045l-0.026,-0.045l-0.299,-0.506l-0.298,-0.507l-0.595,-1.015l-0.593,-1.018l-0.593,-1.02l-1.186,-2.042l-0.595,-1.022l-0.595,-1.02l-0.016,-0.022l-0.018,-0.028l-0.017,-0.029l-0.015,-0.029l-0.015,-0.029l-0.013,-0.03l-0.011,-0.03l-0.011,-0.031l-0.009,-0.031l-0.008,-0.031l-0.007,-0.031l-0.006,-0.032l-0.004,-0.031l-0.003,-0.032l-0.002,-0.032l-0.001,-0.032l0.001,-0.032l0.002,-0.032l0.003,-0.032l0.004,-0.031l0.006,-0.032l0.007,-0.031l0.008,-0.031l0.009,-0.031l0.011,-0.031l0.011,-0.03l0.013,-0.03l0.015,-0.029l0.015,-0.029l0.017,-0.029l0.018,-0.028l0.016,-0.022l0.683,-1.172l0.685,-1.177l0.685,-1.179l0.685,-1.18l1.37,-2.366l1.367,-2.363l0.011,-0.025l0.014,-0.03l0.016,-0.03l0.017,-0.029l0.018,-0.029l0.019,-0.027l0.02,-0.027l0.021,-0.025l0.021,-0.025l0.023,-0.024l0.024,-0.022l0.025,-0.022l0.025,-0.021l0.026,-0.019l0.027,-0.019l0.028,-0.018l0.028,-0.016l0.029,-0.016l0.029,-0.014l0.03,-0.013l0.031,-0.012l0.031,-0.01l0.032,-0.01l0.032,-0.008l0.032,-0.007l0.033,-0.006l0.033,-0.004l0.034,-0.003l0.034,-0.002l0.034,0l0.034,0.001Zm-0.066,0.091l-0.03,0.001l-0.029,0.003l-0.03,0.004l-0.029,0.005l-0.029,0.006l-0.029,0.007l-0.028,0.009l-0.027,0.009l-0.028,0.011l-0.026,0.012l-0.027,0.012l-0.026,0.014l-0.025,0.015l-0.024,0.015l-0.024,0.017l-0.023,0.017l-0.023,0.019l-0.022,0.019l-0.021,0.02l-0.02,0.021l-0.02,0.022l-0.018,0.023l-0.018,0.024l-0.017,0.024l-0.016,0.025l-0.015,0.026l-0.014,0.027l-0.013,0.027l-0.011,0.028l-1.37,2.368l-1.371,2.366l-0.685,1.18l-0.685,1.179l-0.685,1.178l-0.685,1.174l-0.017,0.025l-0.016,0.025l-0.015,0.025l-0.014,0.026l-0.012,0.026l-0.012,0.026l-0.01,0.027l-0.01,0.027l-0.008,0.028l-0.007,0.027l-0.006,0.028l-0.005,0.028l-0.004,0.028l-0.003,0.028l-0.002,0.029l0,0.028l0,0.028l0.002,0.029l0.003,0.028l0.004,0.028l0.005,0.028l0.006,0.028l0.007,0.028l0.008,0.027l0.01,0.027l0.01,0.027l0.012,0.026l0.012,0.027l0.014,0.025l0.015,0.026l0.016,0.024l0.017,0.025l0.597,1.023l0.595,1.022l1.186,2.042l0.593,1.02l0.593,1.017l0.595,1.016l0.298,0.507l0.299,0.506l0.026,0.046l0.026,0.046l0.025,0.047l0.024,0.047l0.024,0.047l0.022,0.048l0.022,0.048l0.021,0.049l0.02,0.048l0.019,0.049l0.019,0.05l0.017,0.049l0.017,0.05l0.016,0.05l0.015,0.05l0.014,0.051l0.013,0.051l0.012,0.051l0.012,0.051l0.011,0.052l0.01,0.051l0.009,0.052l0.008,0.052l0.007,0.052l0.006,0.052l0.006,0.053l0.004,0.052l0.004,0.053l0.003,0.053l0.002,0.052l0.001,0.053l0,0.053l0,12.372l-0.001,1.216l-0.003,1.213l-0.002,1.211l-0.002,1.212l0.001,0.605l0.001,0.606l0.002,0.606l0.004,0.606l0.004,0.606l0.007,0.607l0.008,0.607l0.01,0.608l0.002,0.124l0.004,0.123l0.007,0.122l0.009,0.122l0.012,0.121l0.014,0.121l0.017,0.12l0.018,0.119l0.021,0.119l0.024,0.118l0.025,0.118l0.028,0.117l0.03,0.116l0.032,0.115l0.035,0.114l0.036,0.114l0.039,0.112l0.041,0.112l0.043,0.111l0.045,0.11l0.047,0.109l0.049,0.108l0.052,0.106l0.053,0.106l0.055,0.105l0.057,0.104l0.059,0.102l0.061,0.101l0.063,0.1l0.065,0.099l0.067,0.098l0.069,0.096l0.07,0.095l0.072,0.094l0.074,0.092l0.076,0.091l0.078,0.09l0.079,0.088l0.081,0.086l0.083,0.085l0.084,0.084l0.086,0.082l0.088,0.081l0.089,0.079l0.091,0.077l0.092,0.075l0.094,0.074l0.096,0.073l0.097,0.07l0.098,0.069l0.1,0.067l0.102,0.065l0.103,0.063l0.104,0.061l0.106,0.06l0.107,0.057l0.108,0.056l0.11,0.054l0.111,0.051l0.113,0.05l0.114,0.047l0.115,0.046l0.116,0.043l0.117,0.041l0.082,0.03l0.083,0.03l0.082,0.028l0.083,0.027l0.083,0.026l0.083,0.024l0.084,0.024l0.084,0.022l0.084,0.022l0.084,0.02l0.084,0.019l0.085,0.018l0.085,0.016l0.084,0.016l0.085,0.014l0.086,0.014l0.085,0.012l0.085,0.011l0.086,0.01l0.085,0.009l0.086,0.007l0.085,0.007l0.086,0.005l0.086,0.005l0.085,0.003l0.086,0.002l0.086,0.001l0.086,-0.001l0.085,-0.001l0.086,-0.002l0.086,-0.004l0.085,-0.005l0.086,-0.005l0.085,-0.007l0.085,-0.008l0.086,-0.01l0.085,-0.01l0.085,-0.011l0.084,-0.013l0.085,-0.013l0.085,-0.015l0.084,-0.016l0.084,-0.017l0.084,-0.018l0.084,-0.019l0.083,-0.021l0.084,-0.021l0.083,-0.023l0.082,-0.023l0.083,-0.025l0.082,-0.026l0.082,-0.027l0.082,-0.028l0.081,-0.029l0.081,-0.031l0.081,-0.031l0.08,-0.033l0.08,-0.033l0.08,-0.035l0.079,-0.036l0.079,-0.037l0.078,-0.038l0.078,-0.039l0.078,-0.04l0.077,-0.041l0.076,-0.042l0.076,-0.044l0.075,-0.044l0.074,-0.045l0.074,-0.046l0.073,-0.047l0.072,-0.047l0.071,-0.049l0.071,-0.05l0.07,-0.05l0.069,-0.051l0.069,-0.053l0.067,-0.053l0.067,-0.054l0.066,-0.054l0.065,-0.056l0.065,-0.056l0.064,-0.058l0.062,-0.058l0.063,-0.059l0.061,-0.059l0.06,-0.061l0.06,-0.061l0.059,-0.062l0.057,-0.062l0.058,-0.064l0.056,-0.064l0.055,-0.065l0.054,-0.065l0.054,-0.066l0.053,-0.067l0.051,-0.068l0.051,-0.068l0.05,-0.069l0.049,-0.07l0.048,-0.07l0.047,-0.071l0.047,-0.071l0.045,-0.073l0.044,-0.072l0.043,-0.074l0.043,-0.074l0.041,-0.074l0.041,-0.075l0.039,-0.076l0.038,-0.076l0.038,-0.077l0.036,-0.077l0.036,-0.078l0.034,-0.079l0.033,-0.079l0.033,-0.079l0.031,-0.08l0.03,-0.08l0.029,-0.081l0.028,-0.081l0.027,-0.082l0.026,-0.082l0.025,-0.083l0.024,-0.083l0.022,-0.084l0.022,-0.084l0.02,-0.084l0.021,-0.108l0.02,-0.109l0.019,-0.11l0.018,-0.11l0.017,-0.11l0.016,-0.111l0.031,-0.223l0.029,-0.224l0.029,-0.225l0.03,-0.226l0.031,-0.226l0.051,0.001l0.048,0.002l0.047,0.004l0.045,0.005l0.042,0.007l0.041,0.008l0.039,0.01l0.037,0.012l0.035,0.013l0.033,0.015l0.032,0.016l0.029,0.018l0.028,0.019l0.026,0.021l0.025,0.022l0.022,0.025l0.021,0.025l0.019,0.028l0.018,0.029l0.016,0.03l0.014,0.032l0.013,0.034l0.011,0.035l0.01,0.037l0.008,0.039l0.006,0.04l0.005,0.042l0.004,0.044l0.002,0.045l0.001,0.047l-0.001,0.049l-0.002,0.05l-0.005,0.258l-0.003,0.259l-0.003,0.258l-0.001,0.258l-0.001,0.259l0,0.258l0.002,0.517l0.007,1.033l0.003,0.517l0.001,0.517l0,1.751l10.58,0l-0.002,-0.763l-0.002,-0.761l-0.007,-1.515l-0.002,-0.756l0,-0.378l0,-0.377l0.002,-0.377l0.002,-0.377l0.004,-0.377l0.005,-0.377l0.001,-0.037l0.003,-0.038l0.006,-0.037l0.008,-0.037l0.01,-0.036l0.012,-0.035l0.013,-0.035l0.016,-0.033l0.018,-0.033l0.019,-0.032l0.022,-0.03l0.023,-0.029l0.025,-0.029l0.027,-0.026l0.028,-0.026l0.03,-0.023l0.425,-0.173l0.429,-0.172l0.433,-0.173l0.438,-0.175l0.892,-0.353l0.92,-0.361l4.495,4.45l0.935,-0.924l0.935,-0.922l0.937,-0.921l0.937,-0.92l1.879,-1.842l1.887,-1.847l-4.55,-4.505l0.082,-0.204l0.082,-0.204l0.166,-0.405l0.165,-0.404l0.164,-0.401l0.162,-0.4l0.079,-0.2l0.078,-0.199l0.077,-0.199l0.075,-0.199l0.074,-0.199l0.072,-0.198l0.007,-0.029l0.009,-0.028l0.01,-0.028l0.011,-0.027l0.013,-0.026l0.013,-0.025l0.015,-0.025l0.016,-0.023l0.017,-0.023l0.018,-0.022l0.019,-0.021l0.02,-0.02l0.02,-0.019l0.022,-0.018l0.022,-0.017l0.023,-0.016l0.024,-0.015l0.025,-0.014l0.025,-0.013l0.026,-0.011l0.026,-0.011l0.027,-0.009l0.027,-0.008l0.028,-0.007l0.028,-0.005l0.028,-0.004l0.029,-0.003l0.029,-0.001l0.03,0l0.029,0.001l0.03,0.003l0.03,0.004l6.089,0l0,-10.565l-0.667,0l-0.662,-0.001l-0.66,-0.003l-1.316,-0.006l-0.658,-0.002l-0.329,0l-0.33,0l-0.329,0.002l-0.331,0.002l-0.33,0.004l-0.332,0.004l-0.046,0.003l-0.044,0.001l-0.043,0l-0.043,0l-0.041,-0.002l-0.039,-0.003l-0.039,-0.004l-0.038,-0.005l-0.036,-0.006l-0.035,-0.008l-0.034,-0.009l-0.033,-0.01l-0.032,-0.012l-0.031,-0.014l-0.029,-0.015l-0.029,-0.017l-0.027,-0.018l-0.026,-0.02l-0.025,-0.022l-0.024,-0.024l-0.023,-0.025l-0.022,-0.028l-0.021,-0.029l-0.02,-0.032l-0.018,-0.034l-0.018,-0.035l-0.017,-0.038l-0.015,-0.041l-0.015,-0.042l-0.013,-0.045l-0.012,-0.048l-0.012,-0.049l-0.027,-0.096l-0.027,-0.096l-0.029,-0.095l-0.03,-0.095l-0.031,-0.095l-0.032,-0.094l-0.033,-0.094l-0.033,-0.093l-0.035,-0.093l-0.036,-0.093l-0.037,-0.093l-0.038,-0.092l-0.039,-0.091l-0.04,-0.092l-0.041,-0.09l-0.042,-0.091l-0.02,-0.046l-0.021,-0.046l-0.022,-0.047l-0.024,-0.046l-0.049,-0.094l-0.052,-0.095l-0.107,-0.19l-0.053,-0.095l-0.051,-0.095l-0.024,-0.047l-0.023,-0.046l-0.021,-0.047l-0.021,-0.046l-0.019,-0.046l-0.018,-0.046l-0.016,-0.045l-0.013,-0.045l-0.012,-0.045l-0.01,-0.044l-0.007,-0.044l-0.005,-0.043l-0.002,-0.042l0,-0.042l0.001,-0.021l0.003,-0.021l0.003,-0.02l0.003,-0.02l0.012,-0.046l0.016,-0.044l0.017,-0.044l0.02,-0.043l0.023,-0.042l0.025,-0.042l0.027,-0.041l0.029,-0.041l0.031,-0.04l0.032,-0.039l0.034,-0.039l0.036,-0.038l0.037,-0.039l0.038,-0.037l0.04,-0.038l0.04,-0.037l0.083,-0.073l0.085,-0.073l0.174,-0.145l0.087,-0.073l0.085,-0.072l0.082,-0.074l0.04,-0.037l0.038,-0.038l3.364,-3.33l-0.945,-0.934l-0.943,-0.93l-0.943,-0.928l-0.943,-0.926l-1.891,-1.854l-1.903,-1.864l-4.55,4.505l-0.467,-0.192l-0.464,-0.191l-0.464,-0.189l-0.465,-0.189l-0.933,-0.377l-0.948,-0.384l0,-6.43l-10.583,0l0,2.038l-0.076,-0.106l-0.076,-0.107l-0.074,-0.107l-0.074,-0.107l-0.073,-0.108l-0.073,-0.108l-0.072,-0.109l-0.071,-0.109l-0.07,-0.11l-0.07,-0.11l-0.069,-0.111l-0.068,-0.111l-0.067,-0.111l-0.067,-0.112l-0.066,-0.113l-0.065,-0.113l-0.017,-0.027l-0.019,-0.027l-0.021,-0.028l-0.023,-0.028l-0.023,-0.027l-0.025,-0.026l-0.026,-0.025l-0.027,-0.023l-0.028,-0.022l-0.028,-0.02l-0.028,-0.018l-0.028,-0.015l-0.029,-0.013l-0.014,-0.005l-0.014,-0.004l-0.014,-0.003l-0.014,-0.003l-0.014,-0.001l-0.014,0l-0.371,-0.01l-0.374,-0.007l-0.378,-0.005l-0.381,-0.004l-0.385,-0.002l-0.39,-0.001l-0.794,0l0,7.005l0.004,0.037l0.003,0.037l0.001,0.038l-0.001,0.037l-0.002,0.037l-0.003,0.037l-0.005,0.037l-0.007,0.036l-0.008,0.037l-0.01,0.036l-0.011,0.035l-0.012,0.035l-0.014,0.035l-0.016,0.034l-0.017,0.033l-0.018,0.033l-0.153,0.15l-0.154,0.149l-0.155,0.148l-0.156,0.147l-0.158,0.146l-0.158,0.146l-0.319,0.291l-0.322,0.291l-0.324,0.292l-0.325,0.295l-0.163,0.149l-0.163,0.15l-0.304,-0.278l-0.301,-0.273l-0.298,-0.271l-0.295,-0.269l-0.292,-0.27l-0.145,-0.135l-0.144,-0.135l-0.144,-0.137l-0.143,-0.137l-0.143,-0.138l-0.141,-0.139l-0.038,-0.04l-0.037,-0.041l-0.034,-0.043l-0.032,-0.044l-0.029,-0.045l-0.028,-0.047l-0.026,-0.047l-0.023,-0.049l-0.021,-0.05l-0.019,-0.05l-0.017,-0.052l-0.014,-0.052l-0.012,-0.053l-0.009,-0.054l-0.007,-0.054l-0.004,-0.054l-0.01,-0.71l-0.007,-0.707l-0.005,-0.705l-0.004,-0.703l-0.002,-0.702l-0.001,-0.701l0,-1.4l0,-1.407l-0.358,0.002l-0.354,0.002l-0.702,0.007l-0.346,0.002l-0.173,0l-0.171,0l-0.171,-0.002l-0.171,-0.002l-0.169,-0.004l-0.169,-0.005l-0.031,-0.002l-0.03,-0.001l-0.031,0.001Zm9.194,20.775l0.004,0.068l0.004,0.065l0.006,0.063l0.005,0.061l0.005,0.062l0.003,0.061l0.001,0.064l0,20.929l-0.001,0.103l-0.003,0.102l-0.006,0.102l-0.008,0.1l-0.009,0.1l-0.012,0.099l-0.015,0.097l-0.016,0.097l-0.018,0.096l-0.02,0.094l-0.023,0.094l-0.024,0.092l-0.026,0.091l-0.029,0.09l-0.03,0.089l-0.032,0.088l-0.034,0.087l-0.035,0.085l-0.038,0.084l-0.039,0.083l-0.041,0.081l-0.043,0.08l-0.045,0.079l-0.046,0.077l-0.048,0.076l-0.05,0.074l-0.051,0.073l-0.053,0.072l-0.054,0.07l-0.056,0.069l-0.058,0.067l-0.059,0.065l-0.061,0.064l-0.062,0.062l-0.063,0.06l-0.065,0.059l-0.066,0.057l-0.068,0.056l-0.069,0.054l-0.07,0.052l-0.072,0.05l-0.072,0.048l-0.075,0.047l-0.075,0.044l-0.076,0.043l-0.078,0.041l-0.079,0.039l-0.08,0.037l-0.081,0.035l-0.082,0.033l-0.083,0.031l-0.085,0.029l-0.085,0.027l-0.086,0.024l-0.087,0.023l-0.088,0.021l-0.089,0.018l-0.09,0.016l-0.091,0.014l-0.092,0.012l-0.092,0.009l-0.094,0.007l-0.094,0.005l-0.094,0.003l-0.092,0.001l-0.091,0l-0.091,-0.003l-0.091,-0.005l-0.09,-0.008l-0.09,-0.009l-0.089,-0.012l-0.09,-0.014l-0.088,-0.016l-0.088,-0.018l-0.088,-0.02l-0.087,-0.023l-0.086,-0.025l-0.086,-0.026l-0.085,-0.029l-0.084,-0.031l-0.083,-0.033l-0.083,-0.035l-0.081,-0.037l-0.081,-0.039l-0.08,-0.041l-0.079,-0.043l-0.077,-0.045l-0.077,-0.047l-0.076,-0.048l-0.074,-0.051l-0.073,-0.053l-0.072,-0.054l-0.071,-0.057l-0.069,-0.058l-0.069,-0.06l-0.066,-0.062l-0.065,-0.063l-0.064,-0.065l-0.061,-0.067l-0.06,-0.068l-0.058,-0.069l-0.056,-0.07l-0.054,-0.072l-0.052,-0.072l-0.05,-0.074l-0.049,-0.076l-0.046,-0.076l-0.045,-0.077l-0.042,-0.078l-0.041,-0.08l-0.038,-0.08l-0.037,-0.081l-0.034,-0.082l-0.033,-0.083l-0.03,-0.084l-0.029,-0.084l-0.026,-0.085l-0.024,-0.086l-0.022,-0.087l-0.019,-0.087l-0.018,-0.087l-0.015,-0.088l-0.014,-0.089l-0.011,-0.089l-0.008,-0.09l-0.007,-0.09l-0.004,-0.09l-0.002,-0.09l-0.005,-0.635l-0.003,-0.636l-0.003,-0.635l-0.001,-0.635l-0.001,-0.635l0,-0.635l0.002,-1.271l0.007,-2.54l0.003,-1.271l0.001,-1.27l0,-11.599l7.278,0l0.001,0.073Zm11.366,-11.872l0.119,0.021l0.119,0.022l0.119,0.023l0.119,0.023l0.118,0.025l0.118,0.025l0.118,0.026l0.118,0.026l0.118,0.028l0.117,0.028l0.117,0.029l0.117,0.03l0.116,0.03l0.117,0.032l0.116,0.032l0.116,0.033l0.115,0.033l0.116,0.035l0.115,0.035l0.115,0.036l0.114,0.037l0.115,0.038l0.114,0.038l0.113,0.039l0.114,0.04l0.113,0.041l0.113,0.041l0.113,0.042l0.112,0.043l0.112,0.044l0.112,0.044l0.111,0.045l0.111,0.046l0.111,0.047l0.11,0.048l0.11,0.048l0.11,0.049l0.109,0.049l0.11,0.051l0.108,0.051l0.109,0.052l0.108,0.053l0.107,0.053l0.108,0.054l0.107,0.055l0.106,0.056l0.107,0.056l0.105,0.057l0.106,0.058l0.105,0.058l0.105,0.06l0.104,0.06l0.104,0.06l0.104,0.062l0.103,0.062l0.102,0.063l0.103,0.063l0.102,0.064l0.101,0.065l0.101,0.066l0.101,0.066l0.1,0.068l0.1,0.067l0.099,0.069l1.039,-1.071l1.031,-1.061l0.513,-0.526l0.512,-0.523l0.512,-0.521l0.511,-0.518l0.442,0.428l0.435,0.423l0.429,0.42l0.423,0.416l0.42,0.413l0.416,0.411l0.827,0.819l-0.513,0.507l-0.519,0.51l-1.048,1.028l-1.059,1.039l-0.533,0.524l-0.532,0.526l0.001,-0.001l0.114,0.166l0.114,0.166l0.111,0.167l0.109,0.168l0.108,0.17l0.106,0.17l0.105,0.171l0.102,0.173l0.101,0.173l0.099,0.174l0.097,0.176l0.096,0.176l0.093,0.177l0.092,0.178l0.09,0.179l0.088,0.18l0.087,0.18l0.084,0.182l0.083,0.182l0.081,0.183l0.079,0.184l0.077,0.185l0.075,0.186l0.074,0.186l0.071,0.187l0.07,0.188l0.068,0.189l0.065,0.189l0.064,0.19l0.062,0.191l0.061,0.191l0.058,0.192l0.051,0.207l0.024,0.094l0.023,0.088l0.022,0.081l0.022,0.076l0.022,0.07l0.023,0.065l0.023,0.059l0.023,0.055l0.013,0.025l0.012,0.024l0.013,0.024l0.014,0.022l0.013,0.021l0.015,0.02l0.014,0.019l0.015,0.018l0.016,0.017l0.017,0.016l0.017,0.015l0.017,0.014l0.019,0.013l0.019,0.013l0.02,0.012l0.02,0.011l0.022,0.01l0.022,0.009l0.024,0.009l0.024,0.008l0.025,0.008l0.026,0.006l0.028,0.007l0.028,0.005l0.06,0.01l0.065,0.008l0.07,0.006l0.076,0.004l0.081,0.004l0.087,0.002l0.093,0.001l0.099,0.001l0.22,0l4.581,0l0.011,0.001l0.012,0.004l0.013,0.006l0.015,0.007l0.039,0.019l0.025,0.01l0.03,0.011l0,4.794l-5.886,0l-0.075,0.242l-0.072,0.24l-0.071,0.238l-0.07,0.238l-0.136,0.47l-0.069,0.232l-0.069,0.231l-0.07,0.229l-0.071,0.228l-0.073,0.226l-0.038,0.112l-0.038,0.112l-0.039,0.111l-0.04,0.111l-0.04,0.11l-0.042,0.11l-0.042,0.11l-0.044,0.109l-0.044,0.108l-0.046,0.108l-0.046,0.105l-0.048,0.105l-0.048,0.104l-0.049,0.105l-0.1,0.208l-0.103,0.209l-0.106,0.209l-0.108,0.208l-0.11,0.21l-0.112,0.209l-0.114,0.21l-0.115,0.212l-0.234,0.425l-0.237,0.431l-0.119,0.218l-0.12,0.22l0.504,0.497l0.511,0.503l1.037,1.016l1.047,1.028l0.525,0.516l0.523,0.516l-0.433,0.419l-0.428,0.417l-0.85,0.829l-0.85,0.83l-0.428,0.417l-0.433,0.418l-1.01,-1.022l-1.027,-1.041l-0.518,-0.527l-0.519,-0.53l-0.521,-0.534l-0.522,-0.537l-0.1,0.069l-0.1,0.069l-0.1,0.068l-0.101,0.067l-0.102,0.066l-0.101,0.066l-0.103,0.065l-0.102,0.064l-0.103,0.063l-0.104,0.063l-0.104,0.062l-0.104,0.062l-0.104,0.06l-0.106,0.06l-0.105,0.059l-0.106,0.059l-0.106,0.057l-0.107,0.057l-0.107,0.056l-0.107,0.056l-0.108,0.055l-0.108,0.054l-0.108,0.053l-0.109,0.052l-0.109,0.052l-0.11,0.051l-0.11,0.05l-0.11,0.05l-0.11,0.048l-0.111,0.048l-0.111,0.047l-0.112,0.047l-0.112,0.045l-0.112,0.045l-0.112,0.044l-0.113,0.044l-0.113,0.042l-0.114,0.042l-0.113,0.041l-0.114,0.041l-0.115,0.039l-0.114,0.039l-0.115,0.038l-0.115,0.037l-0.116,0.036l-0.115,0.036l-0.116,0.035l-0.116,0.034l-0.117,0.033l-0.116,0.032l-0.117,0.032l-0.118,0.031l-0.117,0.03l-0.118,0.029l-0.118,0.028l-0.118,0.028l-0.118,0.027l-0.119,0.026l-0.118,0.025l-0.119,0.025l-0.12,0.023l-0.119,0.023l-0.12,0.022l-0.119,0.021l0,5.941l-4.814,0l0,-5.828l-0.421,-0.128l-0.417,-0.126l-0.822,-0.248l-0.406,-0.124l-0.405,-0.124l-0.403,-0.126l-0.402,-0.129l-0.033,-0.012l-0.033,-0.015l-0.034,-0.018l-0.033,-0.021l-0.032,-0.023l-0.031,-0.025l-0.03,-0.026l-0.028,-0.028l-0.026,-0.029l-0.024,-0.029l-0.021,-0.03l-0.018,-0.03l-0.008,-0.015l-0.006,-0.015l-0.006,-0.015l-0.005,-0.015l-0.004,-0.014l-0.003,-0.014l-0.002,-0.014l0,-0.014l-0.01,-0.582l-0.007,-0.582l-0.005,-0.585l-0.004,-0.587l-0.002,-0.592l-0.001,-0.596l0,-1.213l0.129,0.078l0.13,0.077l0.131,0.074l0.131,0.073l0.133,0.071l0.133,0.07l0.134,0.067l0.135,0.066l0.135,0.063l0.136,0.062l0.137,0.06l0.137,0.059l0.138,0.056l0.139,0.055l0.139,0.053l0.14,0.05l0.141,0.05l0.141,0.047l0.141,0.045l0.143,0.044l0.142,0.041l0.143,0.04l0.144,0.038l0.144,0.036l0.144,0.035l0.145,0.032l0.145,0.031l0.145,0.028l0.146,0.027l0.146,0.025l0.147,0.023l0.146,0.021l0.147,0.019l0.148,0.018l0.147,0.015l0.148,0.014l0.148,0.011l0.148,0.01l0.148,0.008l0.148,0.006l0.148,0.004l0.149,0.002l0.149,0l0.148,-0.001l0.149,-0.004l0.149,-0.005l0.148,-0.008l0.149,-0.009l0.149,-0.011l0.148,-0.014l0.149,-0.015l0.148,-0.017l0.148,-0.019l0.149,-0.021l0.148,-0.023l0.147,-0.025l0.148,-0.026l0.147,-0.029l0.148,-0.031l0.147,-0.033l0.146,-0.034l0.147,-0.037l0.146,-0.038l0.146,-0.041l0.102,-0.027l0.101,-0.029l0.102,-0.029l0.101,-0.03l0.1,-0.032l0.1,-0.032l0.1,-0.033l0.1,-0.035l0.098,-0.035l0.099,-0.036l0.098,-0.037l0.098,-0.038l0.097,-0.039l0.097,-0.04l0.096,-0.041l0.096,-0.041l0.096,-0.043l0.095,-0.044l0.095,-0.044l0.094,-0.045l0.093,-0.047l0.093,-0.047l0.093,-0.048l0.092,-0.049l0.092,-0.05l0.091,-0.05l0.091,-0.052l0.09,-0.052l0.089,-0.054l0.089,-0.054l0.089,-0.055l0.088,-0.056l0.087,-0.057l0.087,-0.057l0.086,-0.059l0.086,-0.059l0.085,-0.06l0.084,-0.061l0.084,-0.062l0.083,-0.062l0.083,-0.064l0.082,-0.064l0.081,-0.065l0.081,-0.066l0.08,-0.067l0.08,-0.067l0.079,-0.068l0.078,-0.069l0.077,-0.07l0.077,-0.071l0.077,-0.071l0.075,-0.072l0.075,-0.073l0.074,-0.074l0.074,-0.074l0.072,-0.075l0.072,-0.076l0.072,-0.077l0.07,-0.077l0.07,-0.079l0.069,-0.079l0.069,-0.079l0.067,-0.081l0.067,-0.081l0.073,-0.085l0.071,-0.086l0.07,-0.087l0.07,-0.087l0.068,-0.088l0.068,-0.088l0.066,-0.089l0.066,-0.089l0.064,-0.09l0.064,-0.09l0.062,-0.091l0.062,-0.091l0.061,-0.091l0.059,-0.093l0.059,-0.092l0.057,-0.093l0.057,-0.094l0.056,-0.094l0.054,-0.094l0.054,-0.095l0.053,-0.095l0.052,-0.096l0.05,-0.096l0.05,-0.097l0.049,-0.097l0.047,-0.097l0.047,-0.097l0.046,-0.098l0.045,-0.099l0.044,-0.098l0.042,-0.099l0.042,-0.1l0.041,-0.099l0.04,-0.1l0.038,-0.101l0.038,-0.1l0.037,-0.101l0.036,-0.101l0.034,-0.102l0.034,-0.102l0.033,-0.102l0.032,-0.102l0.031,-0.102l0.029,-0.103l0.029,-0.103l0.028,-0.103l0.027,-0.104l0.025,-0.104l0.025,-0.103l0.024,-0.104l0.023,-0.105l0.021,-0.104l0.021,-0.105l0.02,-0.105l0.018,-0.105l0.018,-0.105l0.017,-0.105l0.015,-0.105l0.015,-0.106l0.013,-0.105l0.013,-0.106l0.012,-0.106l0.01,-0.106l0.01,-0.106l0.008,-0.106l0.008,-0.106l0.006,-0.107l0.006,-0.106l0.004,-0.106l0.004,-0.107l0.002,-0.106l0.001,-0.107l0.001,-0.106l-0.001,-0.107l-0.002,-0.107l-0.002,-0.106l-0.004,-0.107l-0.005,-0.106l-0.006,-0.107l-0.007,-0.106l-0.007,-0.107l-0.009,-0.106l-0.01,-0.107l-0.011,-0.106l-0.012,-0.106l-0.013,-0.106l-0.014,-0.106l-0.015,-0.106l-0.016,-0.106l-0.017,-0.106l-0.019,-0.106l-0.019,-0.105l-0.02,-0.106l-0.021,-0.105l-0.023,-0.105l-0.023,-0.105l-0.024,-0.105l-0.026,-0.105l-0.026,-0.104l-0.028,-0.105l-0.028,-0.104l-0.03,-0.104l-0.03,-0.104l-0.032,-0.103l-0.033,-0.104l-0.034,-0.103l-0.034,-0.103l-0.036,-0.102l-0.037,-0.103l-0.038,-0.102l-0.039,-0.102l-0.04,-0.101l-0.041,-0.102l-0.042,-0.101l-0.044,-0.101l-0.044,-0.1l-0.045,-0.1l-0.046,-0.1l-0.048,-0.1l-0.048,-0.099l-0.05,-0.099l-0.05,-0.098l-0.052,-0.098l-0.053,-0.098l-0.053,-0.097l-0.055,-0.097l-0.056,-0.097l-0.057,-0.096l-0.058,-0.098l-0.059,-0.096l-0.06,-0.096l-0.06,-0.095l-0.061,-0.094l-0.062,-0.093l-0.063,-0.092l-0.064,-0.092l-0.064,-0.091l-0.065,-0.09l-0.066,-0.09l-0.066,-0.088l-0.067,-0.088l-0.068,-0.087l-0.069,-0.086l-0.069,-0.086l-0.071,-0.084l-0.07,-0.084l-0.072,-0.083l-0.072,-0.082l-0.073,-0.081l-0.074,-0.081l-0.074,-0.08l-0.075,-0.078l-0.075,-0.078l-0.077,-0.078l-0.077,-0.076l-0.077,-0.076l-0.078,-0.074l-0.079,-0.074l-0.08,-0.073l-0.08,-0.072l-0.081,-0.072l-0.082,-0.07l-0.082,-0.07l-0.082,-0.069l-0.084,-0.067l-0.084,-0.068l-0.084,-0.066l-0.085,-0.065l-0.086,-0.065l-0.087,-0.063l-0.087,-0.063l-0.087,-0.062l-0.088,-0.061l-0.089,-0.06l-0.089,-0.059l-0.09,-0.058l-0.091,-0.058l-0.09,-0.056l-0.092,-0.056l-0.092,-0.055l-0.093,-0.054l-0.093,-0.053l-0.094,-0.052l-0.094,-0.051l-0.095,-0.05l-0.095,-0.05l-0.096,-0.048l-0.096,-0.048l-0.097,-0.046l-0.097,-0.046l-0.098,-0.045l-0.098,-0.044l-0.099,-0.043l-0.099,-0.042l-0.1,-0.041l-0.1,-0.04l-0.101,-0.039l-0.101,-0.038l-0.102,-0.038l-0.102,-0.036l-0.102,-0.036l-0.103,-0.034l-0.104,-0.034l-0.103,-0.032l-0.105,-0.032l-0.104,-0.031l-0.106,-0.029l-0.105,-0.029l-0.106,-0.028l-0.106,-0.027l-0.107,-0.026l-0.107,-0.024l-0.108,-0.024l-0.108,-0.023l-0.108,-0.022l-0.109,-0.021l-0.109,-0.02l-0.11,-0.019l-0.11,-0.018l-0.11,-0.017l-0.11,-0.016l-0.111,-0.015l-0.112,-0.014l-0.111,-0.013l-0.112,-0.012l-0.112,-0.011l-0.113,-0.01l-0.113,-0.009l-0.113,-0.008l-0.114,-0.007l-0.114,-0.006l-0.114,-0.005l-0.115,-0.004l-0.114,-0.003l-0.115,-0.002l-0.116,-0.001l-0.116,0l-0.116,0.002l-0.116,0.002l-0.116,0.003l-0.117,0.005l-0.117,0.005l-0.117,0.007l-0.118,0.007l-0.118,0.009l-0.118,0.009l-0.118,0.011l-0.118,0.012l-0.119,0.013l-0.119,0.014l-0.119,0.015l-0.12,0.016l-0.119,0.017l-0.12,0.018l-0.12,0.019l-0.12,0.02l0.069,-0.118l0.068,-0.118l0.067,-0.118l0.065,-0.118l0.129,-0.234l0.127,-0.231l0.064,-0.114l0.065,-0.112l0.066,-0.112l0.067,-0.11l0.068,-0.108l0.07,-0.107l0.073,-0.105l0.037,-0.052l0.038,-0.051l0.06,-0.081l0.058,-0.08l0.053,-0.079l0.05,-0.08l0.023,-0.039l0.023,-0.039l0.022,-0.04l0.02,-0.039l0.02,-0.039l0.019,-0.039l0.018,-0.039l0.017,-0.039l0.016,-0.039l0.015,-0.038l0.014,-0.039l0.013,-0.039l0.012,-0.038l0.012,-0.039l0.01,-0.038l0.009,-0.039l0.008,-0.038l0.007,-0.039l0.007,-0.038l0.005,-0.039l0.004,-0.038l0.003,-0.038l0.002,-0.039l0.002,-0.038l0,-0.038l-0.001,-0.039l-0.002,-0.038l-0.003,-0.038l-0.004,-0.039l-0.005,-0.038l-0.006,-0.039l-0.007,-0.038l-0.008,-0.039l-0.009,-0.038l-0.01,-0.039l-0.012,-0.038l-0.012,-0.039l-0.014,-0.039l-0.014,-0.039l-0.016,-0.038l-0.016,-0.039l-0.018,-0.039l-0.019,-0.039l-0.02,-0.039l-0.021,-0.04l-0.022,-0.039l-0.023,-0.039l-0.025,-0.04l-0.025,-0.039l-0.027,-0.04l-0.028,-0.04l-0.029,-0.039l-0.03,-0.04l-0.031,-0.04l-0.032,-0.041l-0.033,-0.04l-0.041,-0.051l-0.041,-0.052l-0.039,-0.052l-0.039,-0.053l-0.038,-0.053l-0.037,-0.054l-0.037,-0.053l-0.036,-0.055l-0.035,-0.054l-0.034,-0.056l-0.034,-0.055l-0.033,-0.056l-0.032,-0.056l-0.031,-0.057l-0.031,-0.057l-0.03,-0.057l-0.029,-0.058l-0.028,-0.058l-0.028,-0.058l-0.027,-0.058l-0.026,-0.059l-0.025,-0.059l-0.025,-0.06l-0.023,-0.06l-0.023,-0.06l-0.023,-0.06l-0.021,-0.061l-0.021,-0.06l-0.02,-0.061l-0.019,-0.062l-0.018,-0.061l-0.017,-0.062l-0.017,-0.062l-0.016,-0.062l-0.015,-0.062l-0.015,-0.063l-0.013,-0.063l-0.013,-0.063l-0.012,-0.063l-0.011,-0.063l-0.01,-0.063l-0.01,-0.064l-0.009,-0.064l-0.007,-0.063l-0.008,-0.064l-0.006,-0.064l-0.005,-0.065l-0.005,-0.064l-0.004,-0.064l-0.003,-0.065l-0.002,-0.064l-0.001,-0.065l-0.001,-0.064l0.001,-0.065l0.001,-0.065l0.002,-0.065l0.003,-0.065l0.004,-0.064l0.004,-0.065l0.006,-0.065l0.006,-0.065l0.007,-0.065l0.008,-0.065l0.009,-0.065l0.009,-0.14l0.007,-0.14l0.005,-0.14l0.003,-0.14l0.001,-0.141l0,-0.141l-0.001,-0.142l-0.003,-0.142l-0.006,-0.287l-0.007,-0.29l-0.006,-0.294l-0.002,-0.149l0,-0.15l4.784,0l0,5.94Zm-18.553,11.891l0,11.507l-0.001,1.27l-0.003,1.271l-0.007,2.541l-0.002,1.27l0,0.635l0.001,0.635l0.001,0.635l0.003,0.635l0.003,0.635l0.005,0.634l0.002,0.089l0.004,0.088l0.006,0.088l0.009,0.087l0.01,0.087l0.013,0.086l0.015,0.086l0.017,0.085l0.019,0.085l0.022,0.084l0.023,0.084l0.026,0.083l0.027,0.082l0.03,0.082l0.031,0.08l0.034,0.08l0.036,0.079l0.037,0.078l0.04,0.078l0.041,0.076l0.044,0.075l0.045,0.075l0.047,0.073l0.049,0.072l0.051,0.071l0.053,0.07l0.054,0.068l0.057,0.068l0.058,0.066l0.06,0.064l0.061,0.064l0.064,0.062l0.065,0.06l0.066,0.059l0.068,0.056l0.069,0.055l0.07,0.053l0.071,0.052l0.073,0.049l0.074,0.048l0.074,0.045l0.076,0.044l0.077,0.042l0.078,0.04l0.079,0.038l0.079,0.036l0.081,0.034l0.081,0.032l0.082,0.03l0.083,0.028l0.083,0.027l0.084,0.024l0.085,0.022l0.085,0.019l0.086,0.018l0.087,0.016l0.087,0.013l0.087,0.012l0.088,0.009l0.088,0.007l0.088,0.005l0.089,0.003l0.089,0.001l0.09,-0.002l0.093,-0.002l0.092,-0.005l0.091,-0.007l0.09,-0.009l0.089,-0.012l0.089,-0.013l0.087,-0.016l0.087,-0.018l0.086,-0.02l0.085,-0.022l0.084,-0.024l0.083,-0.026l0.082,-0.028l0.081,-0.031l0.08,-0.032l0.079,-0.034l0.078,-0.036l0.076,-0.038l0.076,-0.04l0.074,-0.041l0.074,-0.044l0.072,-0.045l0.071,-0.047l0.069,-0.049l0.069,-0.05l0.067,-0.053l0.066,-0.054l0.064,-0.055l0.064,-0.058l0.061,-0.059l0.061,-0.06l0.059,-0.062l0.057,-0.064l0.056,-0.065l0.055,-0.067l0.053,-0.068l0.052,-0.07l0.05,-0.071l0.048,-0.073l0.047,-0.074l0.045,-0.075l0.043,-0.077l0.042,-0.078l0.04,-0.08l0.039,-0.081l0.037,-0.082l0.034,-0.083l0.034,-0.084l0.031,-0.086l0.029,-0.087l0.028,-0.088l0.026,-0.089l0.023,-0.091l0.022,-0.091l0.02,-0.093l0.018,-0.093l0.016,-0.095l0.014,-0.095l0.011,-0.097l0.01,-0.098l0.008,-0.098l0.005,-0.1l0.003,-0.1l0.002,-0.102l0,-20.927l-0.002,-0.061l-0.003,-0.06l-0.004,-0.059l-0.006,-0.061l-0.005,-0.064l-0.005,-0.066l-0.002,-0.055l-7.097,0Zm13.861,-17.74l0,0.058l0.002,0.148l0.005,0.294l0.008,0.29l0.006,0.287l0.002,0.143l0.002,0.142l0,0.142l-0.001,0.142l-0.003,0.142l-0.005,0.141l-0.007,0.142l-0.01,0.144l-0.009,0.067l-0.008,0.064l-0.007,0.063l-0.006,0.064l-0.005,0.064l-0.005,0.063l-0.004,0.064l-0.002,0.064l-0.002,0.063l-0.002,0.064l0,0.063l0.001,0.064l0.001,0.063l0.002,0.064l0.003,0.063l0.004,0.063l0.004,0.063l0.006,0.063l0.006,0.063l0.007,0.063l0.007,0.062l0.009,0.063l0.009,0.062l0.01,0.063l0.011,0.062l0.012,0.062l0.013,0.061l0.013,0.062l0.014,0.061l0.015,0.062l0.015,0.061l0.017,0.061l0.017,0.06l0.018,0.061l0.019,0.06l0.019,0.06l0.021,0.059l0.021,0.06l0.021,0.059l0.023,0.059l0.023,0.059l0.024,0.058l0.025,0.058l0.026,0.058l0.026,0.057l0.027,0.058l0.028,0.057l0.029,0.056l0.029,0.056l0.03,0.056l0.031,0.056l0.032,0.055l0.032,0.055l0.033,0.054l0.034,0.054l0.034,0.054l0.035,0.054l0.036,0.053l0.037,0.052l0.037,0.052l0.038,0.052l0.039,0.051l0.04,0.051l0.04,0.05l0.033,0.04l0.033,0.042l0.032,0.041l0.031,0.041l0.03,0.041l0.029,0.041l0.027,0.041l0.027,0.041l0.025,0.041l0.024,0.041l0.023,0.041l0.022,0.041l0.021,0.041l0.02,0.041l0.018,0.041l0.018,0.04l0.016,0.041l0.016,0.041l0.014,0.041l0.013,0.041l0.012,0.041l0.011,0.04l0.009,0.041l0.009,0.041l0.008,0.041l0.006,0.041l0.005,0.041l0.005,0.04l0.003,0.041l0.002,0.041l0.001,0.041l-0.001,0.041l-0.001,0.04l-0.002,0.041l-0.004,0.041l-0.004,0.041l-0.006,0.04l-0.006,0.041l-0.008,0.041l-0.009,0.04l-0.009,0.041l-0.011,0.041l-0.012,0.04l-0.013,0.041l-0.013,0.04l-0.015,0.041l-0.016,0.041l-0.017,0.04l-0.017,0.041l-0.019,0.04l-0.02,0.041l-0.02,0.04l-0.022,0.041l-0.022,0.041l-0.023,0.04l-0.025,0.041l-0.051,0.082l-0.055,0.081l-0.059,0.082l-0.061,0.081l-0.037,0.051l-0.036,0.05l-0.071,0.104l-0.07,0.105l-0.067,0.107l-0.067,0.109l-0.065,0.111l-0.064,0.112l-0.064,0.113l-0.127,0.23l-0.128,0.234l-0.066,0.118l-0.067,0.119l-0.04,0.069l0.049,-0.008l0.12,-0.018l0.121,-0.017l0.12,-0.016l0.12,-0.015l0.12,-0.014l0.119,-0.013l0.119,-0.012l0.119,-0.011l0.119,-0.01l0.119,-0.008l0.118,-0.008l0.118,-0.006l0.118,-0.006l0.118,-0.004l0.117,-0.004l0.117,-0.002l0.117,-0.001l0.116,0l0.117,0l0.115,0.002l0.116,0.003l0.115,0.004l0.116,0.005l0.114,0.006l0.115,0.007l0.114,0.008l0.114,0.009l0.113,0.01l0.113,0.011l0.113,0.012l0.112,0.014l0.113,0.014l0.111,0.015l0.112,0.016l0.111,0.017l0.111,0.018l0.11,0.019l0.11,0.021l0.109,0.021l0.11,0.022l0.108,0.023l0.109,0.024l0.108,0.025l0.108,0.026l0.107,0.027l0.107,0.028l0.106,0.029l0.106,0.03l0.105,0.031l0.106,0.032l0.104,0.033l0.105,0.034l0.103,0.035l0.104,0.035l0.103,0.037l0.102,0.038l0.102,0.038l0.102,0.04l0.101,0.04l0.1,0.042l0.1,0.042l0.1,0.043l0.099,0.045l0.099,0.045l0.098,0.046l0.097,0.047l0.097,0.048l0.097,0.049l0.096,0.05l0.096,0.05l0.095,0.052l0.094,0.052l0.094,0.054l0.093,0.054l0.093,0.055l0.093,0.057l0.091,0.057l0.091,0.057l0.091,0.059l0.09,0.06l0.09,0.061l0.088,0.061l0.089,0.063l0.087,0.063l0.087,0.064l0.087,0.065l0.086,0.066l0.085,0.067l0.085,0.067l0.084,0.069l0.083,0.069l0.083,0.07l0.082,0.071l0.082,0.072l0.081,0.073l0.08,0.074l0.079,0.074l0.079,0.075l0.079,0.077l0.077,0.077l0.077,0.077l0.076,0.079l0.076,0.08l0.075,0.08l0.074,0.081l0.074,0.082l0.072,0.083l0.072,0.084l0.072,0.084l0.07,0.085l0.07,0.086l0.07,0.087l0.068,0.088l0.068,0.088l0.067,0.09l0.066,0.09l0.066,0.091l0.064,0.091l0.064,0.093l0.064,0.093l0.062,0.094l0.062,0.095l0.061,0.095l0.06,0.097l0.059,0.097l0.059,0.098l0.057,0.097l0.057,0.097l0.055,0.098l0.054,0.098l0.053,0.099l0.052,0.099l0.051,0.099l0.05,0.1l0.049,0.1l0.048,0.1l0.046,0.101l0.046,0.101l0.045,0.101l0.043,0.102l0.043,0.101l0.041,0.103l0.04,0.102l0.04,0.103l0.038,0.103l0.037,0.103l0.036,0.104l0.035,0.103l0.034,0.104l0.033,0.104l0.032,0.105l0.031,0.105l0.03,0.104l0.029,0.105l0.028,0.106l0.026,0.105l0.026,0.106l0.024,0.105l0.024,0.106l0.023,0.106l0.021,0.106l0.02,0.107l0.02,0.106l0.018,0.107l0.017,0.106l0.017,0.107l0.015,0.107l0.014,0.107l0.013,0.107l0.012,0.107l0.011,0.108l0.01,0.107l0.009,0.107l0.008,0.107l0.007,0.108l0.006,0.107l0.004,0.108l0.004,0.107l0.003,0.108l0.002,0.107l0,0.107l0,0.108l-0.001,0.107l-0.003,0.108l-0.003,0.107l-0.005,0.107l-0.005,0.107l-0.007,0.108l-0.007,0.107l-0.009,0.107l-0.01,0.107l-0.01,0.106l-0.012,0.107l-0.013,0.107l-0.013,0.106l-0.015,0.107l-0.016,0.106l-0.017,0.106l-0.017,0.106l-0.019,0.106l-0.02,0.106l-0.021,0.105l-0.022,0.105l-0.023,0.105l-0.024,0.105l-0.025,0.105l-0.026,0.105l-0.027,0.104l-0.027,0.104l-0.029,0.104l-0.03,0.103l-0.032,0.104l-0.032,0.103l-0.033,0.103l-0.034,0.102l-0.035,0.103l-0.036,0.102l-0.037,0.102l-0.038,0.101l-0.039,0.101l-0.04,0.101l-0.041,0.1l-0.042,0.101l-0.044,0.099l-0.044,0.1l-0.045,0.099l-0.046,0.099l-0.047,0.098l-0.048,0.098l-0.049,0.098l-0.05,0.097l-0.052,0.097l-0.052,0.096l-0.053,0.097l-0.054,0.095l-0.055,0.095l-0.056,0.095l-0.057,0.094l-0.058,0.094l-0.06,0.094l-0.06,0.093l-0.061,0.092l-0.062,0.092l-0.063,0.092l-0.064,0.091l-0.065,0.09l-0.066,0.09l-0.067,0.09l-0.068,0.088l-0.069,0.089l-0.07,0.088l-0.071,0.087l-0.072,0.087l-0.072,0.085l-0.067,0.081l-0.068,0.081l-0.069,0.081l-0.07,0.079l-0.071,0.079l-0.071,0.078l-0.072,0.077l-0.072,0.077l-0.074,0.076l-0.074,0.075l-0.075,0.074l-0.075,0.074l-0.076,0.073l-0.077,0.072l-0.078,0.071l-0.078,0.07l-0.079,0.07l-0.08,0.069l-0.08,0.068l-0.081,0.067l-0.081,0.066l-0.082,0.066l-0.083,0.065l-0.083,0.064l-0.084,0.063l-0.085,0.062l-0.085,0.061l-0.086,0.061l-0.086,0.06l-0.087,0.059l-0.088,0.058l-0.088,0.057l-0.088,0.057l-0.09,0.055l-0.089,0.055l-0.091,0.054l-0.091,0.052l-0.091,0.052l-0.092,0.052l-0.092,0.05l-0.093,0.049l-0.094,0.049l-0.094,0.047l-0.094,0.047l-0.095,0.046l-0.095,0.044l-0.096,0.044l-0.097,0.043l-0.096,0.043l-0.098,0.041l-0.097,0.04l-0.098,0.039l-0.099,0.039l-0.099,0.037l-0.099,0.036l-0.1,0.036l-0.1,0.034l-0.101,0.034l-0.101,0.033l-0.102,0.031l-0.101,0.031l-0.102,0.03l-0.103,0.028l-0.102,0.028l-0.146,0.04l-0.147,0.039l-0.148,0.037l-0.148,0.035l-0.148,0.033l-0.148,0.031l-0.149,0.029l-0.149,0.027l-0.149,0.025l-0.149,0.023l-0.149,0.021l-0.15,0.019l-0.149,0.017l-0.15,0.016l-0.15,0.013l-0.15,0.011l-0.15,0.01l-0.149,0.007l-0.15,0.006l-0.15,0.003l-0.15,0.002l-0.15,0l-0.149,-0.002l-0.15,-0.005l-0.15,-0.006l-0.149,-0.007l-0.149,-0.01l-0.149,-0.012l-0.149,-0.014l-0.149,-0.015l-0.148,-0.018l-0.148,-0.019l-0.148,-0.022l-0.148,-0.023l-0.147,-0.025l-0.147,-0.027l-0.147,-0.029l-0.146,-0.03l-0.146,-0.033l-0.145,-0.035l-0.145,-0.036l-0.145,-0.038l-0.144,-0.04l-0.144,-0.042l-0.143,-0.044l-0.143,-0.046l-0.142,-0.048l-0.141,-0.049l-0.141,-0.052l-0.141,-0.053l-0.14,-0.055l-0.139,-0.057l-0.138,-0.058l-0.138,-0.061l-0.138,-0.063l-0.136,-0.064l-0.136,-0.066l-0.135,-0.068l-0.134,-0.07l-0.134,-0.071l-0.132,-0.074l-0.132,-0.075l-0.122,-0.071l0.001,1.049l0.001,0.597l0.002,0.591l0.003,0.588l0.006,0.584l0.007,0.582l0.009,0.58l0.001,0.009l0.001,0.007l0.001,0.008l0.003,0.009l0.003,0.009l0.004,0.011l0.005,0.011l0.005,0.01l0.015,0.025l0.017,0.025l0.021,0.025l0.022,0.025l0.025,0.024l0.026,0.023l0.027,0.022l0.028,0.02l0.029,0.017l0.028,0.016l0.027,0.012l0.027,0.01l0.401,0.128l0.403,0.126l0.404,0.125l0.406,0.124l0.822,0.248l0.416,0.125l0.422,0.128l0.034,0.019l0.023,0.031l0.008,0.038l0,5.736l4.63,0l0,-5.849l0.006,-0.031l0.015,-0.028l0.025,-0.02l0.03,-0.011l0.119,-0.021l0.119,-0.022l0.119,-0.023l0.119,-0.023l0.118,-0.025l0.118,-0.025l0.118,-0.026l0.118,-0.026l0.117,-0.028l0.118,-0.028l0.117,-0.029l0.116,-0.03l0.117,-0.031l0.116,-0.031l0.116,-0.032l0.116,-0.034l0.116,-0.033l0.115,-0.035l0.115,-0.035l0.115,-0.037l0.114,-0.036l0.115,-0.038l0.114,-0.039l0.113,-0.039l0.114,-0.04l0.113,-0.041l0.113,-0.041l0.112,-0.043l0.112,-0.043l0.112,-0.044l0.112,-0.045l0.111,-0.045l0.111,-0.046l0.111,-0.047l0.11,-0.048l0.11,-0.048l0.11,-0.049l0.109,-0.05l0.109,-0.051l0.108,-0.051l0.109,-0.053l0.107,-0.053l0.108,-0.053l0.107,-0.055l0.107,-0.055l0.106,-0.056l0.106,-0.056l0.106,-0.058l0.105,-0.058l0.105,-0.059l0.105,-0.059l0.104,-0.061l0.104,-0.061l0.103,-0.061l0.103,-0.063l0.102,-0.063l0.102,-0.064l0.102,-0.064l0.101,-0.066l0.101,-0.066l0.101,-0.067l0.1,-0.067l0.099,-0.068l0.099,-0.069l0.029,-0.014l0.032,-0.002l0.031,0.008l0.026,0.019l0.522,0.537l0.521,0.534l0.52,0.53l0.518,0.527l1.026,1.041l0.947,0.958l0.367,-0.356l0.428,-0.416l0.85,-0.83l0.85,-0.83l0.428,-0.417l0.366,-0.353l-0.457,-0.451l-0.524,-0.516l-1.048,-1.027l-1.036,-1.017l-0.511,-0.502l-0.504,-0.498l-0.022,-0.033l-0.005,-0.039l0.011,-0.037l0.119,-0.22l0.12,-0.218l0.237,-0.431l0.234,-0.425l0.115,-0.211l0.113,-0.21l0.112,-0.209l0.11,-0.209l0.107,-0.208l0.106,-0.208l0.102,-0.208l0.1,-0.208l0.049,-0.103l0.048,-0.105l0.047,-0.104l0.046,-0.104l0.045,-0.106l0.044,-0.108l0.043,-0.108l0.043,-0.108l0.041,-0.11l0.04,-0.109l0.039,-0.11l0.039,-0.111l0.038,-0.111l0.038,-0.112l0.073,-0.225l0.071,-0.227l0.07,-0.228l0.068,-0.231l0.069,-0.232l0.136,-0.47l0.07,-0.237l0.071,-0.24l0.073,-0.24l0.075,-0.242l0.019,-0.034l0.031,-0.022l0.037,-0.008l5.795,0l0,-4.64l-0.001,-0.001l-0.042,-0.019l-0.014,-0.007l-0.005,-0.002l-4.573,0l-0.22,0l-0.1,-0.001l-0.094,-0.001l-0.088,-0.003l-0.083,-0.003l-0.077,-0.005l-0.073,-0.006l-0.069,-0.008l-0.063,-0.011l-0.032,-0.006l-0.029,-0.007l-0.029,-0.007l-0.029,-0.008l-0.027,-0.01l-0.027,-0.01l-0.026,-0.011l-0.025,-0.011l-0.024,-0.013l-0.024,-0.014l-0.022,-0.015l-0.022,-0.016l-0.022,-0.017l-0.02,-0.018l-0.019,-0.019l-0.019,-0.02l-0.018,-0.022l-0.017,-0.022l-0.016,-0.023l-0.016,-0.023l-0.015,-0.025l-0.014,-0.026l-0.014,-0.027l-0.014,-0.028l-0.025,-0.058l-0.024,-0.063l-0.024,-0.067l-0.022,-0.073l-0.023,-0.077l-0.023,-0.083l-0.023,-0.088l-0.024,-0.095l-0.051,-0.205l-0.057,-0.189l-0.06,-0.191l-0.062,-0.189l-0.063,-0.189l-0.066,-0.189l-0.067,-0.188l-0.07,-0.187l-0.071,-0.186l-0.073,-0.185l-0.075,-0.185l-0.076,-0.184l-0.079,-0.183l-0.081,-0.182l-0.082,-0.182l-0.084,-0.181l-0.086,-0.179l-0.088,-0.179l-0.089,-0.178l-0.092,-0.178l-0.093,-0.176l-0.095,-0.175l-0.097,-0.175l-0.098,-0.173l-0.101,-0.173l-0.102,-0.171l-0.104,-0.171l-0.105,-0.169l-0.108,-0.169l-0.109,-0.168l-0.11,-0.166l-0.113,-0.165l-0.115,-0.165l0.002,0l-0.011,-0.015l-0.008,-0.036l0.007,-0.036l0.02,-0.03l0.533,-0.527l0.532,-0.523l1.06,-1.039l1.048,-1.028l0.518,-0.51l0.448,-0.442l-0.761,-0.753l-0.416,-0.411l-0.42,-0.414l-0.424,-0.416l-0.428,-0.419l-0.435,-0.423l-0.377,-0.365l-0.447,0.453l-0.511,0.521l-0.512,0.523l-0.514,0.526l-1.03,1.06l-1.039,1.072l-0.026,0.018l-0.031,0.009l-0.032,-0.002l-0.029,-0.014l-0.099,-0.068l-0.099,-0.067l-0.1,-0.067l-0.1,-0.066l-0.101,-0.066l-0.101,-0.064l-0.101,-0.064l-0.102,-0.063l-0.102,-0.063l-0.103,-0.062l-0.103,-0.061l-0.103,-0.06l-0.104,-0.06l-0.104,-0.059l-0.104,-0.058l-0.105,-0.057l-0.106,-0.057l-0.105,-0.056l-0.106,-0.056l-0.107,-0.054l-0.107,-0.054l-0.107,-0.053l-0.107,-0.053l-0.108,-0.051l-0.108,-0.051l-0.109,-0.05l-0.109,-0.05l-0.109,-0.048l-0.109,-0.048l-0.11,-0.048l-0.11,-0.046l-0.111,-0.046l-0.111,-0.045l-0.111,-0.044l-0.111,-0.043l-0.112,-0.043l-0.112,-0.042l-0.112,-0.041l-0.113,-0.041l-0.113,-0.039l-0.113,-0.039l-0.113,-0.038l-0.114,-0.038l-0.114,-0.036l-0.114,-0.036l-0.115,-0.035l-0.115,-0.035l-0.115,-0.033l-0.115,-0.033l-0.115,-0.032l-0.116,-0.031l-0.116,-0.031l-0.116,-0.029l-0.117,-0.029l-0.117,-0.028l-0.116,-0.027l-0.118,-0.027l-0.117,-0.026l-0.118,-0.025l-0.117,-0.024l-0.118,-0.023l-0.119,-0.023l-0.118,-0.021l-0.119,-0.021l-0.03,-0.011l-0.024,-0.021l-0.016,-0.027l-0.005,-0.032l0,-5.849l-4.601,0Zm2.472,13.009l0.112,0.002l0.112,0.004l0.111,0.005l0.112,0.007l0.11,0.008l0.111,0.01l0.11,0.011l0.109,0.012l0.109,0.014l0.109,0.015l0.108,0.017l0.108,0.018l0.108,0.02l0.107,0.02l0.106,0.022l0.106,0.024l0.106,0.025l0.105,0.026l0.104,0.028l0.104,0.028l0.104,0.03l0.103,0.032l0.102,0.033l0.102,0.034l0.101,0.035l0.101,0.037l0.1,0.037l0.1,0.04l0.098,0.04l0.099,0.042l0.097,0.042l0.097,0.044l0.097,0.046l0.096,0.046l0.095,0.048l0.094,0.049l0.094,0.05l0.093,0.051l0.092,0.052l0.092,0.054l0.091,0.055l0.09,0.055l0.09,0.057l0.088,0.059l0.088,0.059l0.087,0.06l0.087,0.062l0.086,0.062l0.084,0.064l0.084,0.064l0.084,0.066l0.082,0.067l0.082,0.068l0.08,0.069l0.08,0.07l0.079,0.071l0.078,0.072l0.077,0.073l0.077,0.074l0.075,0.075l0.075,0.076l0.073,0.077l0.073,0.078l0.072,0.078l0.071,0.08l0.069,0.081l0.069,0.082l0.068,0.083l0.067,0.083l0.066,0.085l0.065,0.085l0.064,0.086l0.063,0.088l0.061,0.088l0.061,0.089l0.06,0.09l0.059,0.09l0.057,0.092l0.057,0.092l0.055,0.093l0.054,0.094l0.054,0.095l0.052,0.096l0.05,0.096l0.05,0.098l0.049,0.098l0.047,0.099l0.047,0.099l0.045,0.1l0.044,0.102l0.042,0.101l0.042,0.103l0.04,0.103l0.039,0.104l0.038,0.105l0.037,0.106l0.035,0.106l0.034,0.106l0.033,0.108l0.031,0.108l0.031,0.109l0.028,0.109l0.028,0.111l0.026,0.11l0.025,0.112l0.024,0.112l0.022,0.112l0.021,0.114l0.019,0.114l0.018,0.114l0.017,0.115l0.015,0.116l0.014,0.116l0.013,0.116l0.011,0.118l0.009,0.117l0.009,0.119l0.006,0.119l0.005,0.119l0.004,0.12l0.002,0.12l0.001,0.121l0.001,0l-0.01,0.152l-0.011,0.151l-0.013,0.15l-0.016,0.149l-0.018,0.148l-0.02,0.148l-0.022,0.146l-0.024,0.146l-0.026,0.144l-0.029,0.144l-0.031,0.143l-0.033,0.141l-0.035,0.141l-0.037,0.14l-0.04,0.139l-0.041,0.137l-0.044,0.137l-0.046,0.135l-0.049,0.135l-0.05,0.133l-0.053,0.132l-0.055,0.131l-0.057,0.13l-0.06,0.128l-0.062,0.128l-0.064,0.126l-0.066,0.125l-0.069,0.123l-0.07,0.123l-0.073,0.121l-0.076,0.12l-0.078,0.118l-0.08,0.117l-0.082,0.116l-0.084,0.114l-0.087,0.113l-0.09,0.112l-0.091,0.11l-0.094,0.108l-0.096,0.108l-0.099,0.105l-0.1,0.104l-0.104,0.103l-0.105,0.101l-0.108,0.1l-0.11,0.098l-0.113,0.096l-0.115,0.095l-0.118,0.093l-0.119,0.092l-0.123,0.09l-0.124,0.088l-0.127,0.087l-0.129,0.085l-0.132,0.083l-0.134,0.081l-0.137,0.08l-0.139,0.078l-0.142,0.076l-0.144,0.074l-0.146,0.072l-0.149,0.071l-0.151,0.069l-0.154,0.067l-0.155,0.064l-0.154,0.062l-0.155,0.058l-0.154,0.056l-0.153,0.053l-0.154,0.05l-0.153,0.047l-0.153,0.044l-0.152,0.042l-0.153,0.038l-0.152,0.036l-0.151,0.033l-0.152,0.03l-0.151,0.027l-0.15,0.024l-0.151,0.021l-0.149,0.019l-0.15,0.015l-0.149,0.013l-0.149,0.01l-0.149,0.007l-0.148,0.005l-0.147,0.001l-0.148,-0.001l-0.147,-0.004l-0.146,-0.007l-0.146,-0.01l-0.146,-0.013l-0.145,-0.015l-0.145,-0.018l-0.144,-0.021l-0.144,-0.024l-0.144,-0.027l-0.143,-0.029l-0.143,-0.033l-0.142,-0.035l-0.141,-0.037l-0.142,-0.041l-0.14,-0.043l-0.14,-0.046l-0.14,-0.049l-0.139,-0.052l-0.139,-0.054l-0.138,-0.058l-0.138,-0.059l-0.137,-0.063l-0.137,-0.066l-0.136,-0.068l-0.136,-0.071l-0.135,-0.073l-0.134,-0.077l-0.134,-0.079l-0.133,-0.082l-0.133,-0.084l-0.132,-0.088l-0.132,-0.09l-0.131,-0.092l-0.13,-0.096l-0.13,-0.098l-0.129,-0.101l-0.129,-0.104l-0.128,-0.106l-0.127,-0.109l-0.127,-0.112l-0.028,-0.029l-0.027,-0.03l-0.025,-0.032l-0.024,-0.032l-0.023,-0.034l-0.02,-0.034l-0.019,-0.036l-0.018,-0.036l-0.015,-0.037l-0.015,-0.037l-0.012,-0.039l-0.01,-0.038l-0.009,-0.04l-0.007,-0.039l-0.005,-0.04l-0.004,-0.041l0,-9.933l0.004,-0.045l0.004,-0.044l0.006,-0.044l0.006,-0.044l0.008,-0.044l0.008,-0.044l0.01,-0.044l0.01,-0.043l0.012,-0.043l0.012,-0.043l0.013,-0.043l0.015,-0.042l0.015,-0.042l0.016,-0.042l0.017,-0.041l0.018,-0.041l0.045,-0.113l0.046,-0.111l0.047,-0.108l0.049,-0.105l0.051,-0.104l0.053,-0.1l0.054,-0.099l0.056,-0.095l0.057,-0.094l0.058,-0.091l0.061,-0.089l0.061,-0.087l0.063,-0.084l0.065,-0.083l0.066,-0.08l0.067,-0.078l0.069,-0.076l0.069,-0.073l0.072,-0.072l0.072,-0.07l0.074,-0.067l0.075,-0.066l0.077,-0.063l0.077,-0.062l0.079,-0.06l0.08,-0.058l0.081,-0.056l0.082,-0.054l0.083,-0.053l0.085,-0.05l0.085,-0.049l0.087,-0.048l0.087,-0.045l0.089,-0.044l0.089,-0.043l0.091,-0.04l0.091,-0.039l0.092,-0.038l0.093,-0.036l0.094,-0.035l0.095,-0.033l0.096,-0.031l0.097,-0.031l0.097,-0.029l0.098,-0.027l0.099,-0.026l0.099,-0.025l0.1,-0.024l0.101,-0.023l0.102,-0.021l0.102,-0.02l0.103,-0.019l0.103,-0.017l0.104,-0.017l0.105,-0.016l0.105,-0.014l0.106,-0.014l0.106,-0.012l0.106,-0.012l0.107,-0.01l0.108,-0.01l0.107,-0.009l0.109,-0.008l0.108,-0.007l0.114,-0.007l0.114,-0.005l0.113,-0.003l0.114,-0.002l0.112,-0.001l0.113,0.001Zm-0.224,0.091l-0.112,0.002l-0.113,0.004l-0.112,0.005l-0.113,0.007l-0.108,0.007l-0.107,0.008l-0.108,0.008l-0.106,0.01l-0.106,0.011l-0.106,0.011l-0.105,0.012l-0.105,0.014l-0.104,0.014l-0.104,0.016l-0.103,0.016l-0.102,0.018l-0.102,0.018l-0.101,0.02l-0.1,0.021l-0.1,0.022l-0.099,0.024l-0.098,0.024l-0.098,0.026l-0.097,0.027l-0.096,0.029l-0.095,0.03l-0.094,0.031l-0.094,0.033l-0.092,0.034l-0.092,0.035l-0.091,0.037l-0.09,0.039l-0.088,0.04l-0.088,0.041l-0.087,0.043l-0.086,0.045l-0.085,0.047l-0.084,0.048l-0.083,0.049l-0.081,0.052l-0.081,0.053l-0.079,0.055l-0.078,0.057l-0.078,0.058l-0.075,0.061l-0.075,0.062l-0.074,0.064l-0.072,0.066l-0.071,0.069l-0.07,0.07l-0.068,0.072l-0.067,0.074l-0.066,0.076l-0.065,0.079l-0.063,0.08l-0.062,0.083l-0.06,0.085l-0.059,0.087l-0.058,0.09l-0.056,0.091l-0.054,0.095l-0.053,0.096l-0.052,0.099l-0.05,0.101l-0.048,0.104l-0.047,0.106l-0.045,0.109l-0.045,0.114l-0.019,0.042l-0.016,0.039l-0.015,0.04l-0.015,0.04l-0.013,0.041l-0.013,0.04l-0.012,0.041l-0.011,0.041l-0.01,0.042l-0.009,0.041l-0.008,0.042l-0.007,0.042l-0.006,0.042l-0.006,0.042l-0.004,0.043l-0.003,0.04l0,9.925l0.003,0.035l0.004,0.036l0.007,0.035l0.008,0.036l0.009,0.034l0.011,0.034l0.013,0.034l0.014,0.033l0.015,0.032l0.017,0.032l0.019,0.031l0.02,0.03l0.021,0.029l0.023,0.029l0.024,0.027l0.025,0.025l0.123,0.109l0.126,0.108l0.127,0.105l0.128,0.103l0.128,0.1l0.129,0.098l0.129,0.094l0.13,0.092l0.13,0.089l0.131,0.087l0.131,0.084l0.132,0.081l0.133,0.078l0.133,0.076l0.134,0.072l0.134,0.071l0.134,0.067l0.136,0.065l0.135,0.062l0.136,0.059l0.137,0.057l0.137,0.053l0.138,0.051l0.138,0.049l0.139,0.045l0.139,0.043l0.139,0.04l0.14,0.038l0.141,0.034l0.14,0.032l0.142,0.029l0.141,0.026l0.143,0.024l0.142,0.021l0.143,0.018l0.144,0.015l0.144,0.012l0.144,0.01l0.145,0.007l0.145,0.004l0.146,0.002l0.146,-0.002l0.146,-0.004l0.147,-0.007l0.147,-0.01l0.147,-0.013l0.148,-0.015l0.148,-0.019l0.149,-0.021l0.149,-0.024l0.149,-0.026l0.15,-0.03l0.15,-0.032l0.151,-0.036l0.15,-0.038l0.151,-0.041l0.152,-0.044l0.151,-0.046l0.153,-0.05l0.152,-0.052l0.153,-0.056l0.153,-0.058l0.153,-0.061l0.153,-0.064l0.153,-0.066l0.15,-0.068l0.147,-0.07l0.145,-0.072l0.143,-0.073l0.14,-0.076l0.137,-0.077l0.136,-0.079l0.133,-0.08l0.13,-0.083l0.128,-0.084l0.126,-0.085l0.123,-0.087l0.121,-0.089l0.118,-0.091l0.116,-0.092l0.114,-0.094l0.111,-0.095l0.109,-0.097l0.107,-0.099l0.104,-0.1l0.102,-0.101l0.1,-0.103l0.097,-0.104l0.095,-0.106l0.093,-0.108l0.09,-0.108l0.089,-0.111l0.085,-0.111l0.084,-0.113l0.081,-0.114l0.079,-0.116l0.077,-0.117l0.074,-0.118l0.073,-0.12l0.07,-0.121l0.067,-0.122l0.066,-0.123l0.063,-0.125l0.061,-0.126l0.059,-0.127l0.057,-0.128l0.054,-0.13l0.052,-0.13l0.05,-0.132l0.048,-0.133l0.046,-0.134l0.043,-0.135l0.042,-0.136l0.039,-0.137l0.037,-0.139l0.034,-0.139l0.033,-0.14l0.03,-0.142l0.029,-0.142l0.026,-0.143l0.024,-0.144l0.022,-0.145l0.019,-0.146l0.018,-0.147l0.015,-0.148l0.014,-0.149l0.011,-0.149l0.009,-0.144l0,-0.001l-0.001,-0.121l-0.002,-0.119l-0.004,-0.119l-0.005,-0.118l-0.007,-0.117l-0.008,-0.118l-0.01,-0.116l-0.01,-0.116l-0.013,-0.116l-0.014,-0.115l-0.015,-0.114l-0.016,-0.114l-0.018,-0.114l-0.019,-0.112l-0.021,-0.112l-0.022,-0.112l-0.023,-0.111l-0.025,-0.11l-0.026,-0.11l-0.027,-0.109l-0.029,-0.108l-0.03,-0.108l-0.031,-0.107l-0.032,-0.106l-0.034,-0.106l-0.035,-0.105l-0.036,-0.104l-0.038,-0.104l-0.038,-0.103l-0.04,-0.102l-0.041,-0.102l-0.043,-0.1l-0.043,-0.1l-0.045,-0.1l-0.046,-0.098l-0.046,-0.098l-0.049,-0.097l-0.049,-0.096l-0.05,-0.096l-0.052,-0.094l-0.052,-0.094l-0.054,-0.093l-0.055,-0.092l-0.056,-0.092l-0.057,-0.09l-0.058,-0.09l-0.059,-0.089l-0.06,-0.088l-0.061,-0.087l-0.062,-0.086l-0.063,-0.086l-0.065,-0.084l-0.065,-0.084l-0.066,-0.083l-0.067,-0.081l-0.068,-0.081l-0.069,-0.08l-0.07,-0.079l-0.071,-0.078l-0.072,-0.077l-0.073,-0.077l-0.074,-0.075l-0.074,-0.074l-0.076,-0.073l-0.076,-0.072l-0.078,-0.072l-0.078,-0.07l-0.079,-0.069l-0.08,-0.068l-0.08,-0.067l-0.082,-0.066l-0.082,-0.065l-0.083,-0.064l-0.084,-0.063l-0.085,-0.062l-0.085,-0.061l-0.086,-0.06l-0.087,-0.058l-0.088,-0.058l-0.089,-0.056l-0.089,-0.055l-0.09,-0.054l-0.09,-0.053l-0.092,-0.052l-0.092,-0.051l-0.092,-0.049l-0.094,-0.048l-0.094,-0.048l-0.095,-0.046l-0.095,-0.044l-0.096,-0.044l-0.097,-0.042l-0.097,-0.041l-0.098,-0.04l-0.098,-0.039l-0.099,-0.037l-0.1,-0.037l-0.1,-0.035l-0.1,-0.033l-0.102,-0.033l-0.102,-0.031l-0.102,-0.029l-0.103,-0.029l-0.103,-0.027l-0.104,-0.026l-0.104,-0.025l-0.105,-0.023l-0.105,-0.022l-0.106,-0.02l-0.106,-0.02l-0.107,-0.017l-0.107,-0.017l-0.108,-0.015l-0.108,-0.014l-0.108,-0.012l-0.109,-0.011l-0.109,-0.009l-0.11,-0.008l-0.11,-0.007l-0.11,-0.005l-0.11,-0.004l-0.111,-0.002l-0.112,-0.001l-0.111,0Zm-6.839,-10.803l0.054,0.093l0.218,0.368l0.054,0.094l0.055,0.095l0.566,0.99l0.283,0.495l0.285,0.493l0.286,0.492l0.288,0.49l0.145,0.244l0.145,0.244l0.146,0.243l0.146,0.243l0.016,0.021l0.015,0.023l0.014,0.022l0.012,0.023l0.012,0.024l0.011,0.024l0.009,0.024l0.009,0.024l0.008,0.025l0.006,0.025l0.006,0.025l0.005,0.025l0.003,0.026l0.003,0.025l0.001,0.026l0.001,0.025l-0.001,0.026l-0.001,0.025l-0.003,0.026l-0.003,0.025l-0.005,0.025l-0.006,0.025l-0.006,0.025l-0.008,0.025l-0.009,0.025l-0.009,0.024l-0.011,0.023l-0.012,0.024l-0.012,0.023l-0.014,0.023l-0.015,0.022l-0.016,0.022l-0.488,0.829l-0.486,0.83l-0.484,0.829l-0.482,0.829l-0.48,0.83l-0.479,0.829l-0.957,1.657l-0.011,0.027l-0.011,0.026l-0.012,0.025l-0.014,0.024l-0.014,0.024l-0.015,0.023l-0.016,0.022l-0.017,0.022l-0.018,0.02l-0.018,0.02l-0.02,0.019l-0.02,0.018l-0.021,0.018l-0.021,0.016l-0.022,0.016l-0.023,0.015l-0.023,0.014l-0.024,0.012l-0.025,0.012l-0.024,0.011l-0.026,0.01l-0.026,0.009l-0.026,0.008l-0.026,0.007l-0.027,0.005l-0.028,0.005l-0.027,0.003l-0.028,0.003l-0.028,0.001l-0.028,0l-0.028,-0.001l-0.029,-0.003l-7.742,0l-0.026,0.002l-0.026,0.001l-0.026,0l-0.026,-0.001l-0.025,-0.002l-0.026,-0.003l-0.025,-0.003l-0.025,-0.005l-0.025,-0.006l-0.024,-0.007l-0.024,-0.007l-0.024,-0.009l-0.023,-0.009l-0.023,-0.01l-0.023,-0.011l-0.022,-0.012l-0.022,-0.013l-0.021,-0.013l-0.02,-0.014l-0.021,-0.015l-0.019,-0.016l-0.019,-0.017l-0.018,-0.017l-0.018,-0.018l-0.017,-0.019l-0.017,-0.019l-0.015,-0.02l-0.015,-0.021l-0.014,-0.021l-0.014,-0.022l-0.012,-0.023l-0.012,-0.023l-0.239,-0.42l-0.241,-0.419l-0.481,-0.836l-0.483,-0.835l-0.484,-0.835l-0.484,-0.834l-0.483,-0.835l-0.482,-0.837l-0.24,-0.419l-0.239,-0.419l-0.017,-0.04l-0.015,-0.039l-0.013,-0.041l-0.011,-0.041l-0.009,-0.041l-0.007,-0.042l-0.005,-0.042l-0.003,-0.042l-0.001,-0.042l0.001,-0.042l0.004,-0.042l0.005,-0.042l0.007,-0.041l0.01,-0.042l0.011,-0.041l0.014,-0.041l0.169,-0.301l0.169,-0.3l0.17,-0.3l0.171,-0.3l0.343,-0.597l0.344,-0.595l0.346,-0.594l0.347,-0.594l0.695,-1.184l0.013,0.008l0.014,0.006l0.014,0.006l0.015,0.004l0.014,0.003l0.016,0.002l0.015,0l0.015,-0.001l0.002,0l0,0.386l-0.001,0.383l-0.002,0.379l-0.005,0.374l-0.003,0.184l-0.004,0.184l-0.005,0.182l-0.006,0.18l-0.007,0.179l-0.008,0.176l-0.009,0.175l-0.01,0.173l0.003,0.044l0.005,0.043l0.007,0.043l0.009,0.043l0.01,0.042l0.012,0.042l0.014,0.041l0.016,0.04l0.017,0.04l0.019,0.039l0.021,0.038l0.023,0.037l0.023,0.037l0.026,0.035l0.027,0.034l0.029,0.034l0.653,0.614l0.657,0.614l0.659,0.614l0.661,0.616l0.665,0.617l0.667,0.619l1.344,1.244l0.261,-0.236l0.261,-0.233l0.519,-0.464l0.257,-0.232l0.256,-0.232l0.254,-0.234l0.126,-0.117l0.125,-0.118l0.809,-0.737l0.406,-0.372l0.405,-0.373l0.404,-0.375l0.402,-0.376l0.2,-0.188l0.199,-0.188l0.197,-0.189l0.197,-0.188l0.035,-0.037l0.033,-0.038l0.031,-0.04l0.029,-0.04l0.028,-0.042l0.025,-0.043l0.024,-0.045l0.021,-0.045l0.019,-0.046l0.017,-0.047l0.015,-0.047l0.013,-0.049l0.011,-0.049l0.008,-0.049l0.006,-0.05l0.004,-0.051l0.01,-0.183l0.008,-0.184l0.007,-0.185l0.005,-0.185l0.01,-0.373l0.01,-0.375l0.006,-0.189l0.007,-0.19l0.008,-0.19l0.01,-0.19l0.012,-0.192l0.015,-0.192l0.017,-0.193l0.009,-0.096l0.011,-0.097l0.054,0.096Zm-12.037,1.166l-0.347,0.593l-0.346,0.594l-0.344,0.595l-0.343,0.597l-0.17,0.299l-0.17,0.3l-0.17,0.3l-0.164,0.294l-0.01,0.03l-0.01,0.037l-0.009,0.037l-0.006,0.037l-0.005,0.037l-0.003,0.038l-0.001,0.038l0.001,0.037l0.002,0.038l0.005,0.037l0.006,0.038l0.008,0.037l0.01,0.036l0.011,0.036l0.014,0.036l0.014,0.033l0.237,0.415l0.24,0.419l0.482,0.836l0.483,0.835l0.967,1.669l0.483,0.835l0.482,0.837l0.24,0.419l0.241,0.422l0.012,0.023l0.011,0.02l0.011,0.019l0.012,0.018l0.013,0.018l0.014,0.017l0.014,0.017l0.014,0.016l0.016,0.016l0.016,0.014l0.016,0.015l0.017,0.013l0.017,0.013l0.018,0.013l0.018,0.011l0.019,0.011l0.019,0.01l0.019,0.01l0.02,0.009l0.02,0.008l0.021,0.007l0.021,0.006l0.021,0.006l0.021,0.005l0.022,0.004l0.021,0.004l0.022,0.002l0.022,0.002l0.023,0.001l0.022,0l0.023,-0.001l0.028,-0.002l7.749,0l0.03,0.002l0.025,0.001l0.024,0l0.024,-0.001l0.024,-0.002l0.024,-0.003l0.024,-0.004l0.023,-0.005l0.023,-0.006l0.022,-0.006l0.023,-0.008l0.022,-0.009l0.021,-0.009l0.021,-0.01l0.021,-0.011l0.02,-0.012l0.019,-0.013l0.019,-0.013l0.019,-0.015l0.018,-0.015l0.017,-0.015l0.017,-0.017l0.016,-0.017l0.015,-0.018l0.015,-0.018l0.014,-0.019l0.013,-0.02l0.012,-0.02l0.011,-0.021l0.011,-0.022l0.01,-0.022l0.009,-0.025l0.006,-0.012l0.957,-1.658l0.48,-0.829l0.48,-0.83l0.482,-0.829l0.484,-0.829l0.486,-0.83l0.488,-0.83l0.005,-0.007l0.015,-0.02l0.012,-0.019l0.012,-0.02l0.011,-0.02l0.01,-0.02l0.009,-0.02l0.009,-0.021l0.007,-0.021l0.007,-0.021l0.005,-0.021l0.005,-0.022l0.004,-0.021l0.003,-0.022l0.002,-0.022l0.002,-0.022l0,-0.022l0,-0.022l-0.002,-0.022l-0.002,-0.021l-0.003,-0.022l-0.004,-0.022l-0.005,-0.021l-0.005,-0.022l-0.007,-0.021l-0.007,-0.021l-0.009,-0.02l-0.009,-0.021l-0.01,-0.02l-0.011,-0.02l-0.012,-0.019l-0.012,-0.019l-0.017,-0.024l-0.149,-0.246l-0.146,-0.243l-0.145,-0.244l-0.145,-0.245l-0.288,-0.49l-0.286,-0.492l-0.285,-0.494l-0.284,-0.494l-0.566,-0.99l-0.054,-0.096l-0.054,-0.093l-0.109,-0.183l-0.075,-0.128l-0.009,0.102l-0.014,0.19l-0.012,0.191l-0.01,0.19l-0.008,0.189l-0.007,0.189l-0.006,0.188l-0.01,0.375l-0.01,0.373l-0.006,0.186l-0.007,0.186l-0.008,0.184l-0.01,0.185l-0.004,0.054l-0.006,0.054l-0.009,0.053l-0.012,0.054l-0.014,0.052l-0.016,0.052l-0.018,0.051l-0.021,0.049l-0.023,0.049l-0.026,0.048l-0.027,0.047l-0.03,0.046l-0.032,0.044l-0.034,0.043l-0.035,0.041l-0.038,0.04l-0.198,0.19l-0.198,0.188l-0.199,0.189l-0.2,0.188l-0.402,0.376l-0.405,0.375l-0.405,0.373l-0.406,0.372l-0.809,0.737l-0.125,0.118l-0.126,0.118l-0.254,0.234l-0.256,0.232l-0.258,0.232l-0.519,0.464l-0.261,0.234l-0.26,0.235l-0.029,0.018l-0.033,0.006l-0.034,-0.007l-0.028,-0.018l-1.344,-1.244l-0.667,-0.619l-0.665,-0.617l-0.662,-0.615l-0.659,-0.615l-0.656,-0.614l-0.654,-0.614l-0.007,-0.007l-0.03,-0.035l-0.029,-0.038l-0.028,-0.038l-0.026,-0.04l-0.024,-0.041l-0.023,-0.041l-0.021,-0.043l-0.019,-0.043l-0.017,-0.044l-0.015,-0.045l-0.013,-0.045l-0.012,-0.046l-0.009,-0.046l-0.008,-0.047l-0.005,-0.047l-0.004,-0.046l0,-0.012l0.011,-0.173l0.009,-0.174l0.008,-0.176l0.007,-0.178l0.006,-0.18l0.004,-0.181l0.004,-0.183l0.004,-0.185l0.004,-0.373l0.002,-0.378l0.001,-0.383l0,-0.277l-0.642,1.094Z" style="fill:#c8c8c8;"/><path d="M41.482,33.965l4.55,4.505c-2.523,2.469 -5.017,4.909 -7.51,7.376l-4.495,-4.45c-1.247,0.488 -2.406,0.948 -3.537,1.407c-0.164,0.122 -0.26,0.313 -0.261,0.516c-0.029,2.01 0,4.02 0,6.058l-10.58,0l0,-1.751c0,-1.378 -0.029,-2.756 0,-4.134c0.029,-0.545 -0.174,-0.804 -0.725,-0.804c-0.087,0.603 -0.145,1.206 -0.261,1.782c-0.423,1.803 -1.613,3.338 -3.264,4.207c-1.651,0.87 -3.601,0.99 -5.348,0.329c-2.518,-0.855 -4.216,-3.192 -4.233,-5.828c-0.058,-3.244 -0.029,-6.459 -0.029,-9.703l0,-12.372c0.003,-0.565 -0.147,-1.12 -0.435,-1.608c-1.595,-2.698 -3.161,-5.426 -4.756,-8.153c-0.188,-0.257 -0.188,-0.605 0,-0.862c1.827,-3.129 3.654,-6.287 5.481,-9.445c0.12,-0.302 0.427,-0.489 0.754,-0.46c0.9,0.029 1.827,0 2.784,0l0,1.407c0,1.867 0,3.732 0.029,5.628c0.017,0.292 0.141,0.567 0.35,0.775c0.754,0.746 1.536,1.435 2.35,2.182c0.87,-0.804 1.739,-1.551 2.55,-2.354c0.102,-0.173 0.143,-0.375 0.116,-0.574l0,-7.005c1.073,0 2.087,0 3.073,0.029c0.145,0 0.319,0.172 0.406,0.315c0.346,0.603 0.723,1.188 1.131,1.752l0,-2.038l10.583,0l0,6.43c1.276,0.517 2.494,1.005 3.741,1.522l4.55,-4.505c2.55,2.498 5.045,4.938 7.568,7.436l-3.364,3.33c-0.406,0.402 -1.015,0.747 -1.131,1.235c-0.087,0.43 0.377,0.976 0.58,1.464c0.226,0.481 0.41,0.98 0.55,1.493c0.116,0.544 0.406,0.66 0.9,0.631c1.769,-0.028 3.509,0 5.277,0l0.667,0l0,10.565l-6.089,0c-0.319,-0.054 -0.624,0.148 -0.696,0.46c-0.377,1.059 -0.841,2.121 -1.276,3.212Zm-3.8,-18.345c1.421,-1.407 2.842,-2.785 4.204,-4.134c-1.1,-1.089 -2.203,-2.182 -3.392,-3.33c-1.363,1.378 -2.726,2.784 -4.118,4.22c-2.115,-1.469 -4.53,-2.459 -7.075,-2.9l0,-5.94l-4.784,0c0,0.804 0.058,1.55 0,2.296c-0.197,1.383 0.191,2.786 1.073,3.876c0.725,0.861 0.667,1.637 0,2.498c-0.406,0.544 -0.696,1.177 -1.073,1.808c5.132,-0.891 9.743,1.178 12.207,5.341c2.45,4.099 2.009,9.285 -1.1,12.92c-1.418,1.738 -3.358,2.985 -5.538,3.56c-3.107,0.885 -6.447,0.426 -9.192,-1.263c0,1.637 0,3.187 0.029,4.737c0,0.144 0.203,0.347 0.377,0.402c1.073,0.347 2.146,0.66 3.276,1.005l0,5.828l4.814,0l0,-5.941c2.558,-0.443 4.984,-1.443 7.104,-2.928c1.392,1.436 2.783,2.842 4.117,4.191c1.16,-1.119 2.262,-2.21 3.422,-3.33c-1.392,-1.378 -2.813,-2.756 -4.147,-4.076c0.638,-1.178 1.276,-2.268 1.769,-3.388c0.493,-1.149 0.783,-2.383 1.189,-3.675l5.886,0l0,-4.794c-0.087,-0.029 -0.116,-0.058 -0.145,-0.058l-4.581,0c-1.247,0 -1.247,0 -1.537,-1.177c-0.611,-2.052 -1.551,-3.993 -2.784,-5.749l-0.001,0.001Zm-4.292,9.732c0,-5.167 -4.117,-9.014 -8.989,-8.699c-2.319,0.144 -4.407,0.833 -5.335,3.273c-0.098,0.218 -0.157,0.451 -0.174,0.689l0,9.933c0.013,0.217 0.106,0.421 0.261,0.574c2.697,2.412 5.828,2.986 9.134,1.58c3.306,-1.407 4.93,-4.106 5.104,-7.35l-0.001,0Zm-24.734,-4.077l0,11.599c0,3.388 -0.029,6.775 0,10.163c0.008,0.967 0.41,1.889 1.114,2.559c0.704,0.67 1.651,1.031 2.627,1.001c2.029,-0.029 3.566,-1.666 3.566,-3.876l0,-20.929c0,-0.173 -0.029,-0.316 -0.029,-0.517l-7.278,0Zm-1.943,-15.388c-0.041,0.005 -0.082,-0.006 -0.116,-0.028c-0.928,1.579 -1.855,3.157 -2.754,4.765c-0.078,0.216 -0.067,0.453 0.029,0.661c1.276,2.239 2.58,4.45 3.856,6.689c0.121,0.251 0.388,0.401 0.667,0.373l7.742,0c0.305,0.032 0.592,-0.145 0.696,-0.431c1.276,-2.21 2.55,-4.421 3.856,-6.633c0.174,-0.23 0.174,-0.546 0,-0.775c-0.783,-1.293 -1.536,-2.613 -2.29,-3.934c-0.145,-0.258 -0.29,-0.488 -0.435,-0.746c-0.116,1.034 -0.087,2.038 -0.145,3.014c-0.014,0.27 -0.128,0.526 -0.319,0.718c-1.044,1.005 -2.146,2.009 -3.219,2.986c-0.667,0.631 -1.363,1.234 -2.059,1.866c-1.8,-1.665 -3.566,-3.301 -5.306,-4.938c-0.157,-0.175 -0.249,-0.398 -0.261,-0.632c0.06,-0.917 0.06,-1.921 0.06,-2.955l-0.002,0Z" style="fill:#fff;fill-rule:nonzero;"/></svg>